solid ThermochromicV2
facet normal 0.0 0.0 -1.0
  outer loop
    vertex -5.639932965095795e-14 48.80000000000001 0.0
    vertex 2.2999999999999505 46.499999999999964 0.0
    vertex -3.3839597790574766e-14 37.19999999999999 0.0
  endloop
endfacet
facet normal 0.0 0.0 -1.0
  outer loop
    vertex 2.2999999999999505 46.499999999999964 0.0
    vertex -5.639932965095795e-14 48.80000000000001 0.0
    vertex 104.99999999999994 48.800000000000004 0.0
  endloop
endfacet
facet normal 0.0 0.0 -1.0
  outer loop
    vertex 2.2999999999999505 46.499999999999964 0.0
    vertex 104.99999999999994 48.800000000000004 0.0
    vertex 99.99999999999996 46.5 0.0
  endloop
endfacet
facet normal 0.0 0.0 -1.0
  outer loop
    vertex 99.99999999999996 46.5 0.0
    vertex 104.99999999999994 48.800000000000004 0.0
    vertex 99.99999999999996 43.8 0.0
  endloop
endfacet
facet normal 0.0 0.0 -1.0
  outer loop
    vertex 99.99999999999996 43.8 0.0
    vertex 104.99999999999994 48.800000000000004 0.0
    vertex 104.99999999999994 43.8 0.0
  endloop
endfacet
facet normal 0.0 0.0 -1.0
  outer loop
    vertex 104.99999999999994 4.9999999999999885 0.0
    vertex 99.99999999999997 2.3000000000000127 0.0
    vertex 99.99999999999996 4.9999999999999885 0.0
  endloop
endfacet
facet normal 0.0 0.0 -1.0
  outer loop
    vertex 2.299999999999872 2.2999999999999847 0.0
    vertex 104.99999999999994 -1.127986593019159e-14 0.0
    vertex 0.0 0.0 0.0
  endloop
endfacet
facet normal 0.0 0.0 -1.0
  outer loop
    vertex 104.99999999999994 -1.127986593019159e-14 0.0
    vertex 2.299999999999872 2.2999999999999847 0.0
    vertex 99.99999999999997 2.3000000000000127 0.0
  endloop
endfacet
facet normal 0.0 0.0 -1.0
  outer loop
    vertex 104.99999999999994 -1.127986593019159e-14 0.0
    vertex 99.99999999999997 2.3000000000000127 0.0
    vertex 104.99999999999994 4.9999999999999885 0.0
  endloop
endfacet
facet normal 0.0 0.0 -1.0
  outer loop
    vertex -3.3839597790574766e-14 37.19999999999999 0.0
    vertex 2.299999999999973 39.499999999999986 0.0
    vertex 97.69999999999996 37.2 0.0
  endloop
endfacet
facet normal 0.0 0.0 -1.0
  outer loop
    vertex 2.299999999999973 39.499999999999986 0.0
    vertex -3.3839597790574766e-14 37.19999999999999 0.0
    vertex 2.2999999999999505 46.499999999999964 0.0
  endloop
endfacet
facet normal 0.0 0.0 -1.0
  outer loop
    vertex 97.69999999999996 37.2 0.0
    vertex 2.299999999999973 39.499999999999986 0.0
    vertex 99.99999999999996 39.50000000000001 0.0
  endloop
endfacet
facet normal 0.0 0.0 -1.0
  outer loop
    vertex 97.69999999999996 37.2 0.0
    vertex 99.99999999999996 39.50000000000001 0.0
    vertex 97.69999999999997 30.200000000000006 0.0
  endloop
endfacet
facet normal 0.0 0.0 -1.0
  outer loop
    vertex -5.639932965095795e-14 30.199999999999985 0.0
    vertex 2.2999999999999847 27.900000000000006 0.0
    vertex 2.299999999999973 20.900000000000002 0.0
  endloop
endfacet
facet normal 0.0 0.0 -1.0
  outer loop
    vertex 2.2999999999999847 27.900000000000006 0.0
    vertex -5.639932965095795e-14 30.199999999999985 0.0
    vertex 97.69999999999997 30.200000000000006 0.0
  endloop
endfacet
facet normal 0.0 0.0 -1.0
  outer loop
    vertex 2.2999999999999847 27.900000000000006 0.0
    vertex 97.69999999999997 30.200000000000006 0.0
    vertex 99.99999999999996 27.900000000000006 0.0
  endloop
endfacet
facet normal 0.0 0.0 -1.0
  outer loop
    vertex 99.99999999999996 27.900000000000006 0.0
    vertex 97.69999999999997 30.200000000000006 0.0
    vertex 99.99999999999996 39.50000000000001 0.0
  endloop
endfacet
facet normal 0.0 0.0 -1.0
  outer loop
    vertex -7.895906151134113e-14 18.599999999999977 0.0
    vertex 2.299999999999973 20.900000000000002 0.0
    vertex 97.69999999999997 18.600000000000016 0.0
  endloop
endfacet
facet normal 0.0 0.0 -1.0
  outer loop
    vertex 2.299999999999973 20.900000000000002 0.0
    vertex -7.895906151134113e-14 18.599999999999977 0.0
    vertex -5.639932965095795e-14 30.199999999999985 0.0
  endloop
endfacet
facet normal 0.0 0.0 -1.0
  outer loop
    vertex 97.69999999999997 18.600000000000016 0.0
    vertex 2.299999999999973 20.900000000000002 0.0
    vertex 99.99999999999996 20.900000000000023 0.0
  endloop
endfacet
facet normal 0.0 0.0 -1.0
  outer loop
    vertex 97.69999999999997 18.600000000000016 0.0
    vertex 99.99999999999996 20.900000000000023 0.0
    vertex 97.69999999999997 11.600000000000007 0.0
  endloop
endfacet
facet normal 0.0 0.0 -1.0
  outer loop
    vertex -2.255973186038318e-14 11.600000000000012 0.0
    vertex 2.2999999999999168 9.299999999999926 0.0
    vertex 0.0 0.0 0.0
  endloop
endfacet
facet normal 0.0 0.0 -1.0
  outer loop
    vertex 2.2999999999999168 9.299999999999926 0.0
    vertex -2.255973186038318e-14 11.600000000000012 0.0
    vertex 97.69999999999997 11.600000000000007 0.0
  endloop
endfacet
facet normal 0.0 0.0 -1.0
  outer loop
    vertex 0.0 0.0 0.0
    vertex 2.2999999999999168 9.299999999999926 0.0
    vertex 2.299999999999872 2.2999999999999847 0.0
  endloop
endfacet
facet normal 0.0 0.0 -1.0
  outer loop
    vertex 2.2999999999999168 9.299999999999926 0.0
    vertex 97.69999999999997 11.600000000000007 0.0
    vertex 99.99999999999996 9.299999999999988 0.0
  endloop
endfacet
facet normal 0.0 0.0 -1.0
  outer loop
    vertex 99.99999999999996 9.299999999999988 0.0
    vertex 97.69999999999997 11.600000000000007 0.0
    vertex 99.99999999999996 20.900000000000023 0.0
  endloop
endfacet
facet normal -0.0 -0.0 1.0
  outer loop
    vertex 104.99999999999994 -1.127986593019159e-14 0.20000000000000004
    vertex 2.299999999999872 2.2999999999999847 0.20000000000000004
    vertex 0.0 0.0 0.20000000000000004
  endloop
endfacet
facet normal -0.0 -0.0 1.0
  outer loop
    vertex 2.299999999999872 2.2999999999999847 0.20000000000000004
    vertex 104.99999999999994 -1.127986593019159e-14 0.20000000000000004
    vertex 99.99999999999997 2.3000000000000127 0.20000000000000004
  endloop
endfacet
facet normal -0.0 -0.0 1.0
  outer loop
    vertex 99.99999999999997 2.3000000000000127 0.20000000000000004
    vertex 104.99999999999994 4.9999999999999885 0.20000000000000004
    vertex 99.99999999999996 4.9999999999999885 0.20000000000000004
  endloop
endfacet
facet normal -0.0 -0.0 1.0
  outer loop
    vertex 104.99999999999994 4.9999999999999885 0.20000000000000004
    vertex 99.99999999999997 2.3000000000000127 0.20000000000000004
    vertex 104.99999999999994 -1.127986593019159e-14 0.20000000000000004
  endloop
endfacet
facet normal -0.0 -0.0 1.0
  outer loop
    vertex 104.99999999999994 43.8 0.20000000000000004
    vertex 99.99999999999996 46.5 0.20000000000000004
    vertex 99.99999999999996 43.8 0.20000000000000004
  endloop
endfacet
facet normal -0.0 -0.0 1.0
  outer loop
    vertex -5.639932965095795e-14 48.80000000000001 0.20000000000000004
    vertex 2.2999999999999505 46.499999999999964 0.20000000000000004
    vertex 104.99999999999994 48.800000000000004 0.20000000000000004
  endloop
endfacet
facet normal -0.0 -0.0 1.0
  outer loop
    vertex 2.2999999999999505 46.499999999999964 0.20000000000000004
    vertex -5.639932965095795e-14 48.80000000000001 0.20000000000000004
    vertex -3.3839597790574766e-14 37.19999999999999 0.20000000000000004
  endloop
endfacet
facet normal -0.0 -0.0 1.0
  outer loop
    vertex 104.99999999999994 48.800000000000004 0.20000000000000004
    vertex 2.2999999999999505 46.499999999999964 0.20000000000000004
    vertex 99.99999999999996 46.5 0.20000000000000004
  endloop
endfacet
facet normal -0.0 -0.0 1.0
  outer loop
    vertex 104.99999999999994 48.800000000000004 0.20000000000000004
    vertex 99.99999999999996 46.5 0.20000000000000004
    vertex 104.99999999999994 43.8 0.20000000000000004
  endloop
endfacet
facet normal -0.0 -0.0 1.0
  outer loop
    vertex -2.255973186038318e-14 11.600000000000012 0.20000000000000004
    vertex 2.2999999999999168 9.299999999999926 0.20000000000000004
    vertex 97.69999999999997 11.600000000000007 0.20000000000000004
  endloop
endfacet
facet normal -0.0 -0.0 1.0
  outer loop
    vertex 2.2999999999999168 9.299999999999926 0.20000000000000004
    vertex -2.255973186038318e-14 11.600000000000012 0.20000000000000004
    vertex 0.0 0.0 0.20000000000000004
  endloop
endfacet
facet normal -0.0 -0.0 1.0
  outer loop
    vertex 2.2999999999999168 9.299999999999926 0.20000000000000004
    vertex 0.0 0.0 0.20000000000000004
    vertex 2.299999999999872 2.2999999999999847 0.20000000000000004
  endloop
endfacet
facet normal -0.0 -0.0 1.0
  outer loop
    vertex 97.69999999999997 11.600000000000007 0.20000000000000004
    vertex 2.2999999999999168 9.299999999999926 0.20000000000000004
    vertex 99.99999999999996 9.299999999999988 0.20000000000000004
  endloop
endfacet
facet normal -0.0 -0.0 1.0
  outer loop
    vertex 97.69999999999997 11.600000000000007 0.20000000000000004
    vertex 99.99999999999996 9.299999999999988 0.20000000000000004
    vertex 97.69999999999997 18.600000000000016 0.20000000000000004
  endloop
endfacet
facet normal -0.0 -0.0 1.0
  outer loop
    vertex -7.895906151134113e-14 18.599999999999977 0.20000000000000004
    vertex 2.299999999999973 20.900000000000002 0.20000000000000004
    vertex -5.639932965095795e-14 30.199999999999985 0.20000000000000004
  endloop
endfacet
facet normal -0.0 -0.0 1.0
  outer loop
    vertex 2.299999999999973 20.900000000000002 0.20000000000000004
    vertex -7.895906151134113e-14 18.599999999999977 0.20000000000000004
    vertex 97.69999999999997 18.600000000000016 0.20000000000000004
  endloop
endfacet
facet normal -0.0 -0.0 1.0
  outer loop
    vertex 2.299999999999973 20.900000000000002 0.20000000000000004
    vertex 97.69999999999997 18.600000000000016 0.20000000000000004
    vertex 99.99999999999996 20.900000000000023 0.20000000000000004
  endloop
endfacet
facet normal -0.0 -0.0 1.0
  outer loop
    vertex 99.99999999999996 20.900000000000023 0.20000000000000004
    vertex 97.69999999999997 18.600000000000016 0.20000000000000004
    vertex 99.99999999999996 9.299999999999988 0.20000000000000004
  endloop
endfacet
facet normal -0.0 -0.0 1.0
  outer loop
    vertex -5.639932965095795e-14 30.199999999999985 0.20000000000000004
    vertex 2.2999999999999847 27.900000000000006 0.20000000000000004
    vertex 97.69999999999997 30.200000000000006 0.20000000000000004
  endloop
endfacet
facet normal -0.0 -0.0 1.0
  outer loop
    vertex 2.2999999999999847 27.900000000000006 0.20000000000000004
    vertex -5.639932965095795e-14 30.199999999999985 0.20000000000000004
    vertex 2.299999999999973 20.900000000000002 0.20000000000000004
  endloop
endfacet
facet normal -0.0 -0.0 1.0
  outer loop
    vertex 97.69999999999997 30.200000000000006 0.20000000000000004
    vertex 2.2999999999999847 27.900000000000006 0.20000000000000004
    vertex 99.99999999999996 27.900000000000006 0.20000000000000004
  endloop
endfacet
facet normal -0.0 -0.0 1.0
  outer loop
    vertex -3.3839597790574766e-14 37.19999999999999 0.20000000000000004
    vertex 2.299999999999973 39.499999999999986 0.20000000000000004
    vertex 2.2999999999999505 46.499999999999964 0.20000000000000004
  endloop
endfacet
facet normal -0.0 -0.0 1.0
  outer loop
    vertex 2.299999999999973 39.499999999999986 0.20000000000000004
    vertex -3.3839597790574766e-14 37.19999999999999 0.20000000000000004
    vertex 97.69999999999996 37.2 0.20000000000000004
  endloop
endfacet
facet normal -0.0 -0.0 1.0
  outer loop
    vertex 2.299999999999973 39.499999999999986 0.20000000000000004
    vertex 97.69999999999996 37.2 0.20000000000000004
    vertex 99.99999999999996 39.50000000000001 0.20000000000000004
  endloop
endfacet
facet normal -0.0 -0.0 1.0
  outer loop
    vertex 99.99999999999996 39.50000000000001 0.20000000000000004
    vertex 97.69999999999996 37.2 0.20000000000000004
    vertex 97.69999999999997 30.200000000000006 0.20000000000000004
  endloop
endfacet
facet normal -0.0 -0.0 1.0
  outer loop
    vertex 99.99999999999996 39.50000000000001 0.20000000000000004
    vertex 97.69999999999997 30.200000000000006 0.20000000000000004
    vertex 99.99999999999996 27.900000000000006 0.20000000000000004
  endloop
endfacet
facet normal 1.0742729457325325e-16 1.0 0.0
  outer loop
    vertex -5.639932965095795e-14 48.80000000000001 0.20000000000000004
    vertex 104.99999999999994 48.800000000000004 0.0
    vertex -5.639932965095795e-14 48.80000000000001 0.0
  endloop
endfacet
facet normal 1.0742729457325325e-16 1.0 0.0
  outer loop
    vertex 104.99999999999994 48.800000000000004 0.0
    vertex -5.639932965095795e-14 48.80000000000001 0.20000000000000004
    vertex 104.99999999999994 48.800000000000004 0.20000000000000004
  endloop
endfacet
facet normal 1.0 0.0 0.0
  outer loop
    vertex 104.99999999999994 48.800000000000004 0.0
    vertex 104.99999999999994 43.8 0.20000000000000004
    vertex 104.99999999999994 43.8 0.0
  endloop
endfacet
facet normal 1.0 0.0 0.0
  outer loop
    vertex 104.99999999999994 43.8 0.20000000000000004
    vertex 104.99999999999994 48.800000000000004 0.0
    vertex 104.99999999999994 48.800000000000004 0.20000000000000004
  endloop
endfacet
facet normal -0.0 -1.0 -0.0
  outer loop
    vertex 104.99999999999994 43.8 0.20000000000000004
    vertex 99.99999999999996 43.8 0.0
    vertex 104.99999999999994 43.8 0.0
  endloop
endfacet
facet normal -0.0 -1.0 -0.0
  outer loop
    vertex 99.99999999999996 43.8 0.0
    vertex 104.99999999999994 43.8 0.20000000000000004
    vertex 99.99999999999996 43.8 0.20000000000000004
  endloop
endfacet
facet normal -1.0 0.0 0.0
  outer loop
    vertex 99.99999999999996 46.5 0.20000000000000004
    vertex 99.99999999999996 43.8 0.0
    vertex 99.99999999999996 43.8 0.20000000000000004
  endloop
endfacet
facet normal -1.0 0.0 0.0
  outer loop
    vertex 99.99999999999996 43.8 0.0
    vertex 99.99999999999996 46.5 0.20000000000000004
    vertex 99.99999999999996 46.5 0.0
  endloop
endfacet
facet normal 3.463623110601307e-16 -1.0 0.0
  outer loop
    vertex 99.99999999999996 46.5 0.20000000000000004
    vertex 2.2999999999999505 46.499999999999964 0.0
    vertex 99.99999999999996 46.5 0.0
  endloop
endfacet
facet normal 3.463623110601307e-16 -1.0 0.0
  outer loop
    vertex 2.2999999999999505 46.499999999999964 0.0
    vertex 99.99999999999996 46.5 0.20000000000000004
    vertex 2.2999999999999505 46.499999999999964 0.20000000000000004
  endloop
endfacet
facet normal 1.0 3.2228188371976055e-15 0.0
  outer loop
    vertex 2.2999999999999505 46.499999999999964 0.0
    vertex 2.299999999999973 39.499999999999986 0.20000000000000004
    vertex 2.299999999999973 39.499999999999986 0.0
  endloop
endfacet
facet normal 1.0 3.2228188371976055e-15 0.0
  outer loop
    vertex 2.299999999999973 39.499999999999986 0.20000000000000004
    vertex 2.2999999999999505 46.499999999999964 0.0
    vertex 2.2999999999999505 46.499999999999964 0.20000000000000004
  endloop
endfacet
facet normal -2.3090820737342053e-16 1.0 0.0
  outer loop
    vertex 2.299999999999973 39.499999999999986 0.20000000000000004
    vertex 99.99999999999996 39.50000000000001 0.0
    vertex 2.299999999999973 39.499999999999986 0.0
  endloop
endfacet
facet normal -2.3090820737342053e-16 1.0 0.0
  outer loop
    vertex 99.99999999999996 39.50000000000001 0.0
    vertex 2.299999999999973 39.499999999999986 0.20000000000000004
    vertex 99.99999999999996 39.50000000000001 0.20000000000000004
  endloop
endfacet
facet normal 1.0 0.0 0.0
  outer loop
    vertex 99.99999999999996 39.50000000000001 0.0
    vertex 99.99999999999996 27.900000000000006 0.20000000000000004
    vertex 99.99999999999996 27.900000000000006 0.0
  endloop
endfacet
facet normal 1.0 0.0 0.0
  outer loop
    vertex 99.99999999999996 27.900000000000006 0.20000000000000004
    vertex 99.99999999999996 39.50000000000001 0.0
    vertex 99.99999999999996 39.50000000000001 0.20000000000000004
  endloop
endfacet
facet normal -0.0 -1.0 -0.0
  outer loop
    vertex 99.99999999999996 27.900000000000006 0.20000000000000004
    vertex 2.2999999999999847 27.900000000000006 0.0
    vertex 99.99999999999996 27.900000000000006 0.0
  endloop
endfacet
facet normal -0.0 -1.0 -0.0
  outer loop
    vertex 2.2999999999999847 27.900000000000006 0.0
    vertex 99.99999999999996 27.900000000000006 0.20000000000000004
    vertex 2.2999999999999847 27.900000000000006 0.20000000000000004
  endloop
endfacet
facet normal 1.0 -1.6114094185987976e-15 0.0
  outer loop
    vertex 2.2999999999999847 27.900000000000006 0.0
    vertex 2.299999999999973 20.900000000000002 0.20000000000000004
    vertex 2.299999999999973 20.900000000000002 0.0
  endloop
endfacet
facet normal 1.0 -1.6114094185987976e-15 0.0
  outer loop
    vertex 2.299999999999973 20.900000000000002 0.20000000000000004
    vertex 2.2999999999999847 27.900000000000006 0.0
    vertex 2.2999999999999847 27.900000000000006 0.20000000000000004
  endloop
endfacet
facet normal -2.3090820737342053e-16 1.0 0.0
  outer loop
    vertex 2.299999999999973 20.900000000000002 0.20000000000000004
    vertex 99.99999999999996 20.900000000000023 0.0
    vertex 2.299999999999973 20.900000000000002 0.0
  endloop
endfacet
facet normal -2.3090820737342053e-16 1.0 0.0
  outer loop
    vertex 99.99999999999996 20.900000000000023 0.0
    vertex 2.299999999999973 20.900000000000002 0.20000000000000004
    vertex 99.99999999999996 20.900000000000023 0.20000000000000004
  endloop
endfacet
facet normal 1.0 0.0 0.0
  outer loop
    vertex 99.99999999999996 20.900000000000023 0.0
    vertex 99.99999999999996 9.299999999999988 0.20000000000000004
    vertex 99.99999999999996 9.299999999999988 0.0
  endloop
endfacet
facet normal 1.0 0.0 0.0
  outer loop
    vertex 99.99999999999996 9.299999999999988 0.20000000000000004
    vertex 99.99999999999996 20.900000000000023 0.0
    vertex 99.99999999999996 20.900000000000023 0.20000000000000004
  endloop
endfacet
facet normal 6.349975702769061e-16 -1.0 0.0
  outer loop
    vertex 99.99999999999996 9.299999999999988 0.20000000000000004
    vertex 2.2999999999999168 9.299999999999926 0.0
    vertex 99.99999999999996 9.299999999999988 0.0
  endloop
endfacet
facet normal 6.349975702769061e-16 -1.0 0.0
  outer loop
    vertex 2.2999999999999168 9.299999999999926 0.0
    vertex 99.99999999999996 9.299999999999988 0.20000000000000004
    vertex 2.2999999999999168 9.299999999999926 0.20000000000000004
  endloop
endfacet
facet normal 1.0 -6.445637674395247e-15 0.0
  outer loop
    vertex 2.2999999999999168 9.299999999999926 0.0
    vertex 2.299999999999872 2.2999999999999847 0.20000000000000004
    vertex 2.299999999999872 2.2999999999999847 0.0
  endloop
endfacet
facet normal 1.0 -6.445637674395247e-15 0.0
  outer loop
    vertex 2.299999999999872 2.2999999999999847 0.20000000000000004
    vertex 2.2999999999999168 9.299999999999926 0.0
    vertex 2.2999999999999168 9.299999999999926 0.20000000000000004
  endloop
endfacet
facet normal -2.8863525921677527e-16 1.0 0.0
  outer loop
    vertex 2.299999999999872 2.2999999999999847 0.20000000000000004
    vertex 99.99999999999997 2.3000000000000127 0.0
    vertex 2.299999999999872 2.2999999999999847 0.0
  endloop
endfacet
facet normal -2.8863525921677527e-16 1.0 0.0
  outer loop
    vertex 99.99999999999997 2.3000000000000127 0.0
    vertex 2.299999999999872 2.2999999999999847 0.20000000000000004
    vertex 99.99999999999997 2.3000000000000127 0.20000000000000004
  endloop
endfacet
facet normal -1.0 -8.355456244586437e-15 -0.0
  outer loop
    vertex 99.99999999999996 4.9999999999999885 0.20000000000000004
    vertex 99.99999999999997 2.3000000000000127 0.0
    vertex 99.99999999999997 2.3000000000000127 0.20000000000000004
  endloop
endfacet
facet normal -1.0 -8.355456244586437e-15 -0.0
  outer loop
    vertex 99.99999999999997 2.3000000000000127 0.0
    vertex 99.99999999999996 4.9999999999999885 0.20000000000000004
    vertex 99.99999999999996 4.9999999999999885 0.0
  endloop
endfacet
facet normal -0.0 1.0 0.0
  outer loop
    vertex 99.99999999999996 4.9999999999999885 0.20000000000000004
    vertex 104.99999999999994 4.9999999999999885 0.0
    vertex 99.99999999999996 4.9999999999999885 0.0
  endloop
endfacet
facet normal -0.0 1.0 0.0
  outer loop
    vertex 104.99999999999994 4.9999999999999885 0.0
    vertex 99.99999999999996 4.9999999999999885 0.20000000000000004
    vertex 104.99999999999994 4.9999999999999885 0.20000000000000004
  endloop
endfacet
facet normal 1.0 0.0 0.0
  outer loop
    vertex 104.99999999999994 4.9999999999999885 0.0
    vertex 104.99999999999994 -1.127986593019159e-14 0.20000000000000004
    vertex 104.99999999999994 -1.127986593019159e-14 0.0
  endloop
endfacet
facet normal 1.0 0.0 0.0
  outer loop
    vertex 104.99999999999994 -1.127986593019159e-14 0.20000000000000004
    vertex 104.99999999999994 4.9999999999999885 0.0
    vertex 104.99999999999994 4.9999999999999885 0.20000000000000004
  endloop
endfacet
facet normal -1.0742729457325329e-16 -1.0 -0.0
  outer loop
    vertex 104.99999999999994 -1.127986593019159e-14 0.20000000000000004
    vertex 0.0 0.0 0.0
    vertex 104.99999999999994 -1.127986593019159e-14 0.0
  endloop
endfacet
facet normal -1.0742729457325329e-16 -1.0 -0.0
  outer loop
    vertex 0.0 0.0 0.0
    vertex 104.99999999999994 -1.127986593019159e-14 0.20000000000000004
    vertex 0.0 0.0 0.20000000000000004
  endloop
endfacet
facet normal -1.0 -1.9448044707226857e-15 -0.0
  outer loop
    vertex -2.255973186038318e-14 11.600000000000012 0.20000000000000004
    vertex 0.0 0.0 0.0
    vertex 0.0 0.0 0.20000000000000004
  endloop
endfacet
facet normal -1.0 -1.9448044707226857e-15 -0.0
  outer loop
    vertex 0.0 0.0 0.0
    vertex -2.255973186038318e-14 11.600000000000012 0.20000000000000004
    vertex -2.255973186038318e-14 11.600000000000012 0.0
  endloop
endfacet
facet normal 5.772705184335512e-17 1.0 0.0
  outer loop
    vertex -2.255973186038318e-14 11.600000000000012 0.20000000000000004
    vertex 97.69999999999997 11.600000000000007 0.0
    vertex -2.255973186038318e-14 11.600000000000012 0.0
  endloop
endfacet
facet normal 5.772705184335512e-17 1.0 0.0
  outer loop
    vertex 97.69999999999997 11.600000000000007 0.0
    vertex -2.255973186038318e-14 11.600000000000012 0.20000000000000004
    vertex 97.69999999999997 11.600000000000007 0.20000000000000004
  endloop
endfacet
facet normal -1.0 0.0 0.0
  outer loop
    vertex 97.69999999999997 18.600000000000016 0.20000000000000004
    vertex 97.69999999999997 11.600000000000007 0.0
    vertex 97.69999999999997 11.600000000000007 0.20000000000000004
  endloop
endfacet
facet normal -1.0 0.0 0.0
  outer loop
    vertex 97.69999999999997 11.600000000000007 0.0
    vertex 97.69999999999997 18.600000000000016 0.20000000000000004
    vertex 97.69999999999997 18.600000000000016 0.0
  endloop
endfacet
facet normal 4.040893629034856e-16 -1.0 0.0
  outer loop
    vertex 97.69999999999997 18.600000000000016 0.20000000000000004
    vertex -7.895906151134113e-14 18.599999999999977 0.0
    vertex 97.69999999999997 18.600000000000016 0.0
  endloop
endfacet
facet normal 4.040893629034856e-16 -1.0 0.0
  outer loop
    vertex -7.895906151134113e-14 18.599999999999977 0.0
    vertex 97.69999999999997 18.600000000000016 0.20000000000000004
    vertex -7.895906151134113e-14 18.599999999999977 0.20000000000000004
  endloop
endfacet
facet normal -1.0 1.944804470722687e-15 0.0
  outer loop
    vertex -5.639932965095795e-14 30.199999999999985 0.20000000000000004
    vertex -7.895906151134113e-14 18.599999999999977 0.0
    vertex -7.895906151134113e-14 18.599999999999977 0.20000000000000004
  endloop
endfacet
facet normal -1.0 1.944804470722687e-15 0.0
  outer loop
    vertex -7.895906151134113e-14 18.599999999999977 0.0
    vertex -5.639932965095795e-14 30.199999999999985 0.20000000000000004
    vertex -5.639932965095795e-14 30.199999999999985 0.0
  endloop
endfacet
facet normal -2.309082073734204e-16 1.0 0.0
  outer loop
    vertex -5.639932965095795e-14 30.199999999999985 0.20000000000000004
    vertex 97.69999999999997 30.200000000000006 0.0
    vertex -5.639932965095795e-14 30.199999999999985 0.0
  endloop
endfacet
facet normal -2.309082073734204e-16 1.0 0.0
  outer loop
    vertex 97.69999999999997 30.200000000000006 0.0
    vertex -5.639932965095795e-14 30.199999999999985 0.20000000000000004
    vertex 97.69999999999997 30.200000000000006 0.20000000000000004
  endloop
endfacet
facet normal -1.0 -3.2228188371975977e-15 -0.0
  outer loop
    vertex 97.69999999999996 37.2 0.20000000000000004
    vertex 97.69999999999997 30.200000000000006 0.0
    vertex 97.69999999999997 30.200000000000006 0.20000000000000004
  endloop
endfacet
facet normal -1.0 -3.2228188371975977e-15 -0.0
  outer loop
    vertex 97.69999999999997 30.200000000000006 0.0
    vertex 97.69999999999996 37.2 0.20000000000000004
    vertex 97.69999999999996 37.2 0.0
  endloop
endfacet
facet normal 1.7318115553006535e-16 -1.0 0.0
  outer loop
    vertex 97.69999999999996 37.2 0.20000000000000004
    vertex -3.3839597790574766e-14 37.19999999999999 0.0
    vertex 97.69999999999996 37.2 0.0
  endloop
endfacet
facet normal 1.7318115553006535e-16 -1.0 0.0
  outer loop
    vertex -3.3839597790574766e-14 37.19999999999999 0.0
    vertex 97.69999999999996 37.2 0.20000000000000004
    vertex -3.3839597790574766e-14 37.19999999999999 0.20000000000000004
  endloop
endfacet
facet normal -1.0 -1.944804470722684e-15 -0.0
  outer loop
    vertex -5.639932965095795e-14 48.80000000000001 0.20000000000000004
    vertex -3.3839597790574766e-14 37.19999999999999 0.0
    vertex -3.3839597790574766e-14 37.19999999999999 0.20000000000000004
  endloop
endfacet
facet normal -1.0 -1.944804470722684e-15 -0.0
  outer loop
    vertex -3.3839597790574766e-14 37.19999999999999 0.0
    vertex -5.639932965095795e-14 48.80000000000001 0.20000000000000004
    vertex -5.639932965095795e-14 48.80000000000001 0.0
  endloop
endfacet
facet normal 0.0 0.0 -1.0
  outer loop
    vertex 100.02937235403289 48.79999999999998 0.4000000000000001
    vertex 0.02937235403288971 -1.074588484985433e-14 0.4000000000000001
    vertex 0.02937235403288971 48.79999999999998 0.4000000000000001
  endloop
endfacet
facet normal 0.0 0.0 -1.0
  outer loop
    vertex 0.02937235403288971 -1.074588484985433e-14 0.4000000000000001
    vertex 100.02937235403289 48.79999999999998 0.4000000000000001
    vertex 100.02937235403289 -1.074588484985433e-14 0.4000000000000001
  endloop
endfacet
facet normal -0.0 -0.0 1.0
  outer loop
    vertex 100.02937235403289 -1.074588484985433e-14 0.6000000000000001
    vertex 0.02937235403288971 48.79999999999998 0.6000000000000001
    vertex 0.02937235403288971 -1.074588484985433e-14 0.6000000000000001
  endloop
endfacet
facet normal -0.0 -0.0 1.0
  outer loop
    vertex 0.02937235403288971 48.79999999999998 0.6000000000000001
    vertex 100.02937235403289 -1.074588484985433e-14 0.6000000000000001
    vertex 100.02937235403289 48.79999999999998 0.6000000000000001
  endloop
endfacet
facet normal -0.0 -1.0 -0.0
  outer loop
    vertex 100.02937235403289 -1.074588484985433e-14 0.6000000000000001
    vertex 0.02937235403288971 -1.074588484985433e-14 0.4000000000000001
    vertex 100.02937235403289 -1.074588484985433e-14 0.4000000000000001
  endloop
endfacet
facet normal -0.0 -1.0 -0.0
  outer loop
    vertex 0.02937235403288971 -1.074588484985433e-14 0.4000000000000001
    vertex 100.02937235403289 -1.074588484985433e-14 0.6000000000000001
    vertex 0.02937235403288971 -1.074588484985433e-14 0.6000000000000001
  endloop
endfacet
facet normal -1.0 0.0 0.0
  outer loop
    vertex 0.02937235403288971 48.79999999999998 0.6000000000000001
    vertex 0.02937235403288971 -1.074588484985433e-14 0.4000000000000001
    vertex 0.02937235403288971 -1.074588484985433e-14 0.6000000000000001
  endloop
endfacet
facet normal -1.0 0.0 0.0
  outer loop
    vertex 0.02937235403288971 -1.074588484985433e-14 0.4000000000000001
    vertex 0.02937235403288971 48.79999999999998 0.6000000000000001
    vertex 0.02937235403288971 48.79999999999998 0.4000000000000001
  endloop
endfacet
facet normal -0.0 1.0 0.0
  outer loop
    vertex 0.02937235403288971 48.79999999999998 0.6000000000000001
    vertex 100.02937235403289 48.79999999999998 0.4000000000000001
    vertex 0.02937235403288971 48.79999999999998 0.4000000000000001
  endloop
endfacet
facet normal -0.0 1.0 0.0
  outer loop
    vertex 100.02937235403289 48.79999999999998 0.4000000000000001
    vertex 0.02937235403288971 48.79999999999998 0.6000000000000001
    vertex 100.02937235403289 48.79999999999998 0.6000000000000001
  endloop
endfacet
facet normal 1.0 0.0 0.0
  outer loop
    vertex 100.02937235403289 48.79999999999998 0.4000000000000001
    vertex 100.02937235403289 -1.074588484985433e-14 0.6000000000000001
    vertex 100.02937235403289 -1.074588484985433e-14 0.4000000000000001
  endloop
endfacet
facet normal 1.0 0.0 0.0
  outer loop
    vertex 100.02937235403289 -1.074588484985433e-14 0.6000000000000001
    vertex 100.02937235403289 48.79999999999998 0.4000000000000001
    vertex 100.02937235403289 48.79999999999998 0.6000000000000001
  endloop
endfacet
endsolid ThermochromicV2
