solid ProximitySensor
facet normal 1.0 -0.0 -0.0
  outer loop
    vertex -26.999999999999986 27.000000000000025 0.0
    vertex -26.999999999999986 3.0000000000000067 0.19999999999999998
    vertex -26.999999999999986 3.0000000000000067 0.0
  endloop
endfacet
facet normal 1.0 -0.0 -0.0
  outer loop
    vertex -26.999999999999986 3.0000000000000067 0.19999999999999998
    vertex -26.999999999999986 27.000000000000025 0.0
    vertex -26.999999999999986 27.000000000000025 0.19999999999999998
  endloop
endfacet
facet normal 0.0 -1.0 0.0
  outer loop
    vertex -3.000000000000004 27.000000000000025 0.19999999999999998
    vertex -26.999999999999986 27.000000000000025 0.0
    vertex -3.000000000000004 27.000000000000025 0.0
  endloop
endfacet
facet normal 0.0 -1.0 0.0
  outer loop
    vertex -26.999999999999986 27.000000000000025 0.0
    vertex -3.000000000000004 27.000000000000025 0.19999999999999998
    vertex -26.999999999999986 27.000000000000025 0.19999999999999998
  endloop
endfacet
facet normal -1.0 0.0 0.0
  outer loop
    vertex -3.000000000000004 27.000000000000025 0.19999999999999998
    vertex -3.000000000000004 3.0000000000000067 0.0
    vertex -3.000000000000004 3.0000000000000067 0.19999999999999998
  endloop
endfacet
facet normal -1.0 0.0 0.0
  outer loop
    vertex -3.000000000000004 3.0000000000000067 0.0
    vertex -3.000000000000004 27.000000000000025 0.19999999999999998
    vertex -3.000000000000004 27.000000000000025 0.0
  endloop
endfacet
facet normal -0.0 1.0 -0.0
  outer loop
    vertex -26.999999999999986 3.0000000000000067 0.19999999999999998
    vertex -3.000000000000004 3.0000000000000067 0.0
    vertex -26.999999999999986 3.0000000000000067 0.0
  endloop
endfacet
facet normal -0.0 1.0 -0.0
  outer loop
    vertex -3.000000000000004 3.0000000000000067 0.0
    vertex -26.999999999999986 3.0000000000000067 0.19999999999999998
    vertex -3.000000000000004 3.0000000000000067 0.19999999999999998
  endloop
endfacet
facet normal -0.0 -0.0 1.0
  outer loop
    vertex -13.499999999999998 -4.999999999999996 0.19999999999999998
    vertex -16.500000000000004 2.114974861910923e-15 0.19999999999999998
    vertex -16.500000000000004 -4.999999999999996 0.19999999999999998
  endloop
endfacet
facet normal -0.0 -0.0 1.0
  outer loop
    vertex -29.99999999999998 2.114974861910923e-15 0.19999999999999998
    vertex -26.999999999999986 3.0000000000000067 0.19999999999999998
    vertex -29.99999999999998 30.000000000000018 0.19999999999999998
  endloop
endfacet
facet normal -0.0 -0.0 1.0
  outer loop
    vertex -26.999999999999986 3.0000000000000067 0.19999999999999998
    vertex -29.99999999999998 2.114974861910923e-15 0.19999999999999998
    vertex -16.500000000000004 2.114974861910923e-15 0.19999999999999998
  endloop
endfacet
facet normal -0.0 -0.0 1.0
  outer loop
    vertex -26.999999999999986 3.0000000000000067 0.19999999999999998
    vertex -16.500000000000004 2.114974861910923e-15 0.19999999999999998
    vertex -3.000000000000004 3.0000000000000067 0.19999999999999998
  endloop
endfacet
facet normal -0.0 -0.0 1.0
  outer loop
    vertex -3.000000000000004 3.0000000000000067 0.19999999999999998
    vertex -16.500000000000004 2.114974861910923e-15 0.19999999999999998
    vertex -13.499999999999998 2.114974861910923e-15 0.19999999999999998
  endloop
endfacet
facet normal -0.0 -0.0 1.0
  outer loop
    vertex -13.499999999999998 2.114974861910923e-15 0.19999999999999998
    vertex -16.500000000000004 2.114974861910923e-15 0.19999999999999998
    vertex -13.499999999999998 -4.999999999999996 0.19999999999999998
  endloop
endfacet
facet normal -0.0 -0.0 1.0
  outer loop
    vertex -3.000000000000004 3.0000000000000067 0.19999999999999998
    vertex -13.499999999999998 2.114974861910923e-15 0.19999999999999998
    vertex 0.0 0.0 0.19999999999999998
  endloop
endfacet
facet normal -0.0 -0.0 1.0
  outer loop
    vertex -3.000000000000004 3.0000000000000067 0.19999999999999998
    vertex 0.0 0.0 0.19999999999999998
    vertex -3.000000000000004 27.000000000000025 0.19999999999999998
  endloop
endfacet
facet normal -0.0 -0.0 1.0
  outer loop
    vertex -29.99999999999998 30.000000000000018 0.19999999999999998
    vertex -26.999999999999986 27.000000000000025 0.19999999999999998
    vertex 0.0 30.000000000000018 0.19999999999999998
  endloop
endfacet
facet normal -0.0 -0.0 1.0
  outer loop
    vertex -26.999999999999986 27.000000000000025 0.19999999999999998
    vertex -29.99999999999998 30.000000000000018 0.19999999999999998
    vertex -26.999999999999986 3.0000000000000067 0.19999999999999998
  endloop
endfacet
facet normal -0.0 -0.0 1.0
  outer loop
    vertex 0.0 30.000000000000018 0.19999999999999998
    vertex -26.999999999999986 27.000000000000025 0.19999999999999998
    vertex -3.000000000000004 27.000000000000025 0.19999999999999998
  endloop
endfacet
facet normal -0.0 -0.0 1.0
  outer loop
    vertex 0.0 30.000000000000018 0.19999999999999998
    vertex -3.000000000000004 27.000000000000025 0.19999999999999998
    vertex 0.0 0.0 0.19999999999999998
  endloop
endfacet
facet normal -1.0 0.0 0.0
  outer loop
    vertex -16.500000000000004 2.114974861910923e-15 0.19999999999999998
    vertex -16.500000000000004 -4.999999999999996 0.0
    vertex -16.500000000000004 -4.999999999999996 0.19999999999999998
  endloop
endfacet
facet normal -1.0 0.0 0.0
  outer loop
    vertex -16.500000000000004 -4.999999999999996 0.0
    vertex -16.500000000000004 2.114974861910923e-15 0.19999999999999998
    vertex -16.500000000000004 2.114974861910923e-15 0.0
  endloop
endfacet
facet normal 0.0 -1.0 0.0
  outer loop
    vertex -13.499999999999998 -4.999999999999996 0.19999999999999998
    vertex -16.500000000000004 -4.999999999999996 0.0
    vertex -13.499999999999998 -4.999999999999996 0.0
  endloop
endfacet
facet normal 0.0 -1.0 0.0
  outer loop
    vertex -16.500000000000004 -4.999999999999996 0.0
    vertex -13.499999999999998 -4.999999999999996 0.19999999999999998
    vertex -16.500000000000004 -4.999999999999996 0.19999999999999998
  endloop
endfacet
facet normal 1.0 -0.0 -0.0
  outer loop
    vertex -13.499999999999998 2.114974861910923e-15 0.0
    vertex -13.499999999999998 -4.999999999999996 0.19999999999999998
    vertex -13.499999999999998 -4.999999999999996 0.0
  endloop
endfacet
facet normal 1.0 -0.0 -0.0
  outer loop
    vertex -13.499999999999998 -4.999999999999996 0.19999999999999998
    vertex -13.499999999999998 2.114974861910923e-15 0.0
    vertex -13.499999999999998 2.114974861910923e-15 0.19999999999999998
  endloop
endfacet
facet normal -0.0 1.0 -0.0
  outer loop
    vertex -29.99999999999998 30.000000000000018 0.19999999999999998
    vertex 0.0 30.000000000000018 0.0
    vertex -29.99999999999998 30.000000000000018 0.0
  endloop
endfacet
facet normal -0.0 1.0 -0.0
  outer loop
    vertex 0.0 30.000000000000018 0.0
    vertex -29.99999999999998 30.000000000000018 0.19999999999999998
    vertex 0.0 30.000000000000018 0.19999999999999998
  endloop
endfacet
facet normal 0.0 -1.0 0.0
  outer loop
    vertex -16.500000000000004 2.114974861910923e-15 0.19999999999999998
    vertex -29.99999999999998 2.114974861910923e-15 0.0
    vertex -16.500000000000004 2.114974861910923e-15 0.0
  endloop
endfacet
facet normal 0.0 -1.0 0.0
  outer loop
    vertex -29.99999999999998 2.114974861910923e-15 0.0
    vertex -16.500000000000004 2.114974861910923e-15 0.19999999999999998
    vertex -29.99999999999998 2.114974861910923e-15 0.19999999999999998
  endloop
endfacet
facet normal -1.0 0.0 0.0
  outer loop
    vertex -29.99999999999998 30.000000000000018 0.19999999999999998
    vertex -29.99999999999998 2.114974861910923e-15 0.0
    vertex -29.99999999999998 2.114974861910923e-15 0.19999999999999998
  endloop
endfacet
facet normal -1.0 0.0 0.0
  outer loop
    vertex -29.99999999999998 2.114974861910923e-15 0.0
    vertex -29.99999999999998 30.000000000000018 0.19999999999999998
    vertex -29.99999999999998 30.000000000000018 0.0
  endloop
endfacet
facet normal 0.0 0.0 -1.0
  outer loop
    vertex -29.99999999999998 30.000000000000018 0.0
    vertex -26.999999999999986 27.000000000000025 0.0
    vertex -29.99999999999998 2.114974861910923e-15 0.0
  endloop
endfacet
facet normal 0.0 0.0 -1.0
  outer loop
    vertex -26.999999999999986 27.000000000000025 0.0
    vertex -29.99999999999998 30.000000000000018 0.0
    vertex 0.0 30.000000000000018 0.0
  endloop
endfacet
facet normal 0.0 0.0 -1.0
  outer loop
    vertex -26.999999999999986 27.000000000000025 0.0
    vertex 0.0 30.000000000000018 0.0
    vertex -3.000000000000004 27.000000000000025 0.0
  endloop
endfacet
facet normal 0.0 0.0 -1.0
  outer loop
    vertex -3.000000000000004 27.000000000000025 0.0
    vertex 0.0 30.000000000000018 0.0
    vertex -3.000000000000004 3.0000000000000067 0.0
  endloop
endfacet
facet normal 0.0 0.0 -1.0
  outer loop
    vertex -29.99999999999998 2.114974861910923e-15 0.0
    vertex -26.999999999999986 3.0000000000000067 0.0
    vertex -16.500000000000004 2.114974861910923e-15 0.0
  endloop
endfacet
facet normal 0.0 0.0 -1.0
  outer loop
    vertex -26.999999999999986 3.0000000000000067 0.0
    vertex -29.99999999999998 2.114974861910923e-15 0.0
    vertex -26.999999999999986 27.000000000000025 0.0
  endloop
endfacet
facet normal 0.0 0.0 -1.0
  outer loop
    vertex -16.500000000000004 2.114974861910923e-15 0.0
    vertex -26.999999999999986 3.0000000000000067 0.0
    vertex -3.000000000000004 3.0000000000000067 0.0
  endloop
endfacet
facet normal 0.0 0.0 -1.0
  outer loop
    vertex -16.500000000000004 2.114974861910923e-15 0.0
    vertex -3.000000000000004 3.0000000000000067 0.0
    vertex -13.499999999999998 2.114974861910923e-15 0.0
  endloop
endfacet
facet normal 0.0 0.0 -1.0
  outer loop
    vertex -16.500000000000004 2.114974861910923e-15 0.0
    vertex -13.499999999999998 2.114974861910923e-15 0.0
    vertex -16.500000000000004 -4.999999999999996 0.0
  endloop
endfacet
facet normal 0.0 0.0 -1.0
  outer loop
    vertex -13.499999999999998 2.114974861910923e-15 0.0
    vertex -3.000000000000004 3.0000000000000067 0.0
    vertex 0.0 0.0 0.0
  endloop
endfacet
facet normal 0.0 0.0 -1.0
  outer loop
    vertex 0.0 0.0 0.0
    vertex -3.000000000000004 3.0000000000000067 0.0
    vertex 0.0 30.000000000000018 0.0
  endloop
endfacet
facet normal 0.0 0.0 -1.0
  outer loop
    vertex -13.499999999999998 -4.999999999999996 0.0
    vertex -16.500000000000004 -4.999999999999996 0.0
    vertex -13.499999999999998 2.114974861910923e-15 0.0
  endloop
endfacet
facet normal -1.5666480458599432e-16 -1.0 0.0
  outer loop
    vertex 0.0 0.0 0.19999999999999998
    vertex -13.499999999999998 2.114974861910923e-15 0.0
    vertex 0.0 0.0 0.0
  endloop
endfacet
facet normal -1.5666480458599432e-16 -1.0 0.0
  outer loop
    vertex -13.499999999999998 2.114974861910923e-15 0.0
    vertex 0.0 0.0 0.19999999999999998
    vertex -13.499999999999998 2.114974861910923e-15 0.19999999999999998
  endloop
endfacet
facet normal 1.0 -0.0 -0.0
  outer loop
    vertex 0.0 30.000000000000018 0.0
    vertex 0.0 0.0 0.19999999999999998
    vertex 0.0 0.0 0.0
  endloop
endfacet
facet normal 1.0 -0.0 -0.0
  outer loop
    vertex 0.0 0.0 0.19999999999999998
    vertex 0.0 30.000000000000018 0.0
    vertex 0.0 30.000000000000018 0.19999999999999998
  endloop
endfacet
endsolid ProximitySensor
