solid ELLamp
facet normal -0.0 -0.0 1.0
  outer loop
    vertex 10.000000000000002 -20.0 0.4000000000000001
    vertex 7.000000000000001 -0.9999999999999996 0.4000000000000001
    vertex 7.000000000000001 -20.0 0.4000000000000001
  endloop
endfacet
facet normal -0.0 -0.0 1.0
  outer loop
    vertex 7.000000000000001 -0.9999999999999996 0.4000000000000001
    vertex 10.000000000000002 -20.0 0.4000000000000001
    vertex 10.000000000000002 -0.9999999999999996 0.4000000000000001
  endloop
endfacet
facet normal 0.0 0.0 -1.0
  outer loop
    vertex 0.0 10.0 0.0
    vertex 3.0 0.0 0.0
    vertex 0.0 -20.0 0.0
  endloop
endfacet
facet normal 0.0 0.0 -1.0
  outer loop
    vertex 3.0 0.0 0.0
    vertex 0.0 10.0 0.0
    vertex 10.0 10.0 0.0
  endloop
endfacet
facet normal 0.0 0.0 -1.0
  outer loop
    vertex 3.0 0.0 0.0
    vertex 10.0 10.0 0.0
    vertex 10.0 0.0 0.0
  endloop
endfacet
facet normal 0.0 0.0 -1.0
  outer loop
    vertex 3.0 -20.0 0.0
    vertex 0.0 -20.0 0.0
    vertex 3.0 0.0 0.0
  endloop
endfacet
facet normal -0.0 -0.0 1.0
  outer loop
    vertex 8.81239525796218e-17 -0.9999999999999996 0.20000000000000004
    vertex -0.9999999999999996 11.000000000000002 0.20000000000000004
    vertex -0.9999999999999996 -0.9999999999999996 0.20000000000000004
  endloop
endfacet
facet normal -0.0 -0.0 1.0
  outer loop
    vertex -0.9999999999999996 11.000000000000002 0.20000000000000004
    vertex 8.81239525796218e-17 -0.9999999999999996 0.20000000000000004
    vertex 0.0 10.0 0.20000000000000004
  endloop
endfacet
facet normal -0.0 -0.0 1.0
  outer loop
    vertex 10.000000000000002 -20.0 0.20000000000000004
    vertex 7.000000000000001 -0.9999999999999996 0.20000000000000004
    vertex 7.000000000000001 -20.0 0.20000000000000004
  endloop
endfacet
facet normal -0.0 -0.0 1.0
  outer loop
    vertex 7.000000000000001 -0.9999999999999996 0.20000000000000004
    vertex 10.000000000000002 -20.0 0.20000000000000004
    vertex 10.0 0.0 0.20000000000000004
  endloop
endfacet
facet normal -0.0 -0.0 1.0
  outer loop
    vertex 10.0 0.0 0.20000000000000004
    vertex 10.000000000000002 -20.0 0.20000000000000004
    vertex 10.0 10.0 0.20000000000000004
  endloop
endfacet
facet normal -0.0 -0.0 1.0
  outer loop
    vertex 0.0 10.0 0.20000000000000004
    vertex 11.000000000000002 11.000000000000002 0.20000000000000004
    vertex -0.9999999999999996 11.000000000000002 0.20000000000000004
  endloop
endfacet
facet normal -0.0 -0.0 1.0
  outer loop
    vertex 11.000000000000002 11.000000000000002 0.20000000000000004
    vertex 0.0 10.0 0.20000000000000004
    vertex 10.0 10.0 0.20000000000000004
  endloop
endfacet
facet normal -0.0 -0.0 1.0
  outer loop
    vertex 11.000000000000002 11.000000000000002 0.20000000000000004
    vertex 10.0 10.0 0.20000000000000004
    vertex 10.000000000000002 -0.9999999999999996 0.20000000000000004
  endloop
endfacet
facet normal -0.0 -0.0 1.0
  outer loop
    vertex 10.000000000000002 -0.9999999999999996 0.20000000000000004
    vertex 10.0 10.0 0.20000000000000004
    vertex 10.000000000000002 -20.0 0.20000000000000004
  endloop
endfacet
facet normal -0.0 -0.0 1.0
  outer loop
    vertex 11.000000000000002 11.000000000000002 0.20000000000000004
    vertex 10.000000000000002 -0.9999999999999996 0.20000000000000004
    vertex 11.000000000000002 -0.9999999999999996 0.20000000000000004
  endloop
endfacet
facet normal -0.0 -0.0 1.0
  outer loop
    vertex 7.000000000000001 -0.9999999999999996 0.20000000000000004
    vertex 3.0 0.0 0.20000000000000004
    vertex 3.0 -1.0000000000000002 0.20000000000000004
  endloop
endfacet
facet normal -0.0 -0.0 1.0
  outer loop
    vertex 3.0 0.0 0.20000000000000004
    vertex 7.000000000000001 -0.9999999999999996 0.20000000000000004
    vertex 10.0 0.0 0.20000000000000004
  endloop
endfacet
facet normal 7.995692392188632e-18 -1.0 -1.2998711346158081e-16
  outer loop
    vertex 11.000000000000002 -0.9999999999999996 0.8000000000000002
    vertex 10.000000000000002 -0.9999999999999996 0.20000000000000004
    vertex 11.000000000000002 -0.9999999999999996 0.20000000000000004
  endloop
endfacet
facet normal 7.995692392188632e-18 -1.0 -1.2998711346158081e-16
  outer loop
    vertex 10.000000000000002 -0.9999999999999996 0.20000000000000004
    vertex 11.000000000000002 -0.9999999999999996 0.8000000000000002
    vertex 10.000000000000002 -0.9999999999999996 0.4000000000000001
  endloop
endfacet
facet normal 7.995692392188632e-18 -1.0 -1.2998711346158081e-16
  outer loop
    vertex 10.000000000000002 -0.9999999999999996 0.4000000000000001
    vertex 11.000000000000002 -0.9999999999999996 0.8000000000000002
    vertex 7.000000000000001 -0.9999999999999996 0.4000000000000001
  endloop
endfacet
facet normal 7.995692392188632e-18 -1.0 -1.2998711346158081e-16
  outer loop
    vertex 7.000000000000001 -0.9999999999999996 0.4000000000000001
    vertex 3.0 -1.0000000000000002 0.20000000000000004
    vertex 7.000000000000001 -0.9999999999999996 0.20000000000000004
  endloop
endfacet
facet normal 7.995692392188632e-18 -1.0 -1.2998711346158081e-16
  outer loop
    vertex 3.0 -1.0000000000000002 0.20000000000000004
    vertex 7.000000000000001 -0.9999999999999996 0.4000000000000001
    vertex 8.81239525796218e-17 -0.9999999999999996 0.20000000000000004
  endloop
endfacet
facet normal 7.995692392188632e-18 -1.0 -1.2998711346158081e-16
  outer loop
    vertex 8.81239525796218e-17 -0.9999999999999996 0.20000000000000004
    vertex 7.000000000000001 -0.9999999999999996 0.4000000000000001
    vertex -0.9999999999999996 -0.9999999999999996 0.20000000000000004
  endloop
endfacet
facet normal 7.995692392188632e-18 -1.0 -1.2998711346158081e-16
  outer loop
    vertex -0.9999999999999996 -0.9999999999999996 0.20000000000000004
    vertex 7.000000000000001 -0.9999999999999996 0.4000000000000001
    vertex -0.9999999999999996 -0.9999999999999996 0.8000000000000002
  endloop
endfacet
facet normal 7.995692392188632e-18 -1.0 -1.2998711346158081e-16
  outer loop
    vertex -0.9999999999999996 -0.9999999999999996 0.8000000000000002
    vertex 7.000000000000001 -0.9999999999999996 0.4000000000000001
    vertex 11.000000000000002 -0.9999999999999996 0.8000000000000002
  endloop
endfacet
facet normal 7.995692392188632e-18 -1.0 -1.2998711346158081e-16
  outer loop
    vertex -0.9999999999999996 -0.9999999999999996 0.8000000000000002
    vertex 11.000000000000002 -0.9999999999999996 0.8000000000000002
    vertex 10.000000000000002 -0.9999999999999996 0.8000000000000002
  endloop
endfacet
facet normal 7.995692392188632e-18 -1.0 -1.2998711346158081e-16
  outer loop
    vertex -0.9999999999999996 -0.9999999999999996 0.8000000000000002
    vertex 10.000000000000002 -0.9999999999999996 0.8000000000000002
    vertex 7.000000000000001 -1.0000000000000002 0.8000000000000002
  endloop
endfacet
facet normal -0.0 1.0 -0.0
  outer loop
    vertex -0.9999999999999996 11.000000000000002 0.8000000000000002
    vertex 11.000000000000002 11.000000000000002 0.20000000000000004
    vertex -0.9999999999999996 11.000000000000002 0.20000000000000004
  endloop
endfacet
facet normal -0.0 1.0 -0.0
  outer loop
    vertex 11.000000000000002 11.000000000000002 0.20000000000000004
    vertex -0.9999999999999996 11.000000000000002 0.8000000000000002
    vertex 11.000000000000002 11.000000000000002 0.8000000000000002
  endloop
endfacet
facet normal 1.0 -0.0 -0.0
  outer loop
    vertex 11.000000000000002 11.000000000000002 0.20000000000000004
    vertex 11.000000000000002 -0.9999999999999996 0.8000000000000002
    vertex 11.000000000000002 -0.9999999999999996 0.20000000000000004
  endloop
endfacet
facet normal 1.0 -0.0 -0.0
  outer loop
    vertex 11.000000000000002 -0.9999999999999996 0.8000000000000002
    vertex 11.000000000000002 11.000000000000002 0.20000000000000004
    vertex 11.000000000000002 11.000000000000002 0.8000000000000002
  endloop
endfacet
facet normal -1.0 0.0 0.0
  outer loop
    vertex -0.9999999999999996 11.000000000000002 0.8000000000000002
    vertex -0.9999999999999996 -0.9999999999999996 0.20000000000000004
    vertex -0.9999999999999996 -0.9999999999999996 0.8000000000000002
  endloop
endfacet
facet normal -1.0 0.0 0.0
  outer loop
    vertex -0.9999999999999996 -0.9999999999999996 0.20000000000000004
    vertex -0.9999999999999996 11.000000000000002 0.8000000000000002
    vertex -0.9999999999999996 11.000000000000002 0.20000000000000004
  endloop
endfacet
facet normal -0.0 -0.0 1.0
  outer loop
    vertex 8.81239525796218e-17 -0.9999999999999996 0.20000000000000004
    vertex 10.0 10.0 0.20000000000000004
    vertex 0.0 10.0 0.20000000000000004
  endloop
endfacet
facet normal -0.0 -0.0 1.0
  outer loop
    vertex 10.0 10.0 0.20000000000000004
    vertex 8.81239525796218e-17 -0.9999999999999996 0.20000000000000004
    vertex 3.0 0.0 0.20000000000000004
  endloop
endfacet
facet normal -0.0 -0.0 1.0
  outer loop
    vertex 3.0 0.0 0.20000000000000004
    vertex 8.81239525796218e-17 -0.9999999999999996 0.20000000000000004
    vertex 3.0 -1.0000000000000002 0.20000000000000004
  endloop
endfacet
facet normal -0.0 -0.0 1.0
  outer loop
    vertex 10.0 10.0 0.20000000000000004
    vertex 3.0 0.0 0.20000000000000004
    vertex 10.0 0.0 0.20000000000000004
  endloop
endfacet
facet normal -0.0 1.0 -0.0
  outer loop
    vertex 0.0 10.0 0.20000000000000004
    vertex 10.0 10.0 0.0
    vertex 0.0 10.0 0.0
  endloop
endfacet
facet normal -0.0 1.0 -0.0
  outer loop
    vertex 10.0 10.0 0.0
    vertex 0.0 10.0 0.20000000000000004
    vertex 10.0 10.0 0.20000000000000004
  endloop
endfacet
facet normal -0.0 -0.0 1.0
  outer loop
    vertex 3.0 -20.0 0.20000000000000004
    vertex 8.81239525796218e-17 -0.9999999999999996 0.20000000000000004
    vertex 0.0 -20.0 0.20000000000000004
  endloop
endfacet
facet normal -0.0 -0.0 1.0
  outer loop
    vertex 8.81239525796218e-17 -0.9999999999999996 0.20000000000000004
    vertex 3.0 -20.0 0.20000000000000004
    vertex 3.0 -1.0000000000000002 0.20000000000000004
  endloop
endfacet
facet normal 1.0 -0.0 -0.0
  outer loop
    vertex 10.0 10.0 0.0
    vertex 10.0 0.0 0.20000000000000004
    vertex 10.0 0.0 0.0
  endloop
endfacet
facet normal 1.0 -0.0 -0.0
  outer loop
    vertex 10.0 0.0 0.20000000000000004
    vertex 10.0 10.0 0.0
    vertex 10.0 10.0 0.20000000000000004
  endloop
endfacet
facet normal 0.0 -1.0 0.0
  outer loop
    vertex 10.0 0.0 0.20000000000000004
    vertex 3.0 0.0 0.0
    vertex 10.0 0.0 0.0
  endloop
endfacet
facet normal 0.0 -1.0 0.0
  outer loop
    vertex 3.0 0.0 0.0
    vertex 10.0 0.0 0.20000000000000004
    vertex 3.0 0.0 0.20000000000000004
  endloop
endfacet
facet normal -0.0 -0.0 1.0
  outer loop
    vertex 11.000000000000002 -0.9999999999999996 0.8000000000000002
    vertex 10.000000000000002 1.762479051592436e-16 0.8000000000000002
    vertex 10.000000000000002 -0.9999999999999996 0.8000000000000002
  endloop
endfacet
facet normal -0.0 -0.0 1.0
  outer loop
    vertex 7.000000000000001 -1.0000000000000002 0.8000000000000002
    vertex -0.9999999999999996 11.000000000000002 0.8000000000000002
    vertex -0.9999999999999996 -0.9999999999999996 0.8000000000000002
  endloop
endfacet
facet normal -0.0 -0.0 1.0
  outer loop
    vertex -0.9999999999999996 11.000000000000002 0.8000000000000002
    vertex 7.000000000000001 -1.0000000000000002 0.8000000000000002
    vertex 7.000000000000001 1.762479051592436e-16 0.8000000000000002
  endloop
endfacet
facet normal -0.0 -0.0 1.0
  outer loop
    vertex -0.9999999999999996 11.000000000000002 0.8000000000000002
    vertex 7.000000000000001 1.762479051592436e-16 0.8000000000000002
    vertex 11.000000000000002 11.000000000000002 0.8000000000000002
  endloop
endfacet
facet normal -0.0 -0.0 1.0
  outer loop
    vertex 11.000000000000002 11.000000000000002 0.8000000000000002
    vertex 7.000000000000001 1.762479051592436e-16 0.8000000000000002
    vertex 10.000000000000002 1.762479051592436e-16 0.8000000000000002
  endloop
endfacet
facet normal -0.0 -0.0 1.0
  outer loop
    vertex 11.000000000000002 11.000000000000002 0.8000000000000002
    vertex 10.000000000000002 1.762479051592436e-16 0.8000000000000002
    vertex 11.000000000000002 -0.9999999999999996 0.8000000000000002
  endloop
endfacet
facet normal 0.0 -1.0 0.0
  outer loop
    vertex 3.0 -20.0 0.20000000000000004
    vertex 0.0 -20.0 0.0
    vertex 3.0 -20.0 0.0
  endloop
endfacet
facet normal 0.0 -1.0 0.0
  outer loop
    vertex 0.0 -20.0 0.0
    vertex 3.0 -20.0 0.20000000000000004
    vertex 0.0 -20.0 0.20000000000000004
  endloop
endfacet
facet normal -1.0 2.5804964152158664e-19 1.4515292335589238e-16
  outer loop
    vertex 8.81239525796218e-17 -0.9999999999999996 0.20000000000000004
    vertex 0.0 -20.0 0.0
    vertex 0.0 -20.0 0.20000000000000004
  endloop
endfacet
facet normal -1.0 2.5804964152158664e-19 1.4515292335589238e-16
  outer loop
    vertex 0.0 -20.0 0.0
    vertex 8.81239525796218e-17 -0.9999999999999996 0.20000000000000004
    vertex 0.0 10.0 0.0
  endloop
endfacet
facet normal -1.0 2.5804964152158664e-19 1.4515292335589238e-16
  outer loop
    vertex 0.0 10.0 0.0
    vertex 8.81239525796218e-17 -0.9999999999999996 0.20000000000000004
    vertex 0.0 10.0 0.20000000000000004
  endloop
endfacet
facet normal 1.0 4.658534938129786e-18 5.176149931255318e-16
  outer loop
    vertex 3.0 0.0 0.0
    vertex 3.0 -20.0 0.20000000000000004
    vertex 3.0 -20.0 0.0
  endloop
endfacet
facet normal 1.0 4.658534938129786e-18 5.176149931255318e-16
  outer loop
    vertex 3.0 -20.0 0.20000000000000004
    vertex 3.0 0.0 0.0
    vertex 3.0 -1.0000000000000002 0.20000000000000004
  endloop
endfacet
facet normal 1.0 4.658534938129786e-18 5.176149931255318e-16
  outer loop
    vertex 3.0 -1.0000000000000002 0.20000000000000004
    vertex 3.0 0.0 0.0
    vertex 3.0 0.0 0.20000000000000004
  endloop
endfacet
facet normal -1.0 0.0 0.0
  outer loop
    vertex 7.000000000000001 -0.9999999999999996 0.4000000000000001
    vertex 7.000000000000001 -20.0 0.20000000000000004
    vertex 7.000000000000001 -20.0 0.4000000000000001
  endloop
endfacet
facet normal -1.0 0.0 0.0
  outer loop
    vertex 7.000000000000001 -20.0 0.20000000000000004
    vertex 7.000000000000001 -0.9999999999999996 0.4000000000000001
    vertex 7.000000000000001 -0.9999999999999996 0.20000000000000004
  endloop
endfacet
facet normal 1.0 -0.0 -0.0
  outer loop
    vertex 10.000000000000002 -0.9999999999999996 0.20000000000000004
    vertex 10.000000000000002 -20.0 0.4000000000000001
    vertex 10.000000000000002 -20.0 0.20000000000000004
  endloop
endfacet
facet normal 1.0 -0.0 -0.0
  outer loop
    vertex 10.000000000000002 -20.0 0.4000000000000001
    vertex 10.000000000000002 -0.9999999999999996 0.20000000000000004
    vertex 10.000000000000002 -0.9999999999999996 0.4000000000000001
  endloop
endfacet
facet normal 0.0 -1.0 0.0
  outer loop
    vertex 10.000000000000002 -20.0 0.4000000000000001
    vertex 7.000000000000001 -20.0 0.20000000000000004
    vertex 10.000000000000002 -20.0 0.20000000000000004
  endloop
endfacet
facet normal 0.0 -1.0 0.0
  outer loop
    vertex 7.000000000000001 -20.0 0.20000000000000004
    vertex 10.000000000000002 -20.0 0.4000000000000001
    vertex 7.000000000000001 -20.0 0.4000000000000001
  endloop
endfacet
facet normal 0.0 0.0 -1.0
  outer loop
    vertex 10.000000000000002 -0.9999999999999996 0.8000000000000002
    vertex 7.000000000000001 -20.0 0.8000000000000002
    vertex 7.000000000000001 -1.0000000000000002 0.8000000000000002
  endloop
endfacet
facet normal 0.0 0.0 -1.0
  outer loop
    vertex 7.000000000000001 -20.0 0.8000000000000002
    vertex 10.000000000000002 -0.9999999999999996 0.8000000000000002
    vertex 10.000000000000002 -20.0 0.8000000000000002
  endloop
endfacet
facet normal 0.0 -1.0 0.0
  outer loop
    vertex 10.000000000000002 -20.0 1.0
    vertex 7.000000000000001 -20.0 0.8000000000000002
    vertex 10.000000000000002 -20.0 0.8000000000000002
  endloop
endfacet
facet normal 0.0 -1.0 0.0
  outer loop
    vertex 7.000000000000001 -20.0 0.8000000000000002
    vertex 10.000000000000002 -20.0 1.0
    vertex 7.000000000000001 -20.0 1.0
  endloop
endfacet
facet normal 1.0 -0.0 -0.0
  outer loop
    vertex 10.000000000000002 -0.9999999999999996 0.8000000000000002
    vertex 10.000000000000002 -20.0 1.0
    vertex 10.000000000000002 -20.0 0.8000000000000002
  endloop
endfacet
facet normal 1.0 -0.0 -0.0
  outer loop
    vertex 10.000000000000002 -20.0 1.0
    vertex 10.000000000000002 -0.9999999999999996 0.8000000000000002
    vertex 10.000000000000002 1.762479051592436e-16 1.0
  endloop
endfacet
facet normal 1.0 -0.0 -0.0
  outer loop
    vertex 10.000000000000002 1.762479051592436e-16 1.0
    vertex 10.000000000000002 -0.9999999999999996 0.8000000000000002
    vertex 10.000000000000002 1.762479051592436e-16 0.8000000000000002
  endloop
endfacet
facet normal -0.0 -0.0 1.0
  outer loop
    vertex 10.000000000000002 -20.0 1.0
    vertex 7.000000000000001 1.762479051592436e-16 1.0
    vertex 7.000000000000001 -20.0 1.0
  endloop
endfacet
facet normal -0.0 -0.0 1.0
  outer loop
    vertex 7.000000000000001 1.762479051592436e-16 1.0
    vertex 10.000000000000002 -20.0 1.0
    vertex 10.000000000000002 1.762479051592436e-16 1.0
  endloop
endfacet
facet normal 0.0 1.0 0.0
  outer loop
    vertex 7.000000000000001 1.762479051592436e-16 1.0
    vertex 10.000000000000002 1.762479051592436e-16 0.8000000000000002
    vertex 7.000000000000001 1.762479051592436e-16 0.8000000000000002
  endloop
endfacet
facet normal 0.0 1.0 0.0
  outer loop
    vertex 10.000000000000002 1.762479051592436e-16 0.8000000000000002
    vertex 7.000000000000001 1.762479051592436e-16 1.0
    vertex 10.000000000000002 1.762479051592436e-16 1.0
  endloop
endfacet
facet normal -1.0 0.0 0.0
  outer loop
    vertex 7.000000000000001 1.762479051592436e-16 1.0
    vertex 7.000000000000001 -20.0 0.8000000000000002
    vertex 7.000000000000001 -20.0 1.0
  endloop
endfacet
facet normal -1.0 0.0 0.0
  outer loop
    vertex 7.000000000000001 -20.0 0.8000000000000002
    vertex 7.000000000000001 1.762479051592436e-16 1.0
    vertex 7.000000000000001 -1.0000000000000002 0.8000000000000002
  endloop
endfacet
facet normal -1.0 0.0 0.0
  outer loop
    vertex 7.000000000000001 -1.0000000000000002 0.8000000000000002
    vertex 7.000000000000001 1.762479051592436e-16 1.0
    vertex 7.000000000000001 1.762479051592436e-16 0.8000000000000002
  endloop
endfacet
endsolid ELLamp
