solid Speaker
facet normal 0.0 -1.0 0.0
  outer loop
    vertex 13.6 20.0 0.20000000000000004
    vertex 12.1 20.0 0.0
    vertex 13.6 20.0 0.0
  endloop
endfacet
facet normal 0.0 -1.0 0.0
  outer loop
    vertex 12.1 20.0 0.0
    vertex 13.6 20.0 0.20000000000000004
    vertex 12.1 20.0 0.20000000000000004
  endloop
endfacet
facet normal 1.893700119667202e-16 1.0 -3.1698893307472706e-15
  outer loop
    vertex 10.6 18.5 0.20000000000000004
    vertex 16.6 18.5 0.0
    vertex 10.6 18.5 0.0
  endloop
endfacet
facet normal 1.893700119667202e-16 1.0 -3.1698893307472706e-15
  outer loop
    vertex 16.6 18.5 0.0
    vertex 10.6 18.5 0.20000000000000004
    vertex 16.6 18.5 0.20000000000000004
  endloop
endfacet
facet normal 1.893700119667202e-16 1.0 -3.1698893307472706e-15
  outer loop
    vertex 16.6 18.5 0.20000000000000004
    vertex 10.6 18.5 0.20000000000000004
    vertex 11.599999999999998 18.500000000000004 0.20000000000000004
  endloop
endfacet
facet normal 1.893700119667202e-16 1.0 -3.1698893307472706e-15
  outer loop
    vertex 16.6 18.5 0.20000000000000004
    vertex 11.599999999999998 18.500000000000004 0.20000000000000004
    vertex 14.1 18.5 0.20000000000000004
  endloop
endfacet
facet normal -0.0 -1.0 -0.0
  outer loop
    vertex 16.6 21.5 0.20000000000000004
    vertex 13.6 21.5 0.0
    vertex 16.6 21.5 0.0
  endloop
endfacet
facet normal -0.0 -1.0 -0.0
  outer loop
    vertex 13.6 21.5 0.0
    vertex 16.6 21.5 0.20000000000000004
    vertex 13.6 21.5 0.20000000000000004
  endloop
endfacet
facet normal 1.0 0.0 0.0
  outer loop
    vertex 7.6000000000000005 27.5 0.0
    vertex 7.6000000000000005 15.5 0.20000000000000004
    vertex 7.6000000000000005 15.5 0.0
  endloop
endfacet
facet normal 1.0 0.0 0.0
  outer loop
    vertex 7.6000000000000005 15.5 0.20000000000000004
    vertex 7.6000000000000005 27.5 0.0
    vertex 7.6000000000000005 27.5 0.20000000000000004
  endloop
endfacet
facet normal -0.0 -1.0 -0.0
  outer loop
    vertex 25.5 30.5 0.20000000000000004
    vertex 4.5 30.5 0.0
    vertex 25.5 30.5 0.0
  endloop
endfacet
facet normal -0.0 -1.0 -0.0
  outer loop
    vertex 4.5 30.5 0.0
    vertex 25.5 30.5 0.20000000000000004
    vertex 4.5 30.5 0.20000000000000004
  endloop
endfacet
facet normal -0.0 -1.0 -0.0
  outer loop
    vertex 22.6 27.5 0.20000000000000004
    vertex 7.6000000000000005 27.5 0.0
    vertex 22.6 27.5 0.0
  endloop
endfacet
facet normal -0.0 -1.0 -0.0
  outer loop
    vertex 7.6000000000000005 27.5 0.0
    vertex 22.6 27.5 0.20000000000000004
    vertex 7.6000000000000005 27.5 0.20000000000000004
  endloop
endfacet
facet normal -1.0 0.0 0.0
  outer loop
    vertex 0.0 35.0 0.20000000000000004
    vertex 0.0 7.999999999999999 0.0
    vertex 0.0 7.999999999999999 0.20000000000000004
  endloop
endfacet
facet normal -1.0 0.0 0.0
  outer loop
    vertex 0.0 7.999999999999999 0.0
    vertex 0.0 35.0 0.20000000000000004
    vertex 0.0 35.0 0.0
  endloop
endfacet
facet normal 1.0 0.0 0.0
  outer loop
    vertex 10.6 24.5 0.0
    vertex 10.6 18.5 0.20000000000000004
    vertex 10.6 18.5 0.0
  endloop
endfacet
facet normal 1.0 0.0 0.0
  outer loop
    vertex 10.6 18.5 0.20000000000000004
    vertex 10.6 24.5 0.0
    vertex 10.6 24.5 0.20000000000000004
  endloop
endfacet
facet normal 1.0 7.841580621577499e-17 0.0
  outer loop
    vertex 4.5 30.5 0.0
    vertex 4.500000000000002 12.519145 0.20000000000000004
    vertex 4.500000000000002 12.519145 0.0
  endloop
endfacet
facet normal 1.0 7.841580621577499e-17 0.0
  outer loop
    vertex 4.500000000000002 12.519145 0.20000000000000004
    vertex 4.5 30.5 0.0
    vertex 4.5 30.5 0.20000000000000004
  endloop
endfacet
facet normal 1.0 0.0 0.0
  outer loop
    vertex 18.1 23.0 0.0
    vertex 18.1 17.0 0.20000000000000004
    vertex 18.1 17.0 0.0
  endloop
endfacet
facet normal 1.0 0.0 0.0
  outer loop
    vertex 18.1 17.0 0.20000000000000004
    vertex 18.1 23.0 0.0
    vertex 18.1 23.0 0.20000000000000004
  endloop
endfacet
facet normal 0.0 1.0 0.0
  outer loop
    vertex 4.500000000000002 12.519145 0.20000000000000004
    vertex 22.6 12.519145 0.0
    vertex 4.500000000000002 12.519145 0.0
  endloop
endfacet
facet normal 0.0 1.0 0.0
  outer loop
    vertex 22.6 12.519145 0.0
    vertex 4.500000000000002 12.519145 0.20000000000000004
    vertex 22.6 12.519145 0.20000000000000004
  endloop
endfacet
facet normal 0.0 1.0 0.0
  outer loop
    vertex 22.6 12.519145 0.20000000000000004
    vertex 4.500000000000002 12.519145 0.20000000000000004
    vertex 11.6 12.519145 0.20000000000000004
  endloop
endfacet
facet normal 0.0 1.0 0.0
  outer loop
    vertex 22.6 12.519145 0.20000000000000004
    vertex 11.6 12.519145 0.20000000000000004
    vertex 14.1 12.519145 0.20000000000000004
  endloop
endfacet
facet normal -1.0 0.0 0.0
  outer loop
    vertex 12.1 23.0 0.20000000000000004
    vertex 12.1 20.0 0.0
    vertex 12.1 20.0 0.20000000000000004
  endloop
endfacet
facet normal -1.0 0.0 0.0
  outer loop
    vertex 12.1 20.0 0.0
    vertex 12.1 23.0 0.20000000000000004
    vertex 12.1 23.0 0.0
  endloop
endfacet
facet normal 1.0 0.0 0.0
  outer loop
    vertex 13.6 21.5 0.0
    vertex 13.6 20.0 0.20000000000000004
    vertex 13.6 20.0 0.0
  endloop
endfacet
facet normal 1.0 0.0 0.0
  outer loop
    vertex 13.6 20.0 0.20000000000000004
    vertex 13.6 21.5 0.0
    vertex 13.6 21.5 0.20000000000000004
  endloop
endfacet
facet normal 0.0 0.0 1.0
  outer loop
    vertex 9.1 17.0 0.20000000000000004
    vertex 10.6 18.5 0.20000000000000004
    vertex 9.1 26.000000000000004 0.20000000000000004
  endloop
endfacet
facet normal 0.0 0.0 1.0
  outer loop
    vertex 10.6 18.5 0.20000000000000004
    vertex 9.1 17.0 0.20000000000000004
    vertex 11.6 17.0 0.20000000000000004
  endloop
endfacet
facet normal 0.0 0.0 1.0
  outer loop
    vertex 10.6 18.5 0.20000000000000004
    vertex 11.6 17.0 0.20000000000000004
    vertex 11.599999999999998 18.500000000000004 0.20000000000000004
  endloop
endfacet
facet normal 0.0 0.0 1.0
  outer loop
    vertex 21.1 14.0 0.20000000000000004
    vertex 14.1 15.5 0.20000000000000004
    vertex 14.099999999999996 14.0 0.20000000000000004
  endloop
endfacet
facet normal 0.0 0.0 1.0
  outer loop
    vertex 14.1 15.5 0.20000000000000004
    vertex 21.1 14.0 0.20000000000000004
    vertex 19.6 15.5 0.20000000000000004
  endloop
endfacet
facet normal 0.0 0.0 1.0
  outer loop
    vertex 19.6 15.5 0.20000000000000004
    vertex 21.1 14.0 0.20000000000000004
    vertex 19.600000000000005 24.5 0.20000000000000004
  endloop
endfacet
facet normal 0.0 0.0 1.0
  outer loop
    vertex 9.1 26.000000000000004 0.20000000000000004
    vertex 10.6 24.5 0.20000000000000004
    vertex 21.1 26.000000000000004 0.20000000000000004
  endloop
endfacet
facet normal 0.0 0.0 1.0
  outer loop
    vertex 10.6 24.5 0.20000000000000004
    vertex 9.1 26.000000000000004 0.20000000000000004
    vertex 10.6 18.5 0.20000000000000004
  endloop
endfacet
facet normal 0.0 0.0 1.0
  outer loop
    vertex 21.1 26.000000000000004 0.20000000000000004
    vertex 10.6 24.5 0.20000000000000004
    vertex 19.600000000000005 24.5 0.20000000000000004
  endloop
endfacet
facet normal 0.0 0.0 1.0
  outer loop
    vertex 21.1 26.000000000000004 0.20000000000000004
    vertex 19.600000000000005 24.5 0.20000000000000004
    vertex 21.1 14.0 0.20000000000000004
  endloop
endfacet
facet normal 0.0 0.0 -1.0
  outer loop
    vertex 14.1 5.0 0.20000000000000004
    vertex 11.6 3.000000000000001 0.20000000000000004
    vertex 11.6 5.0 0.20000000000000004
  endloop
endfacet
facet normal 0.0 0.0 -1.0
  outer loop
    vertex 11.6 3.000000000000001 0.20000000000000004
    vertex 14.1 5.0 0.20000000000000004
    vertex 14.1 3.000000000000001 0.20000000000000004
  endloop
endfacet
facet normal 0.0 0.0 1.0
  outer loop
    vertex 13.6 7.049916206369744e-16 0.6000000000000001
    vertex 12.1 21.5 0.6000000000000001
    vertex 12.1 7.049916206369744e-16 0.6000000000000001
  endloop
endfacet
facet normal 0.0 0.0 1.0
  outer loop
    vertex 12.1 21.5 0.6000000000000001
    vertex 13.6 7.049916206369744e-16 0.6000000000000001
    vertex 13.6 21.5 0.6000000000000001
  endloop
endfacet
facet normal 0.0 0.0 -1.0
  outer loop
    vertex 14.099999999999996 14.0 0.20000000000000004
    vertex 11.6 12.519145 0.20000000000000004
    vertex 11.599999999999998 14.0 0.20000000000000004
  endloop
endfacet
facet normal 0.0 0.0 -1.0
  outer loop
    vertex 11.6 12.519145 0.20000000000000004
    vertex 14.099999999999996 14.0 0.20000000000000004
    vertex 14.1 12.519145 0.20000000000000004
  endloop
endfacet
facet normal 0.0 0.0 -1.0
  outer loop
    vertex 14.1 17.0 0.20000000000000004
    vertex 11.6 15.5 0.20000000000000004
    vertex 11.6 17.0 0.20000000000000004
  endloop
endfacet
facet normal 0.0 0.0 -1.0
  outer loop
    vertex 11.6 15.5 0.20000000000000004
    vertex 14.1 17.0 0.20000000000000004
    vertex 14.1 15.5 0.20000000000000004
  endloop
endfacet
facet normal 0.0 0.0 1.0
  outer loop
    vertex 18.1 17.0 0.20000000000000004
    vertex 14.1 18.5 0.20000000000000004
    vertex 14.1 17.0 0.20000000000000004
  endloop
endfacet
facet normal 0.0 0.0 1.0
  outer loop
    vertex 14.1 18.5 0.20000000000000004
    vertex 18.1 17.0 0.20000000000000004
    vertex 16.6 18.5 0.20000000000000004
  endloop
endfacet
facet normal 0.0 0.0 1.0
  outer loop
    vertex 16.6 18.5 0.20000000000000004
    vertex 18.1 17.0 0.20000000000000004
    vertex 16.6 21.5 0.20000000000000004
  endloop
endfacet
facet normal 0.0 0.0 1.0
  outer loop
    vertex 13.6 20.0 0.20000000000000004
    vertex 12.1 23.0 0.20000000000000004
    vertex 12.1 20.0 0.20000000000000004
  endloop
endfacet
facet normal 0.0 0.0 1.0
  outer loop
    vertex 12.1 23.0 0.20000000000000004
    vertex 13.6 20.0 0.20000000000000004
    vertex 13.6 21.5 0.20000000000000004
  endloop
endfacet
facet normal 0.0 0.0 1.0
  outer loop
    vertex 12.1 23.0 0.20000000000000004
    vertex 13.6 21.5 0.20000000000000004
    vertex 18.1 23.0 0.20000000000000004
  endloop
endfacet
facet normal 0.0 0.0 1.0
  outer loop
    vertex 18.1 23.0 0.20000000000000004
    vertex 13.6 21.5 0.20000000000000004
    vertex 16.6 21.5 0.20000000000000004
  endloop
endfacet
facet normal 0.0 0.0 1.0
  outer loop
    vertex 18.1 23.0 0.20000000000000004
    vertex 16.6 21.5 0.20000000000000004
    vertex 18.1 17.0 0.20000000000000004
  endloop
endfacet
facet normal 0.0 0.0 1.0
  outer loop
    vertex 0.0 7.999999999999999 0.20000000000000004
    vertex 1.5000000000000042 9.5 0.20000000000000004
    vertex 0.0 35.0 0.20000000000000004
  endloop
endfacet
facet normal 0.0 0.0 1.0
  outer loop
    vertex 1.5000000000000042 9.5 0.20000000000000004
    vertex 0.0 7.999999999999999 0.20000000000000004
    vertex 11.600000000000001 8.0 0.20000000000000004
  endloop
endfacet
facet normal 0.0 0.0 1.0
  outer loop
    vertex 0.0 35.0 0.20000000000000004
    vertex 1.5000000000000042 9.5 0.20000000000000004
    vertex 1.5 33.50000000000001 0.20000000000000004
  endloop
endfacet
facet normal 0.0 0.0 1.0
  outer loop
    vertex 1.5000000000000042 9.5 0.20000000000000004
    vertex 11.600000000000001 8.0 0.20000000000000004
    vertex 11.600000000000001 9.5 0.20000000000000004
  endloop
endfacet
facet normal 0.0 0.0 1.0
  outer loop
    vertex 30.0 5.0 0.20000000000000004
    vertex 14.100000000000003 6.499999999999998 0.20000000000000004
    vertex 14.1 5.0 0.20000000000000004
  endloop
endfacet
facet normal 0.0 0.0 1.0
  outer loop
    vertex 14.100000000000003 6.499999999999998 0.20000000000000004
    vertex 30.0 5.0 0.20000000000000004
    vertex 28.500000000000004 6.499999999999999 0.20000000000000004
  endloop
endfacet
facet normal 0.0 0.0 1.0
  outer loop
    vertex 28.500000000000004 6.499999999999999 0.20000000000000004
    vertex 30.0 5.0 0.20000000000000004
    vertex 28.500000000000004 33.50000000000001 0.20000000000000004
  endloop
endfacet
facet normal 0.0 0.0 1.0
  outer loop
    vertex 1.5 33.50000000000001 0.20000000000000004
    vertex 30.0 35.0 0.20000000000000004
    vertex 0.0 35.0 0.20000000000000004
  endloop
endfacet
facet normal 0.0 0.0 1.0
  outer loop
    vertex 30.0 35.0 0.20000000000000004
    vertex 1.5 33.50000000000001 0.20000000000000004
    vertex 28.500000000000004 33.50000000000001 0.20000000000000004
  endloop
endfacet
facet normal 0.0 0.0 1.0
  outer loop
    vertex 30.0 35.0 0.20000000000000004
    vertex 28.500000000000004 33.50000000000001 0.20000000000000004
    vertex 30.0 5.0 0.20000000000000004
  endloop
endfacet
facet normal 0.0 -1.0 0.0
  outer loop
    vertex 24.1 11.0 0.20000000000000004
    vertex 3.0 11.0 0.0
    vertex 24.1 11.0 0.0
  endloop
endfacet
facet normal 0.0 -1.0 0.0
  outer loop
    vertex 3.0 11.0 0.0
    vertex 24.1 11.0 0.20000000000000004
    vertex 3.0 11.0 0.20000000000000004
  endloop
endfacet
facet normal 0.0 -1.0 0.0
  outer loop
    vertex 3.0 11.0 0.20000000000000004
    vertex 24.1 11.0 0.20000000000000004
    vertex 14.100000000000003 11.0 0.20000000000000004
  endloop
endfacet
facet normal 0.0 -1.0 0.0
  outer loop
    vertex 3.0 11.0 0.20000000000000004
    vertex 14.100000000000003 11.0 0.20000000000000004
    vertex 11.6 11.0 0.20000000000000004
  endloop
endfacet
facet normal 0.0 0.0 -1.0
  outer loop
    vertex 11.6 20.0 0.20000000000000004
    vertex 14.1 18.5 0.20000000000000004
    vertex 11.599999999999998 18.500000000000004 0.20000000000000004
  endloop
endfacet
facet normal 0.0 0.0 -1.0
  outer loop
    vertex 14.1 18.5 0.20000000000000004
    vertex 11.6 20.0 0.20000000000000004
    vertex 12.1 20.0 0.20000000000000004
  endloop
endfacet
facet normal 0.0 0.0 -1.0
  outer loop
    vertex 14.1 18.5 0.20000000000000004
    vertex 12.1 20.0 0.20000000000000004
    vertex 13.6 20.0 0.20000000000000004
  endloop
endfacet
facet normal 0.0 0.0 -1.0
  outer loop
    vertex 14.1 18.5 0.20000000000000004
    vertex 13.6 20.0 0.20000000000000004
    vertex 14.1 20.0 0.20000000000000004
  endloop
endfacet
facet normal 0.0 0.0 1.0
  outer loop
    vertex 1.5 0.0 0.20000000000000004
    vertex 0.0 5.0 0.20000000000000004
    vertex 0.0 0.0 0.20000000000000004
  endloop
endfacet
facet normal 0.0 0.0 1.0
  outer loop
    vertex 0.0 5.0 0.20000000000000004
    vertex 1.5 0.0 0.20000000000000004
    vertex 0.0 6.499999999999999 0.20000000000000004
  endloop
endfacet
facet normal 0.0 0.0 1.0
  outer loop
    vertex 0.0 6.499999999999999 0.20000000000000004
    vertex 1.5 0.0 0.20000000000000004
    vertex 1.5 5.0 0.20000000000000004
  endloop
endfacet
facet normal 0.0 0.0 1.0
  outer loop
    vertex 0.0 6.499999999999999 0.20000000000000004
    vertex 1.5 5.0 0.20000000000000004
    vertex 11.600000000000001 6.499999999999999 0.20000000000000004
  endloop
endfacet
facet normal 0.0 0.0 1.0
  outer loop
    vertex 11.600000000000001 6.499999999999999 0.20000000000000004
    vertex 1.5 5.0 0.20000000000000004
    vertex 11.6 5.0 0.20000000000000004
  endloop
endfacet
facet normal -1.0 0.0 0.0
  outer loop
    vertex 16.6 21.5 0.20000000000000004
    vertex 16.6 18.5 0.0
    vertex 16.6 18.5 0.20000000000000004
  endloop
endfacet
facet normal -1.0 0.0 0.0
  outer loop
    vertex 16.6 18.5 0.0
    vertex 16.6 21.5 0.20000000000000004
    vertex 16.6 21.5 0.0
  endloop
endfacet
facet normal -1.0 0.0 0.0
  outer loop
    vertex 22.6 27.5 0.20000000000000004
    vertex 22.6 12.519145 0.0
    vertex 22.6 12.519145 0.20000000000000004
  endloop
endfacet
facet normal -1.0 0.0 0.0
  outer loop
    vertex 22.6 12.519145 0.0
    vertex 22.6 27.5 0.20000000000000004
    vertex 22.6 27.5 0.0
  endloop
endfacet
facet normal -1.0 3.133296091719886e-16 0.0
  outer loop
    vertex 19.600000000000005 24.5 0.20000000000000004
    vertex 19.6 15.5 0.0
    vertex 19.6 15.5 0.20000000000000004
  endloop
endfacet
facet normal -1.0 3.133296091719886e-16 0.0
  outer loop
    vertex 19.6 15.5 0.0
    vertex 19.600000000000005 24.5 0.20000000000000004
    vertex 19.600000000000005 24.5 0.0
  endloop
endfacet
facet normal 0.0 1.0 0.0
  outer loop
    vertex 7.6000000000000005 15.5 0.20000000000000004
    vertex 19.6 15.5 0.0
    vertex 7.6000000000000005 15.5 0.0
  endloop
endfacet
facet normal 0.0 1.0 0.0
  outer loop
    vertex 19.6 15.5 0.0
    vertex 7.6000000000000005 15.5 0.20000000000000004
    vertex 19.6 15.5 0.20000000000000004
  endloop
endfacet
facet normal 0.0 1.0 0.0
  outer loop
    vertex 19.6 15.5 0.20000000000000004
    vertex 7.6000000000000005 15.5 0.20000000000000004
    vertex 11.6 15.5 0.20000000000000004
  endloop
endfacet
facet normal 0.0 1.0 0.0
  outer loop
    vertex 19.6 15.5 0.20000000000000004
    vertex 11.6 15.5 0.20000000000000004
    vertex 14.1 15.5 0.20000000000000004
  endloop
endfacet
facet normal -0.0 -1.0 -0.0
  outer loop
    vertex 19.600000000000005 24.5 0.20000000000000004
    vertex 10.6 24.5 0.0
    vertex 19.600000000000005 24.5 0.0
  endloop
endfacet
facet normal -0.0 -1.0 -0.0
  outer loop
    vertex 10.6 24.5 0.0
    vertex 19.600000000000005 24.5 0.20000000000000004
    vertex 10.6 24.5 0.20000000000000004
  endloop
endfacet
facet normal -7.578769994459297e-19 -1.0 4.393882127740091e-16
  outer loop
    vertex 27.0 7.999999999999999 0.20000000000000004
    vertex 0.0 7.999999999999999 0.0
    vertex 27.0 7.999999999999999 0.0
  endloop
endfacet
facet normal -7.578769994459297e-19 -1.0 4.393882127740091e-16
  outer loop
    vertex 0.0 7.999999999999999 0.0
    vertex 27.0 7.999999999999999 0.20000000000000004
    vertex 0.0 7.999999999999999 0.20000000000000004
  endloop
endfacet
facet normal -7.578769994459297e-19 -1.0 4.393882127740091e-16
  outer loop
    vertex 0.0 7.999999999999999 0.20000000000000004
    vertex 27.0 7.999999999999999 0.20000000000000004
    vertex 14.100000000000003 7.999999999999999 0.20000000000000004
  endloop
endfacet
facet normal -7.578769994459297e-19 -1.0 4.393882127740091e-16
  outer loop
    vertex 0.0 7.999999999999999 0.20000000000000004
    vertex 14.100000000000003 7.999999999999999 0.20000000000000004
    vertex 11.600000000000001 8.0 0.20000000000000004
  endloop
endfacet
facet normal 0.0 0.0 -1.0
  outer loop
    vertex 14.100000000000003 7.999999999999999 0.20000000000000004
    vertex 11.600000000000001 6.499999999999999 0.20000000000000004
    vertex 11.600000000000001 8.0 0.20000000000000004
  endloop
endfacet
facet normal 0.0 0.0 -1.0
  outer loop
    vertex 11.600000000000001 6.499999999999999 0.20000000000000004
    vertex 14.100000000000003 7.999999999999999 0.20000000000000004
    vertex 14.100000000000003 6.499999999999998 0.20000000000000004
  endloop
endfacet
facet normal 0.0 0.0 1.0
  outer loop
    vertex 3.0 11.0 0.20000000000000004
    vertex 4.500000000000002 12.519145 0.20000000000000004
    vertex 3.0 32.0 0.20000000000000004
  endloop
endfacet
facet normal 0.0 0.0 1.0
  outer loop
    vertex 4.500000000000002 12.519145 0.20000000000000004
    vertex 3.0 11.0 0.20000000000000004
    vertex 11.6 11.0 0.20000000000000004
  endloop
endfacet
facet normal 0.0 0.0 1.0
  outer loop
    vertex 3.0 32.0 0.20000000000000004
    vertex 4.500000000000002 12.519145 0.20000000000000004
    vertex 4.5 30.5 0.20000000000000004
  endloop
endfacet
facet normal 0.0 0.0 1.0
  outer loop
    vertex 4.500000000000002 12.519145 0.20000000000000004
    vertex 11.6 11.0 0.20000000000000004
    vertex 11.6 12.519145 0.20000000000000004
  endloop
endfacet
facet normal 0.0 0.0 1.0
  outer loop
    vertex 27.0 7.999999999999999 0.20000000000000004
    vertex 14.100000000000003 9.5 0.20000000000000004
    vertex 14.100000000000003 7.999999999999999 0.20000000000000004
  endloop
endfacet
facet normal 0.0 0.0 1.0
  outer loop
    vertex 14.100000000000003 9.5 0.20000000000000004
    vertex 27.0 7.999999999999999 0.20000000000000004
    vertex 25.5 9.5 0.20000000000000004
  endloop
endfacet
facet normal 0.0 0.0 1.0
  outer loop
    vertex 25.5 9.5 0.20000000000000004
    vertex 27.0 7.999999999999999 0.20000000000000004
    vertex 25.5 30.5 0.20000000000000004
  endloop
endfacet
facet normal 0.0 0.0 1.0
  outer loop
    vertex 4.5 30.5 0.20000000000000004
    vertex 27.0 32.0 0.20000000000000004
    vertex 3.0 32.0 0.20000000000000004
  endloop
endfacet
facet normal 0.0 0.0 1.0
  outer loop
    vertex 27.0 32.0 0.20000000000000004
    vertex 4.5 30.5 0.20000000000000004
    vertex 25.5 30.5 0.20000000000000004
  endloop
endfacet
facet normal 0.0 0.0 1.0
  outer loop
    vertex 27.0 32.0 0.20000000000000004
    vertex 25.5 30.5 0.20000000000000004
    vertex 27.0 7.999999999999999 0.20000000000000004
  endloop
endfacet
facet normal 1.0 7.922733249868371e-17 4.466414679640358e-15
  outer loop
    vertex 14.1 5.0 0.20000000000000004
    vertex 14.1 3.000000000000001 0.4000000000000001
    vertex 14.1 3.000000000000001 0.20000000000000004
  endloop
endfacet
facet normal 1.0 7.922733249868371e-17 4.466414679640358e-15
  outer loop
    vertex 14.1 3.000000000000001 0.4000000000000001
    vertex 14.1 5.0 0.20000000000000004
    vertex 14.1 20.0 0.4000000000000001
  endloop
endfacet
facet normal 1.0 7.922733249868371e-17 4.466414679640358e-15
  outer loop
    vertex 14.1 20.0 0.4000000000000001
    vertex 14.1 5.0 0.20000000000000004
    vertex 14.100000000000003 6.499999999999998 0.20000000000000004
  endloop
endfacet
facet normal 1.0 7.922733249868371e-17 4.466414679640358e-15
  outer loop
    vertex 14.1 20.0 0.4000000000000001
    vertex 14.100000000000003 6.499999999999998 0.20000000000000004
    vertex 14.100000000000003 7.999999999999999 0.20000000000000004
  endloop
endfacet
facet normal 1.0 7.922733249868371e-17 4.466414679640358e-15
  outer loop
    vertex 14.1 20.0 0.4000000000000001
    vertex 14.100000000000003 7.999999999999999 0.20000000000000004
    vertex 14.100000000000003 9.5 0.20000000000000004
  endloop
endfacet
facet normal 1.0 7.922733249868371e-17 4.466414679640358e-15
  outer loop
    vertex 14.1 20.0 0.4000000000000001
    vertex 14.100000000000003 9.5 0.20000000000000004
    vertex 14.100000000000003 11.0 0.20000000000000004
  endloop
endfacet
facet normal 1.0 7.922733249868371e-17 4.466414679640358e-15
  outer loop
    vertex 14.1 20.0 0.4000000000000001
    vertex 14.100000000000003 11.0 0.20000000000000004
    vertex 14.1 12.519145 0.20000000000000004
  endloop
endfacet
facet normal 1.0 7.922733249868371e-17 4.466414679640358e-15
  outer loop
    vertex 14.1 20.0 0.4000000000000001
    vertex 14.1 12.519145 0.20000000000000004
    vertex 14.099999999999996 14.0 0.20000000000000004
  endloop
endfacet
facet normal 1.0 7.922733249868371e-17 4.466414679640358e-15
  outer loop
    vertex 14.1 20.0 0.4000000000000001
    vertex 14.099999999999996 14.0 0.20000000000000004
    vertex 14.1 15.5 0.20000000000000004
  endloop
endfacet
facet normal 1.0 7.922733249868371e-17 4.466414679640358e-15
  outer loop
    vertex 14.1 20.0 0.4000000000000001
    vertex 14.1 15.5 0.20000000000000004
    vertex 14.1 17.0 0.20000000000000004
  endloop
endfacet
facet normal 1.0 7.922733249868371e-17 4.466414679640358e-15
  outer loop
    vertex 14.1 20.0 0.4000000000000001
    vertex 14.1 17.0 0.20000000000000004
    vertex 14.1 18.5 0.20000000000000004
  endloop
endfacet
facet normal 1.0 7.922733249868371e-17 4.466414679640358e-15
  outer loop
    vertex 14.1 20.0 0.4000000000000001
    vertex 14.1 18.5 0.20000000000000004
    vertex 14.1 20.0 0.20000000000000004
  endloop
endfacet
facet normal 0.0 -1.0 0.0
  outer loop
    vertex 13.6 7.049916206369744e-16 0.6000000000000001
    vertex 12.1 7.049916206369744e-16 0.4000000000000001
    vertex 13.6 7.049916206369744e-16 0.4000000000000001
  endloop
endfacet
facet normal 0.0 -1.0 0.0
  outer loop
    vertex 12.1 7.049916206369744e-16 0.4000000000000001
    vertex 13.6 7.049916206369744e-16 0.6000000000000001
    vertex 12.1 7.049916206369744e-16 0.6000000000000001
  endloop
endfacet
facet normal 0.0 0.0 -1.0
  outer loop
    vertex 13.6 3.000000000000001 0.4000000000000001
    vertex 12.1 7.049916206369744e-16 0.4000000000000001
    vertex 12.1 3.000000000000002 0.4000000000000001
  endloop
endfacet
facet normal 0.0 0.0 -1.0
  outer loop
    vertex 12.1 7.049916206369744e-16 0.4000000000000001
    vertex 13.6 3.000000000000001 0.4000000000000001
    vertex 13.6 7.049916206369744e-16 0.4000000000000001
  endloop
endfacet
facet normal 1.0 0.0 0.0
  outer loop
    vertex 1.5 5.0 0.0
    vertex 1.5 0.0 0.20000000000000004
    vertex 1.5 0.0 0.0
  endloop
endfacet
facet normal 1.0 0.0 0.0
  outer loop
    vertex 1.5 0.0 0.20000000000000004
    vertex 1.5 5.0 0.0
    vertex 1.5 5.0 0.20000000000000004
  endloop
endfacet
facet normal 0.0 0.0 -1.0
  outer loop
    vertex 13.6 21.5 0.4000000000000001
    vertex 12.1 20.0 0.4000000000000001
    vertex 12.1 21.5 0.4000000000000001
  endloop
endfacet
facet normal 0.0 0.0 -1.0
  outer loop
    vertex 12.1 20.0 0.4000000000000001
    vertex 13.6 21.5 0.4000000000000001
    vertex 13.6 20.0 0.4000000000000001
  endloop
endfacet
facet normal 0.0 0.0 -1.0
  outer loop
    vertex 1.5 5.0 0.0
    vertex 0.0 0.0 0.0
    vertex 0.0 5.0 0.0
  endloop
endfacet
facet normal 0.0 0.0 -1.0
  outer loop
    vertex 0.0 0.0 0.0
    vertex 1.5 5.0 0.0
    vertex 1.5 0.0 0.0
  endloop
endfacet
facet normal -0.0 -1.0 -0.0
  outer loop
    vertex 1.5 0.0 0.20000000000000004
    vertex 0.0 0.0 0.0
    vertex 1.5 0.0 0.0
  endloop
endfacet
facet normal -0.0 -1.0 -0.0
  outer loop
    vertex 0.0 0.0 0.0
    vertex 1.5 0.0 0.20000000000000004
    vertex 0.0 0.0 0.20000000000000004
  endloop
endfacet
facet normal -1.43388126231249e-16 -1.0 1.7624790515924358e-15
  outer loop
    vertex 14.1 3.000000000000001 0.4000000000000001
    vertex 11.6 3.000000000000001 0.20000000000000004
    vertex 14.1 3.000000000000001 0.20000000000000004
  endloop
endfacet
facet normal -1.43388126231249e-16 -1.0 1.7624790515924358e-15
  outer loop
    vertex 11.6 3.000000000000001 0.20000000000000004
    vertex 14.1 3.000000000000001 0.4000000000000001
    vertex 11.6 3.000000000000001 0.4000000000000001
  endloop
endfacet
facet normal -1.43388126231249e-16 -1.0 1.7624790515924358e-15
  outer loop
    vertex 11.6 3.000000000000001 0.4000000000000001
    vertex 14.1 3.000000000000001 0.4000000000000001
    vertex 13.6 3.000000000000001 0.4000000000000001
  endloop
endfacet
facet normal -1.43388126231249e-16 -1.0 1.7624790515924358e-15
  outer loop
    vertex 11.6 3.000000000000001 0.4000000000000001
    vertex 13.6 3.000000000000001 0.4000000000000001
    vertex 12.1 3.000000000000002 0.4000000000000001
  endloop
endfacet
facet normal 5.129805200988149e-17 1.0 1.5014024707289119e-15
  outer loop
    vertex 0.0 6.499999999999999 0.20000000000000004
    vertex 28.500000000000004 6.499999999999999 0.0
    vertex 0.0 6.499999999999999 0.0
  endloop
endfacet
facet normal 5.129805200988149e-17 1.0 1.5014024707289119e-15
  outer loop
    vertex 28.500000000000004 6.499999999999999 0.0
    vertex 0.0 6.499999999999999 0.20000000000000004
    vertex 28.500000000000004 6.499999999999999 0.20000000000000004
  endloop
endfacet
facet normal 5.129805200988149e-17 1.0 1.5014024707289119e-15
  outer loop
    vertex 28.500000000000004 6.499999999999999 0.20000000000000004
    vertex 0.0 6.499999999999999 0.20000000000000004
    vertex 11.600000000000001 6.499999999999999 0.20000000000000004
  endloop
endfacet
facet normal 5.129805200988149e-17 1.0 1.5014024707289119e-15
  outer loop
    vertex 28.500000000000004 6.499999999999999 0.20000000000000004
    vertex 11.600000000000001 6.499999999999999 0.20000000000000004
    vertex 14.100000000000003 6.499999999999998 0.20000000000000004
  endloop
endfacet
facet normal 5.202689278692558e-17 1.0 8.454370077875402e-17
  outer loop
    vertex 1.5000000000000042 9.5 0.20000000000000004
    vertex 25.5 9.5 0.0
    vertex 1.5000000000000042 9.5 0.0
  endloop
endfacet
facet normal 5.202689278692558e-17 1.0 8.454370077875402e-17
  outer loop
    vertex 25.5 9.5 0.0
    vertex 1.5000000000000042 9.5 0.20000000000000004
    vertex 25.5 9.5 0.20000000000000004
  endloop
endfacet
facet normal 5.202689278692558e-17 1.0 8.454370077875402e-17
  outer loop
    vertex 25.5 9.5 0.20000000000000004
    vertex 1.5000000000000042 9.5 0.20000000000000004
    vertex 11.600000000000001 9.5 0.20000000000000004
  endloop
endfacet
facet normal 5.202689278692558e-17 1.0 8.454370077875402e-17
  outer loop
    vertex 25.5 9.5 0.20000000000000004
    vertex 11.600000000000001 9.5 0.20000000000000004
    vertex 14.100000000000003 9.5 0.20000000000000004
  endloop
endfacet
facet normal 0.0 -1.0 0.0
  outer loop
    vertex 21.1 14.0 0.20000000000000004
    vertex 6.1000000000000005 14.0 0.0
    vertex 21.1 14.0 0.0
  endloop
endfacet
facet normal 0.0 -1.0 0.0
  outer loop
    vertex 6.1000000000000005 14.0 0.0
    vertex 21.1 14.0 0.20000000000000004
    vertex 6.1000000000000005 14.0 0.20000000000000004
  endloop
endfacet
facet normal 0.0 -1.0 0.0
  outer loop
    vertex 6.1000000000000005 14.0 0.20000000000000004
    vertex 21.1 14.0 0.20000000000000004
    vertex 14.099999999999996 14.0 0.20000000000000004
  endloop
endfacet
facet normal 0.0 -1.0 0.0
  outer loop
    vertex 6.1000000000000005 14.0 0.20000000000000004
    vertex 14.099999999999996 14.0 0.20000000000000004
    vertex 11.599999999999998 14.0 0.20000000000000004
  endloop
endfacet
facet normal 0.0 0.0 -1.0
  outer loop
    vertex 14.100000000000003 11.0 0.20000000000000004
    vertex 11.600000000000001 9.5 0.20000000000000004
    vertex 11.6 11.0 0.20000000000000004
  endloop
endfacet
facet normal 0.0 0.0 -1.0
  outer loop
    vertex 11.600000000000001 9.5 0.20000000000000004
    vertex 14.100000000000003 11.0 0.20000000000000004
    vertex 14.100000000000003 9.5 0.20000000000000004
  endloop
endfacet
facet normal -1.0 -6.912446209515242e-17 -2.203569087820903e-15
  outer loop
    vertex 11.6 20.0 0.4000000000000001
    vertex 11.6 3.000000000000001 0.20000000000000004
    vertex 11.6 3.000000000000001 0.4000000000000001
  endloop
endfacet
facet normal -1.0 -6.912446209515242e-17 -2.203569087820903e-15
  outer loop
    vertex 11.6 3.000000000000001 0.20000000000000004
    vertex 11.6 20.0 0.4000000000000001
    vertex 11.6 5.0 0.20000000000000004
  endloop
endfacet
facet normal -1.0 -6.912446209515242e-17 -2.203569087820903e-15
  outer loop
    vertex 11.6 5.0 0.20000000000000004
    vertex 11.6 20.0 0.4000000000000001
    vertex 11.600000000000001 6.499999999999999 0.20000000000000004
  endloop
endfacet
facet normal -1.0 -6.912446209515242e-17 -2.203569087820903e-15
  outer loop
    vertex 11.600000000000001 6.499999999999999 0.20000000000000004
    vertex 11.6 20.0 0.4000000000000001
    vertex 11.600000000000001 8.0 0.20000000000000004
  endloop
endfacet
facet normal -1.0 -6.912446209515242e-17 -2.203569087820903e-15
  outer loop
    vertex 11.600000000000001 8.0 0.20000000000000004
    vertex 11.6 20.0 0.4000000000000001
    vertex 11.600000000000001 9.5 0.20000000000000004
  endloop
endfacet
facet normal -1.0 -6.912446209515242e-17 -2.203569087820903e-15
  outer loop
    vertex 11.600000000000001 9.5 0.20000000000000004
    vertex 11.6 20.0 0.4000000000000001
    vertex 11.6 11.0 0.20000000000000004
  endloop
endfacet
facet normal -1.0 -6.912446209515242e-17 -2.203569087820903e-15
  outer loop
    vertex 11.6 11.0 0.20000000000000004
    vertex 11.6 20.0 0.4000000000000001
    vertex 11.6 12.519145 0.20000000000000004
  endloop
endfacet
facet normal -1.0 -6.912446209515242e-17 -2.203569087820903e-15
  outer loop
    vertex 11.6 12.519145 0.20000000000000004
    vertex 11.6 20.0 0.4000000000000001
    vertex 11.599999999999998 14.0 0.20000000000000004
  endloop
endfacet
facet normal -1.0 -6.912446209515242e-17 -2.203569087820903e-15
  outer loop
    vertex 11.599999999999998 14.0 0.20000000000000004
    vertex 11.6 20.0 0.4000000000000001
    vertex 11.6 15.5 0.20000000000000004
  endloop
endfacet
facet normal -1.0 -6.912446209515242e-17 -2.203569087820903e-15
  outer loop
    vertex 11.6 15.5 0.20000000000000004
    vertex 11.6 20.0 0.4000000000000001
    vertex 11.6 17.0 0.20000000000000004
  endloop
endfacet
facet normal -1.0 -6.912446209515242e-17 -2.203569087820903e-15
  outer loop
    vertex 11.6 17.0 0.20000000000000004
    vertex 11.6 20.0 0.4000000000000001
    vertex 11.599999999999998 18.500000000000004 0.20000000000000004
  endloop
endfacet
facet normal -1.0 -6.912446209515242e-17 -2.203569087820903e-15
  outer loop
    vertex 11.599999999999998 18.500000000000004 0.20000000000000004
    vertex 11.6 20.0 0.4000000000000001
    vertex 11.6 20.0 0.20000000000000004
  endloop
endfacet
facet normal -1.0 0.0 0.0
  outer loop
    vertex 12.1 21.5 0.6000000000000001
    vertex 12.1 7.049916206369744e-16 0.4000000000000001
    vertex 12.1 7.049916206369744e-16 0.6000000000000001
  endloop
endfacet
facet normal -1.0 0.0 0.0
  outer loop
    vertex 12.1 7.049916206369744e-16 0.4000000000000001
    vertex 12.1 21.5 0.6000000000000001
    vertex 12.1 3.000000000000002 0.4000000000000001
  endloop
endfacet
facet normal -1.0 0.0 0.0
  outer loop
    vertex 12.1 3.000000000000002 0.4000000000000001
    vertex 12.1 21.5 0.6000000000000001
    vertex 12.1 20.0 0.4000000000000001
  endloop
endfacet
facet normal -1.0 0.0 0.0
  outer loop
    vertex 12.1 20.0 0.4000000000000001
    vertex 12.1 21.5 0.6000000000000001
    vertex 12.1 21.5 0.4000000000000001
  endloop
endfacet
facet normal 0.0 0.0 1.0
  outer loop
    vertex 12.1 3.000000000000002 0.4000000000000001
    vertex 11.6 20.0 0.4000000000000001
    vertex 11.6 3.000000000000001 0.4000000000000001
  endloop
endfacet
facet normal 0.0 0.0 1.0
  outer loop
    vertex 11.6 20.0 0.4000000000000001
    vertex 12.1 3.000000000000002 0.4000000000000001
    vertex 12.1 20.0 0.4000000000000001
  endloop
endfacet
facet normal 0.0 0.0 1.0
  outer loop
    vertex 14.1 3.000000000000001 0.4000000000000001
    vertex 13.6 20.0 0.4000000000000001
    vertex 13.6 3.000000000000001 0.4000000000000001
  endloop
endfacet
facet normal 0.0 0.0 1.0
  outer loop
    vertex 13.6 20.0 0.4000000000000001
    vertex 14.1 3.000000000000001 0.4000000000000001
    vertex 14.1 20.0 0.4000000000000001
  endloop
endfacet
facet normal 1.0 0.0 0.0
  outer loop
    vertex 13.6 3.000000000000001 0.4000000000000001
    vertex 13.6 7.049916206369744e-16 0.6000000000000001
    vertex 13.6 7.049916206369744e-16 0.4000000000000001
  endloop
endfacet
facet normal 1.0 0.0 0.0
  outer loop
    vertex 13.6 7.049916206369744e-16 0.6000000000000001
    vertex 13.6 3.000000000000001 0.4000000000000001
    vertex 13.6 21.5 0.6000000000000001
  endloop
endfacet
facet normal 1.0 0.0 0.0
  outer loop
    vertex 13.6 21.5 0.6000000000000001
    vertex 13.6 3.000000000000001 0.4000000000000001
    vertex 13.6 20.0 0.4000000000000001
  endloop
endfacet
facet normal 1.0 0.0 0.0
  outer loop
    vertex 13.6 21.5 0.6000000000000001
    vertex 13.6 20.0 0.4000000000000001
    vertex 13.6 21.5 0.4000000000000001
  endloop
endfacet
facet normal 0.0 0.0 1.0
  outer loop
    vertex 13.6 3.000000000000001 0.4000000000000001
    vertex 12.1 20.0 0.4000000000000001
    vertex 12.1 3.000000000000002 0.4000000000000001
  endloop
endfacet
facet normal 0.0 0.0 1.0
  outer loop
    vertex 12.1 20.0 0.4000000000000001
    vertex 13.6 3.000000000000001 0.4000000000000001
    vertex 13.6 20.0 0.4000000000000001
  endloop
endfacet
facet normal 0.0 1.0 0.0
  outer loop
    vertex 12.1 21.5 0.6000000000000001
    vertex 13.6 21.5 0.4000000000000001
    vertex 12.1 21.5 0.4000000000000001
  endloop
endfacet
facet normal 0.0 1.0 0.0
  outer loop
    vertex 13.6 21.5 0.4000000000000001
    vertex 12.1 21.5 0.6000000000000001
    vertex 13.6 21.5 0.6000000000000001
  endloop
endfacet
facet normal 0.0 -1.0 0.0
  outer loop
    vertex 30.0 5.0 0.20000000000000004
    vertex 1.5 5.0 0.0
    vertex 30.0 5.0 0.0
  endloop
endfacet
facet normal 0.0 -1.0 0.0
  outer loop
    vertex 1.5 5.0 0.0
    vertex 30.0 5.0 0.20000000000000004
    vertex 1.5 5.0 0.20000000000000004
  endloop
endfacet
facet normal 0.0 -1.0 0.0
  outer loop
    vertex 1.5 5.0 0.20000000000000004
    vertex 30.0 5.0 0.20000000000000004
    vertex 14.1 5.0 0.20000000000000004
  endloop
endfacet
facet normal 0.0 -1.0 0.0
  outer loop
    vertex 1.5 5.0 0.20000000000000004
    vertex 14.1 5.0 0.20000000000000004
    vertex 11.6 5.0 0.20000000000000004
  endloop
endfacet
facet normal 0.0 1.0 0.0
  outer loop
    vertex 11.6 20.0 0.4000000000000001
    vertex 12.1 20.0 0.20000000000000004
    vertex 11.6 20.0 0.20000000000000004
  endloop
endfacet
facet normal 0.0 1.0 0.0
  outer loop
    vertex 12.1 20.0 0.20000000000000004
    vertex 11.6 20.0 0.4000000000000001
    vertex 13.6 20.0 0.20000000000000004
  endloop
endfacet
facet normal 0.0 1.0 0.0
  outer loop
    vertex 13.6 20.0 0.20000000000000004
    vertex 11.6 20.0 0.4000000000000001
    vertex 14.1 20.0 0.20000000000000004
  endloop
endfacet
facet normal 0.0 1.0 0.0
  outer loop
    vertex 14.1 20.0 0.20000000000000004
    vertex 11.6 20.0 0.4000000000000001
    vertex 14.1 20.0 0.4000000000000001
  endloop
endfacet
facet normal 0.0 1.0 0.0
  outer loop
    vertex 14.1 20.0 0.4000000000000001
    vertex 11.6 20.0 0.4000000000000001
    vertex 12.1 20.0 0.4000000000000001
  endloop
endfacet
facet normal 0.0 1.0 0.0
  outer loop
    vertex 14.1 20.0 0.4000000000000001
    vertex 12.1 20.0 0.4000000000000001
    vertex 13.6 20.0 0.4000000000000001
  endloop
endfacet
facet normal 0.0 0.0 -1.0
  outer loop
    vertex 0.0 35.0 0.0
    vertex 1.5 33.50000000000001 0.0
    vertex 0.0 7.999999999999999 0.0
  endloop
endfacet
facet normal 0.0 0.0 -1.0
  outer loop
    vertex 1.5 33.50000000000001 0.0
    vertex 0.0 35.0 0.0
    vertex 30.0 35.0 0.0
  endloop
endfacet
facet normal 0.0 0.0 -1.0
  outer loop
    vertex 1.5 33.50000000000001 0.0
    vertex 30.0 35.0 0.0
    vertex 28.500000000000004 33.50000000000001 0.0
  endloop
endfacet
facet normal 0.0 0.0 -1.0
  outer loop
    vertex 28.500000000000004 33.50000000000001 0.0
    vertex 30.0 35.0 0.0
    vertex 28.500000000000004 6.499999999999999 0.0
  endloop
endfacet
facet normal 0.0 0.0 -1.0
  outer loop
    vertex 28.500000000000004 6.499999999999999 0.0
    vertex 0.0 5.0 0.0
    vertex 0.0 6.499999999999999 0.0
  endloop
endfacet
facet normal 0.0 0.0 -1.0
  outer loop
    vertex 0.0 5.0 0.0
    vertex 28.500000000000004 6.499999999999999 0.0
    vertex 1.5 5.0 0.0
  endloop
endfacet
facet normal 0.0 0.0 -1.0
  outer loop
    vertex 1.5 5.0 0.0
    vertex 28.500000000000004 6.499999999999999 0.0
    vertex 30.0 5.0 0.0
  endloop
endfacet
facet normal 0.0 0.0 -1.0
  outer loop
    vertex 30.0 5.0 0.0
    vertex 28.500000000000004 6.499999999999999 0.0
    vertex 30.0 35.0 0.0
  endloop
endfacet
facet normal 0.0 0.0 -1.0
  outer loop
    vertex 3.0 32.0 0.0
    vertex 4.5 30.5 0.0
    vertex 3.0 11.0 0.0
  endloop
endfacet
facet normal 0.0 0.0 -1.0
  outer loop
    vertex 4.5 30.5 0.0
    vertex 3.0 32.0 0.0
    vertex 27.0 32.0 0.0
  endloop
endfacet
facet normal 0.0 0.0 -1.0
  outer loop
    vertex 4.5 30.5 0.0
    vertex 27.0 32.0 0.0
    vertex 25.5 30.5 0.0
  endloop
endfacet
facet normal 0.0 0.0 -1.0
  outer loop
    vertex 25.5 30.5 0.0
    vertex 27.0 32.0 0.0
    vertex 25.5 9.5 0.0
  endloop
endfacet
facet normal 0.0 0.0 -1.0
  outer loop
    vertex 0.0 7.999999999999999 0.0
    vertex 1.5000000000000042 9.5 0.0
    vertex 27.0 7.999999999999999 0.0
  endloop
endfacet
facet normal 0.0 0.0 -1.0
  outer loop
    vertex 1.5000000000000042 9.5 0.0
    vertex 0.0 7.999999999999999 0.0
    vertex 1.5 33.50000000000001 0.0
  endloop
endfacet
facet normal 0.0 0.0 -1.0
  outer loop
    vertex 27.0 7.999999999999999 0.0
    vertex 1.5000000000000042 9.5 0.0
    vertex 25.5 9.5 0.0
  endloop
endfacet
facet normal 0.0 0.0 -1.0
  outer loop
    vertex 27.0 7.999999999999999 0.0
    vertex 25.5 9.5 0.0
    vertex 27.0 32.0 0.0
  endloop
endfacet
facet normal 0.0 0.0 -1.0
  outer loop
    vertex 6.1000000000000005 29.000000000000004 0.0
    vertex 7.6000000000000005 27.5 0.0
    vertex 6.1000000000000005 14.0 0.0
  endloop
endfacet
facet normal 0.0 0.0 -1.0
  outer loop
    vertex 7.6000000000000005 27.5 0.0
    vertex 6.1000000000000005 29.000000000000004 0.0
    vertex 24.1 29.000000000000004 0.0
  endloop
endfacet
facet normal 0.0 0.0 -1.0
  outer loop
    vertex 7.6000000000000005 27.5 0.0
    vertex 24.1 29.000000000000004 0.0
    vertex 22.6 27.5 0.0
  endloop
endfacet
facet normal 0.0 0.0 -1.0
  outer loop
    vertex 22.6 27.5 0.0
    vertex 24.1 29.000000000000004 0.0
    vertex 22.6 12.519145 0.0
  endloop
endfacet
facet normal 0.0 0.0 -1.0
  outer loop
    vertex 3.0 11.0 0.0
    vertex 4.500000000000002 12.519145 0.0
    vertex 24.1 11.0 0.0
  endloop
endfacet
facet normal 0.0 0.0 -1.0
  outer loop
    vertex 4.500000000000002 12.519145 0.0
    vertex 3.0 11.0 0.0
    vertex 4.5 30.5 0.0
  endloop
endfacet
facet normal 0.0 0.0 -1.0
  outer loop
    vertex 24.1 11.0 0.0
    vertex 4.500000000000002 12.519145 0.0
    vertex 22.6 12.519145 0.0
  endloop
endfacet
facet normal 0.0 0.0 -1.0
  outer loop
    vertex 24.1 11.0 0.0
    vertex 22.6 12.519145 0.0
    vertex 24.1 29.000000000000004 0.0
  endloop
endfacet
facet normal 0.0 0.0 -1.0
  outer loop
    vertex 9.1 26.000000000000004 0.0
    vertex 10.6 24.5 0.0
    vertex 9.1 17.0 0.0
  endloop
endfacet
facet normal 0.0 0.0 -1.0
  outer loop
    vertex 10.6 24.5 0.0
    vertex 9.1 26.000000000000004 0.0
    vertex 21.1 26.000000000000004 0.0
  endloop
endfacet
facet normal 0.0 0.0 -1.0
  outer loop
    vertex 10.6 24.5 0.0
    vertex 21.1 26.000000000000004 0.0
    vertex 19.600000000000005 24.5 0.0
  endloop
endfacet
facet normal 0.0 0.0 -1.0
  outer loop
    vertex 6.1000000000000005 14.0 0.0
    vertex 7.6000000000000005 15.5 0.0
    vertex 21.1 14.0 0.0
  endloop
endfacet
facet normal 0.0 0.0 -1.0
  outer loop
    vertex 7.6000000000000005 15.5 0.0
    vertex 6.1000000000000005 14.0 0.0
    vertex 7.6000000000000005 27.5 0.0
  endloop
endfacet
facet normal 0.0 0.0 -1.0
  outer loop
    vertex 21.1 14.0 0.0
    vertex 7.6000000000000005 15.5 0.0
    vertex 19.6 15.5 0.0
  endloop
endfacet
facet normal 0.0 0.0 -1.0
  outer loop
    vertex 21.1 14.0 0.0
    vertex 19.6 15.5 0.0
    vertex 19.600000000000005 24.5 0.0
  endloop
endfacet
facet normal 0.0 0.0 -1.0
  outer loop
    vertex 21.1 14.0 0.0
    vertex 19.600000000000005 24.5 0.0
    vertex 21.1 26.000000000000004 0.0
  endloop
endfacet
facet normal 0.0 0.0 -1.0
  outer loop
    vertex 12.1 23.0 0.0
    vertex 13.6 21.5 0.0
    vertex 12.1 20.0 0.0
  endloop
endfacet
facet normal 0.0 0.0 -1.0
  outer loop
    vertex 13.6 21.5 0.0
    vertex 12.1 23.0 0.0
    vertex 18.1 23.0 0.0
  endloop
endfacet
facet normal 0.0 0.0 -1.0
  outer loop
    vertex 13.6 21.5 0.0
    vertex 18.1 23.0 0.0
    vertex 16.6 21.5 0.0
  endloop
endfacet
facet normal 0.0 0.0 -1.0
  outer loop
    vertex 16.6 21.5 0.0
    vertex 18.1 23.0 0.0
    vertex 16.6 18.5 0.0
  endloop
endfacet
facet normal 0.0 0.0 -1.0
  outer loop
    vertex 9.1 17.0 0.0
    vertex 10.6 18.5 0.0
    vertex 18.1 17.0 0.0
  endloop
endfacet
facet normal 0.0 0.0 -1.0
  outer loop
    vertex 10.6 18.5 0.0
    vertex 9.1 17.0 0.0
    vertex 10.6 24.5 0.0
  endloop
endfacet
facet normal 0.0 0.0 -1.0
  outer loop
    vertex 18.1 17.0 0.0
    vertex 10.6 18.5 0.0
    vertex 16.6 18.5 0.0
  endloop
endfacet
facet normal 0.0 0.0 -1.0
  outer loop
    vertex 18.1 17.0 0.0
    vertex 16.6 18.5 0.0
    vertex 18.1 23.0 0.0
  endloop
endfacet
facet normal 0.0 0.0 -1.0
  outer loop
    vertex 13.6 20.0 0.0
    vertex 12.1 20.0 0.0
    vertex 13.6 21.5 0.0
  endloop
endfacet
facet normal 0.0 0.0 1.0
  outer loop
    vertex 6.1000000000000005 14.0 0.20000000000000004
    vertex 7.6000000000000005 15.5 0.20000000000000004
    vertex 6.1000000000000005 29.000000000000004 0.20000000000000004
  endloop
endfacet
facet normal 0.0 0.0 1.0
  outer loop
    vertex 7.6000000000000005 15.5 0.20000000000000004
    vertex 6.1000000000000005 14.0 0.20000000000000004
    vertex 11.599999999999998 14.0 0.20000000000000004
  endloop
endfacet
facet normal 0.0 0.0 1.0
  outer loop
    vertex 7.6000000000000005 15.5 0.20000000000000004
    vertex 11.599999999999998 14.0 0.20000000000000004
    vertex 11.6 15.5 0.20000000000000004
  endloop
endfacet
facet normal 0.0 0.0 1.0
  outer loop
    vertex 14.100000000000003 11.0 0.20000000000000004
    vertex 22.6 12.519145 0.20000000000000004
    vertex 14.1 12.519145 0.20000000000000004
  endloop
endfacet
facet normal 0.0 0.0 1.0
  outer loop
    vertex 22.6 12.519145 0.20000000000000004
    vertex 14.100000000000003 11.0 0.20000000000000004
    vertex 24.1 11.0 0.20000000000000004
  endloop
endfacet
facet normal 0.0 0.0 1.0
  outer loop
    vertex 22.6 12.519145 0.20000000000000004
    vertex 24.1 11.0 0.20000000000000004
    vertex 22.6 27.5 0.20000000000000004
  endloop
endfacet
facet normal 0.0 0.0 1.0
  outer loop
    vertex 6.1000000000000005 29.000000000000004 0.20000000000000004
    vertex 7.6000000000000005 27.5 0.20000000000000004
    vertex 24.1 29.000000000000004 0.20000000000000004
  endloop
endfacet
facet normal 0.0 0.0 1.0
  outer loop
    vertex 7.6000000000000005 27.5 0.20000000000000004
    vertex 6.1000000000000005 29.000000000000004 0.20000000000000004
    vertex 7.6000000000000005 15.5 0.20000000000000004
  endloop
endfacet
facet normal 0.0 0.0 1.0
  outer loop
    vertex 24.1 29.000000000000004 0.20000000000000004
    vertex 7.6000000000000005 27.5 0.20000000000000004
    vertex 22.6 27.5 0.20000000000000004
  endloop
endfacet
facet normal 0.0 0.0 1.0
  outer loop
    vertex 24.1 29.000000000000004 0.20000000000000004
    vertex 22.6 27.5 0.20000000000000004
    vertex 24.1 11.0 0.20000000000000004
  endloop
endfacet
facet normal -1.0 0.0 0.0
  outer loop
    vertex 0.0 5.0 0.20000000000000004
    vertex 0.0 0.0 0.0
    vertex 0.0 0.0 0.20000000000000004
  endloop
endfacet
facet normal -1.0 0.0 0.0
  outer loop
    vertex 0.0 0.0 0.0
    vertex 0.0 5.0 0.20000000000000004
    vertex 0.0 5.0 0.0
  endloop
endfacet
facet normal 0.0 1.0 0.0
  outer loop
    vertex 6.1000000000000005 29.000000000000004 0.20000000000000004
    vertex 24.1 29.000000000000004 0.0
    vertex 6.1000000000000005 29.000000000000004 0.0
  endloop
endfacet
facet normal 0.0 1.0 0.0
  outer loop
    vertex 24.1 29.000000000000004 0.0
    vertex 6.1000000000000005 29.000000000000004 0.20000000000000004
    vertex 24.1 29.000000000000004 0.20000000000000004
  endloop
endfacet
facet normal 0.0 1.0 0.0
  outer loop
    vertex 3.0 32.0 0.20000000000000004
    vertex 27.0 32.0 0.0
    vertex 3.0 32.0 0.0
  endloop
endfacet
facet normal 0.0 1.0 0.0
  outer loop
    vertex 27.0 32.0 0.0
    vertex 3.0 32.0 0.20000000000000004
    vertex 27.0 32.0 0.20000000000000004
  endloop
endfacet
facet normal 0.0 1.0 0.0
  outer loop
    vertex 9.1 26.000000000000004 0.20000000000000004
    vertex 21.1 26.000000000000004 0.0
    vertex 9.1 26.000000000000004 0.0
  endloop
endfacet
facet normal 0.0 1.0 0.0
  outer loop
    vertex 21.1 26.000000000000004 0.0
    vertex 9.1 26.000000000000004 0.20000000000000004
    vertex 21.1 26.000000000000004 0.20000000000000004
  endloop
endfacet
facet normal -1.0 0.0 0.0
  outer loop
    vertex 9.1 26.000000000000004 0.20000000000000004
    vertex 9.1 17.0 0.0
    vertex 9.1 17.0 0.20000000000000004
  endloop
endfacet
facet normal -1.0 0.0 0.0
  outer loop
    vertex 9.1 17.0 0.0
    vertex 9.1 26.000000000000004 0.20000000000000004
    vertex 9.1 26.000000000000004 0.0
  endloop
endfacet
facet normal 1.0 1.7624790515924357e-16 0.0
  outer loop
    vertex 1.5 33.50000000000001 0.0
    vertex 1.5000000000000042 9.5 0.20000000000000004
    vertex 1.5000000000000042 9.5 0.0
  endloop
endfacet
facet normal 1.0 1.7624790515924357e-16 0.0
  outer loop
    vertex 1.5000000000000042 9.5 0.20000000000000004
    vertex 1.5 33.50000000000001 0.0
    vertex 1.5 33.50000000000001 0.20000000000000004
  endloop
endfacet
facet normal 1.0 0.0 0.0
  outer loop
    vertex 27.0 32.0 0.0
    vertex 27.0 7.999999999999999 0.20000000000000004
    vertex 27.0 7.999999999999999 0.0
  endloop
endfacet
facet normal 1.0 0.0 0.0
  outer loop
    vertex 27.0 7.999999999999999 0.20000000000000004
    vertex 27.0 32.0 0.0
    vertex 27.0 32.0 0.20000000000000004
  endloop
endfacet
facet normal 1.0 0.0 0.0
  outer loop
    vertex 30.0 35.0 0.0
    vertex 30.0 5.0 0.20000000000000004
    vertex 30.0 5.0 0.0
  endloop
endfacet
facet normal 1.0 0.0 0.0
  outer loop
    vertex 30.0 5.0 0.20000000000000004
    vertex 30.0 35.0 0.0
    vertex 30.0 35.0 0.20000000000000004
  endloop
endfacet
facet normal 0.0 1.0 0.0
  outer loop
    vertex 12.1 23.0 0.20000000000000004
    vertex 18.1 23.0 0.0
    vertex 12.1 23.0 0.0
  endloop
endfacet
facet normal 0.0 1.0 0.0
  outer loop
    vertex 18.1 23.0 0.0
    vertex 12.1 23.0 0.20000000000000004
    vertex 18.1 23.0 0.20000000000000004
  endloop
endfacet
facet normal -1.0 0.0 0.0
  outer loop
    vertex 28.500000000000004 33.50000000000001 0.20000000000000004
    vertex 28.500000000000004 6.499999999999999 0.0
    vertex 28.500000000000004 6.499999999999999 0.20000000000000004
  endloop
endfacet
facet normal -1.0 0.0 0.0
  outer loop
    vertex 28.500000000000004 6.499999999999999 0.0
    vertex 28.500000000000004 33.50000000000001 0.20000000000000004
    vertex 28.500000000000004 33.50000000000001 0.0
  endloop
endfacet
facet normal -1.0 0.0 0.0
  outer loop
    vertex 0.0 6.499999999999999 0.20000000000000004
    vertex 0.0 5.0 0.0
    vertex 0.0 5.0 0.20000000000000004
  endloop
endfacet
facet normal -1.0 0.0 0.0
  outer loop
    vertex 0.0 5.0 0.0
    vertex 0.0 6.499999999999999 0.20000000000000004
    vertex 0.0 6.499999999999999 0.0
  endloop
endfacet
facet normal 1.0 0.0 0.0
  outer loop
    vertex 24.1 29.000000000000004 0.0
    vertex 24.1 11.0 0.20000000000000004
    vertex 24.1 11.0 0.0
  endloop
endfacet
facet normal 1.0 0.0 0.0
  outer loop
    vertex 24.1 11.0 0.20000000000000004
    vertex 24.1 29.000000000000004 0.0
    vertex 24.1 29.000000000000004 0.20000000000000004
  endloop
endfacet
facet normal -1.0 0.0 0.0
  outer loop
    vertex 6.1000000000000005 29.000000000000004 0.20000000000000004
    vertex 6.1000000000000005 14.0 0.0
    vertex 6.1000000000000005 14.0 0.20000000000000004
  endloop
endfacet
facet normal -1.0 0.0 0.0
  outer loop
    vertex 6.1000000000000005 14.0 0.0
    vertex 6.1000000000000005 29.000000000000004 0.20000000000000004
    vertex 6.1000000000000005 29.000000000000004 0.0
  endloop
endfacet
facet normal -0.0 -1.0 -0.0
  outer loop
    vertex 28.500000000000004 33.50000000000001 0.20000000000000004
    vertex 1.5 33.50000000000001 0.0
    vertex 28.500000000000004 33.50000000000001 0.0
  endloop
endfacet
facet normal -0.0 -1.0 -0.0
  outer loop
    vertex 1.5 33.50000000000001 0.0
    vertex 28.500000000000004 33.50000000000001 0.20000000000000004
    vertex 1.5 33.50000000000001 0.20000000000000004
  endloop
endfacet
facet normal 1.0 0.0 0.0
  outer loop
    vertex 21.1 26.000000000000004 0.0
    vertex 21.1 14.0 0.20000000000000004
    vertex 21.1 14.0 0.0
  endloop
endfacet
facet normal 1.0 0.0 0.0
  outer loop
    vertex 21.1 14.0 0.20000000000000004
    vertex 21.1 26.000000000000004 0.0
    vertex 21.1 26.000000000000004 0.20000000000000004
  endloop
endfacet
facet normal 0.0 1.0 0.0
  outer loop
    vertex 0.0 35.0 0.20000000000000004
    vertex 30.0 35.0 0.0
    vertex 0.0 35.0 0.0
  endloop
endfacet
facet normal 0.0 1.0 0.0
  outer loop
    vertex 30.0 35.0 0.0
    vertex 0.0 35.0 0.20000000000000004
    vertex 30.0 35.0 0.20000000000000004
  endloop
endfacet
facet normal -1.0 0.0 0.0
  outer loop
    vertex 25.5 30.5 0.20000000000000004
    vertex 25.5 9.5 0.0
    vertex 25.5 9.5 0.20000000000000004
  endloop
endfacet
facet normal -1.0 0.0 0.0
  outer loop
    vertex 25.5 9.5 0.0
    vertex 25.5 30.5 0.20000000000000004
    vertex 25.5 30.5 0.0
  endloop
endfacet
facet normal -1.0 0.0 0.0
  outer loop
    vertex 3.0 32.0 0.20000000000000004
    vertex 3.0 11.0 0.0
    vertex 3.0 11.0 0.20000000000000004
  endloop
endfacet
facet normal -1.0 0.0 0.0
  outer loop
    vertex 3.0 11.0 0.0
    vertex 3.0 32.0 0.20000000000000004
    vertex 3.0 32.0 0.0
  endloop
endfacet
facet normal 0.0 -1.0 0.0
  outer loop
    vertex 18.1 17.0 0.20000000000000004
    vertex 9.1 17.0 0.0
    vertex 18.1 17.0 0.0
  endloop
endfacet
facet normal 0.0 -1.0 0.0
  outer loop
    vertex 9.1 17.0 0.0
    vertex 18.1 17.0 0.20000000000000004
    vertex 9.1 17.0 0.20000000000000004
  endloop
endfacet
facet normal 0.0 -1.0 0.0
  outer loop
    vertex 9.1 17.0 0.20000000000000004
    vertex 18.1 17.0 0.20000000000000004
    vertex 14.1 17.0 0.20000000000000004
  endloop
endfacet
facet normal 0.0 -1.0 0.0
  outer loop
    vertex 9.1 17.0 0.20000000000000004
    vertex 14.1 17.0 0.20000000000000004
    vertex 11.6 17.0 0.20000000000000004
  endloop
endfacet
endsolid Speaker
