solid Speaker
facet normal 0.0 0.0 -1.0
  outer loop
    vertex 13.599999999999998 21.50000000000001 0.4000000000000001
    vertex 12.100000000000007 20.000000000000007 0.4000000000000001
    vertex 12.100000000000007 21.50000000000001 0.4000000000000001
  endloop
endfacet
facet normal 0.0 0.0 -1.0
  outer loop
    vertex 12.100000000000007 20.000000000000007 0.4000000000000001
    vertex 13.599999999999998 21.50000000000001 0.4000000000000001
    vertex 13.599999999999998 20.000000000000007 0.4000000000000001
  endloop
endfacet
facet normal -1.0 0.0 0.0
  outer loop
    vertex 0.0 6.499999999999999 0.20000000000000004
    vertex 0.0 0.0 0.0
    vertex 0.0 0.0 0.20000000000000004
  endloop
endfacet
facet normal -1.0 0.0 0.0
  outer loop
    vertex 0.0 0.0 0.0
    vertex 0.0 6.499999999999999 0.20000000000000004
    vertex 0.0 6.499999999999999 0.0
  endloop
endfacet
facet normal 0.0 0.0 -1.0
  outer loop
    vertex 0.0 35.00000000000001 0.0
    vertex 1.5 33.500000000000014 0.0
    vertex 0.0 7.999999999999999 0.0
  endloop
endfacet
facet normal 0.0 0.0 -1.0
  outer loop
    vertex 1.5 33.500000000000014 0.0
    vertex 0.0 35.00000000000001 0.0
    vertex 30.0 35.00000000000001 0.0
  endloop
endfacet
facet normal 0.0 0.0 -1.0
  outer loop
    vertex 1.5 33.500000000000014 0.0
    vertex 30.0 35.00000000000001 0.0
    vertex 28.500000000000004 33.500000000000014 0.0
  endloop
endfacet
facet normal 0.0 0.0 -1.0
  outer loop
    vertex 28.500000000000004 33.500000000000014 0.0
    vertex 30.0 35.00000000000001 0.0
    vertex 28.500000000000004 6.499999999999999 0.0
  endloop
endfacet
facet normal 0.0 0.0 -1.0
  outer loop
    vertex 0.0 6.499999999999999 0.0
    vertex 1.5 5.0 0.0
    vertex 0.0 0.0 0.0
  endloop
endfacet
facet normal 0.0 0.0 -1.0
  outer loop
    vertex 1.5 5.0 0.0
    vertex 0.0 6.499999999999999 0.0
    vertex 28.500000000000004 6.499999999999999 0.0
  endloop
endfacet
facet normal 0.0 0.0 -1.0
  outer loop
    vertex 1.5 5.0 0.0
    vertex 28.500000000000004 6.499999999999999 0.0
    vertex 30.0 5.000000000000002 0.0
  endloop
endfacet
facet normal 0.0 0.0 -1.0
  outer loop
    vertex 30.0 5.000000000000002 0.0
    vertex 28.500000000000004 6.499999999999999 0.0
    vertex 30.0 35.00000000000001 0.0
  endloop
endfacet
facet normal 0.0 0.0 -1.0
  outer loop
    vertex 3.0 32.000000000000014 0.0
    vertex 4.5 30.500000000000007 0.0
    vertex 3.0 11.0 0.0
  endloop
endfacet
facet normal 0.0 0.0 -1.0
  outer loop
    vertex 4.5 30.500000000000007 0.0
    vertex 3.0 32.000000000000014 0.0
    vertex 26.999999999999996 32.000000000000014 0.0
  endloop
endfacet
facet normal 0.0 0.0 -1.0
  outer loop
    vertex 4.5 30.500000000000007 0.0
    vertex 26.999999999999996 32.000000000000014 0.0
    vertex 25.5 30.500000000000007 0.0
  endloop
endfacet
facet normal 0.0 0.0 -1.0
  outer loop
    vertex 25.5 30.500000000000007 0.0
    vertex 26.999999999999996 32.000000000000014 0.0
    vertex 25.5 9.5 0.0
  endloop
endfacet
facet normal 0.0 0.0 -1.0
  outer loop
    vertex 0.0 7.999999999999999 0.0
    vertex 1.5000000000000058 9.5 0.0
    vertex 26.999999999999996 7.999999999999999 0.0
  endloop
endfacet
facet normal 0.0 0.0 -1.0
  outer loop
    vertex 1.5000000000000058 9.5 0.0
    vertex 0.0 7.999999999999999 0.0
    vertex 1.5 33.500000000000014 0.0
  endloop
endfacet
facet normal 0.0 0.0 -1.0
  outer loop
    vertex 26.999999999999996 7.999999999999999 0.0
    vertex 1.5000000000000058 9.5 0.0
    vertex 25.5 9.5 0.0
  endloop
endfacet
facet normal 0.0 0.0 -1.0
  outer loop
    vertex 26.999999999999996 7.999999999999999 0.0
    vertex 25.5 9.5 0.0
    vertex 26.999999999999996 32.000000000000014 0.0
  endloop
endfacet
facet normal 0.0 0.0 -1.0
  outer loop
    vertex 6.100000000000004 29.00000000000001 0.0
    vertex 7.600000000000003 27.50000000000001 0.0
    vertex 6.100000000000004 14.000000000000009 0.0
  endloop
endfacet
facet normal 0.0 0.0 -1.0
  outer loop
    vertex 7.600000000000003 27.50000000000001 0.0
    vertex 6.100000000000004 29.00000000000001 0.0
    vertex 24.099999999999994 29.00000000000001 0.0
  endloop
endfacet
facet normal 0.0 0.0 -1.0
  outer loop
    vertex 7.600000000000003 27.50000000000001 0.0
    vertex 24.099999999999994 29.00000000000001 0.0
    vertex 22.599999999999998 27.50000000000001 0.0
  endloop
endfacet
facet normal 0.0 0.0 -1.0
  outer loop
    vertex 22.599999999999998 27.50000000000001 0.0
    vertex 24.099999999999994 29.00000000000001 0.0
    vertex 22.599999999999998 12.519145000000002 0.0
  endloop
endfacet
facet normal 0.0 0.0 -1.0
  outer loop
    vertex 3.0 11.0 0.0
    vertex 4.5 12.519145000000002 0.0
    vertex 24.099999999999994 11.0 0.0
  endloop
endfacet
facet normal 0.0 0.0 -1.0
  outer loop
    vertex 4.5 12.519145000000002 0.0
    vertex 3.0 11.0 0.0
    vertex 4.5 30.500000000000007 0.0
  endloop
endfacet
facet normal 0.0 0.0 -1.0
  outer loop
    vertex 24.099999999999994 11.0 0.0
    vertex 4.5 12.519145000000002 0.0
    vertex 22.599999999999998 12.519145000000002 0.0
  endloop
endfacet
facet normal 0.0 0.0 -1.0
  outer loop
    vertex 24.099999999999994 11.0 0.0
    vertex 22.599999999999998 12.519145000000002 0.0
    vertex 24.099999999999994 29.00000000000001 0.0
  endloop
endfacet
facet normal 0.0 0.0 -1.0
  outer loop
    vertex 9.100000000000007 26.000000000000007 0.0
    vertex 10.600000000000003 24.50000000000001 0.0
    vertex 9.100000000000007 17.000000000000007 0.0
  endloop
endfacet
facet normal 0.0 0.0 -1.0
  outer loop
    vertex 10.600000000000003 24.50000000000001 0.0
    vertex 9.100000000000007 26.000000000000007 0.0
    vertex 21.099999999999984 26.000000000000007 0.0
  endloop
endfacet
facet normal 0.0 0.0 -1.0
  outer loop
    vertex 10.600000000000003 24.50000000000001 0.0
    vertex 21.099999999999984 26.000000000000007 0.0
    vertex 19.599999999999987 24.50000000000001 0.0
  endloop
endfacet
facet normal 0.0 0.0 -1.0
  outer loop
    vertex 19.599999999999987 24.50000000000001 0.0
    vertex 21.099999999999984 26.000000000000007 0.0
    vertex 19.599999999999987 15.50000000000001 0.0
  endloop
endfacet
facet normal 0.0 0.0 -1.0
  outer loop
    vertex 6.100000000000004 14.000000000000009 0.0
    vertex 7.600000000000003 15.50000000000001 0.0
    vertex 21.099999999999984 14.000000000000009 0.0
  endloop
endfacet
facet normal 0.0 0.0 -1.0
  outer loop
    vertex 7.600000000000003 15.50000000000001 0.0
    vertex 6.100000000000004 14.000000000000009 0.0
    vertex 7.600000000000003 27.50000000000001 0.0
  endloop
endfacet
facet normal 0.0 0.0 -1.0
  outer loop
    vertex 21.099999999999984 14.000000000000009 0.0
    vertex 7.600000000000003 15.50000000000001 0.0
    vertex 19.599999999999987 15.50000000000001 0.0
  endloop
endfacet
facet normal 0.0 0.0 -1.0
  outer loop
    vertex 21.099999999999984 14.000000000000009 0.0
    vertex 19.599999999999987 15.50000000000001 0.0
    vertex 21.099999999999984 26.000000000000007 0.0
  endloop
endfacet
facet normal 0.0 0.0 -1.0
  outer loop
    vertex 12.100000000000007 23.000000000000007 0.0
    vertex 13.599999999999998 21.50000000000001 0.0
    vertex 12.100000000000007 20.000000000000007 0.0
  endloop
endfacet
facet normal 0.0 0.0 -1.0
  outer loop
    vertex 13.599999999999998 21.50000000000001 0.0
    vertex 12.100000000000007 23.000000000000007 0.0
    vertex 18.09999999999999 23.000000000000007 0.0
  endloop
endfacet
facet normal 0.0 0.0 -1.0
  outer loop
    vertex 13.599999999999998 21.50000000000001 0.0
    vertex 18.09999999999999 23.000000000000007 0.0
    vertex 16.599999999999998 21.50000000000001 0.0
  endloop
endfacet
facet normal 0.0 0.0 -1.0
  outer loop
    vertex 16.599999999999998 21.50000000000001 0.0
    vertex 18.09999999999999 23.000000000000007 0.0
    vertex 16.599999999999998 18.50000000000001 0.0
  endloop
endfacet
facet normal 0.0 0.0 -1.0
  outer loop
    vertex 9.100000000000007 17.000000000000007 0.0
    vertex 10.600000000000003 18.50000000000001 0.0
    vertex 18.09999999999999 17.000000000000007 0.0
  endloop
endfacet
facet normal 0.0 0.0 -1.0
  outer loop
    vertex 10.600000000000003 18.50000000000001 0.0
    vertex 9.100000000000007 17.000000000000007 0.0
    vertex 10.600000000000003 24.50000000000001 0.0
  endloop
endfacet
facet normal 0.0 0.0 -1.0
  outer loop
    vertex 18.09999999999999 17.000000000000007 0.0
    vertex 10.600000000000003 18.50000000000001 0.0
    vertex 16.599999999999998 18.50000000000001 0.0
  endloop
endfacet
facet normal 0.0 0.0 -1.0
  outer loop
    vertex 18.09999999999999 17.000000000000007 0.0
    vertex 16.599999999999998 18.50000000000001 0.0
    vertex 18.09999999999999 23.000000000000007 0.0
  endloop
endfacet
facet normal 0.0 0.0 -1.0
  outer loop
    vertex 13.599999999999998 20.000000000000007 0.0
    vertex 12.100000000000007 20.000000000000007 0.0
    vertex 13.599999999999998 21.50000000000001 0.0
  endloop
endfacet
facet normal 0.0 0.0 -1.0
  outer loop
    vertex 1.5 0.0 0.0
    vertex 0.0 0.0 0.0
    vertex 1.5 5.0 0.0
  endloop
endfacet
facet normal -0.0 1.0 -0.0
  outer loop
    vertex 12.100000000000007 21.50000000000001 0.6000000000000001
    vertex 13.599999999999998 21.50000000000001 0.4000000000000001
    vertex 12.100000000000007 21.50000000000001 0.4000000000000001
  endloop
endfacet
facet normal -0.0 1.0 -0.0
  outer loop
    vertex 13.599999999999998 21.50000000000001 0.4000000000000001
    vertex 12.100000000000007 21.50000000000001 0.6000000000000001
    vertex 13.599999999999998 21.50000000000001 0.6000000000000001
  endloop
endfacet
facet normal -0.0 -0.0 1.0
  outer loop
    vertex 13.599999999999998 3.000000000000001 0.4000000000000001
    vertex 12.100000000000007 20.000000000000007 0.4000000000000001
    vertex 12.100000000000007 3.000000000000002 0.4000000000000001
  endloop
endfacet
facet normal -0.0 -0.0 1.0
  outer loop
    vertex 12.100000000000007 20.000000000000007 0.4000000000000001
    vertex 13.599999999999998 3.000000000000001 0.4000000000000001
    vertex 13.599999999999998 20.000000000000007 0.4000000000000001
  endloop
endfacet
facet normal 0.0 -1.0 0.0
  outer loop
    vertex 13.599999999999998 7.049916206369744e-16 0.6000000000000001
    vertex 12.100000000000007 7.049916206369744e-16 0.4000000000000001
    vertex 13.599999999999998 7.049916206369744e-16 0.4000000000000001
  endloop
endfacet
facet normal 0.0 -1.0 0.0
  outer loop
    vertex 12.100000000000007 7.049916206369744e-16 0.4000000000000001
    vertex 13.599999999999998 7.049916206369744e-16 0.6000000000000001
    vertex 12.100000000000007 7.049916206369744e-16 0.6000000000000001
  endloop
endfacet
facet normal 1.0 -0.0 -0.0
  outer loop
    vertex 1.5 5.0 0.0
    vertex 1.5 0.0 0.20000000000000004
    vertex 1.5 0.0 0.0
  endloop
endfacet
facet normal 1.0 -0.0 -0.0
  outer loop
    vertex 1.5 0.0 0.20000000000000004
    vertex 1.5 5.0 0.0
    vertex 1.5 5.0 0.20000000000000004
  endloop
endfacet
facet normal 0.0 0.0 -1.0
  outer loop
    vertex 14.099999999999996 17.000000000000007 0.20000000000000004
    vertex 11.600000000000003 15.50000000000001 0.20000000000000004
    vertex 11.600000000000003 17.000000000000007 0.20000000000000004
  endloop
endfacet
facet normal 0.0 0.0 -1.0
  outer loop
    vertex 11.600000000000003 15.50000000000001 0.20000000000000004
    vertex 14.099999999999996 17.000000000000007 0.20000000000000004
    vertex 14.099999999999996 15.50000000000001 0.20000000000000004
  endloop
endfacet
facet normal -0.0 -0.0 1.0
  outer loop
    vertex 12.100000000000007 3.000000000000002 0.4000000000000001
    vertex 11.600000000000003 20.000000000000007 0.4000000000000001
    vertex 11.600000000000003 3.000000000000001 0.4000000000000001
  endloop
endfacet
facet normal -0.0 -0.0 1.0
  outer loop
    vertex 11.600000000000003 20.000000000000007 0.4000000000000001
    vertex 12.100000000000007 3.000000000000002 0.4000000000000001
    vertex 12.100000000000007 20.000000000000007 0.4000000000000001
  endloop
endfacet
facet normal 0.0 -1.0 0.0
  outer loop
    vertex 1.5 0.0 0.20000000000000004
    vertex 0.0 0.0 0.0
    vertex 1.5 0.0 0.0
  endloop
endfacet
facet normal 0.0 -1.0 0.0
  outer loop
    vertex 0.0 0.0 0.0
    vertex 1.5 0.0 0.20000000000000004
    vertex 0.0 0.0 0.20000000000000004
  endloop
endfacet
facet normal -1.0 0.0 0.0
  outer loop
    vertex 12.100000000000007 21.50000000000001 0.6000000000000001
    vertex 12.100000000000007 7.049916206369744e-16 0.4000000000000001
    vertex 12.100000000000007 7.049916206369744e-16 0.6000000000000001
  endloop
endfacet
facet normal -1.0 0.0 0.0
  outer loop
    vertex 12.100000000000007 7.049916206369744e-16 0.4000000000000001
    vertex 12.100000000000007 21.50000000000001 0.6000000000000001
    vertex 12.100000000000007 3.000000000000002 0.4000000000000001
  endloop
endfacet
facet normal -1.0 0.0 0.0
  outer loop
    vertex 12.100000000000007 3.000000000000002 0.4000000000000001
    vertex 12.100000000000007 21.50000000000001 0.6000000000000001
    vertex 12.100000000000007 20.000000000000007 0.4000000000000001
  endloop
endfacet
facet normal -1.0 0.0 0.0
  outer loop
    vertex 12.100000000000007 20.000000000000007 0.4000000000000001
    vertex 12.100000000000007 21.50000000000001 0.6000000000000001
    vertex 12.100000000000007 21.50000000000001 0.4000000000000001
  endloop
endfacet
facet normal -0.0 -0.0 1.0
  outer loop
    vertex 14.099999999999996 3.000000000000001 0.4000000000000001
    vertex 13.599999999999998 20.000000000000007 0.4000000000000001
    vertex 13.599999999999998 3.000000000000001 0.4000000000000001
  endloop
endfacet
facet normal -0.0 -0.0 1.0
  outer loop
    vertex 13.599999999999998 20.000000000000007 0.4000000000000001
    vertex 14.099999999999996 3.000000000000001 0.4000000000000001
    vertex 14.099999999999996 20.000000000000007 0.4000000000000001
  endloop
endfacet
facet normal -0.0 -0.0 1.0
  outer loop
    vertex 6.100000000000004 14.000000000000009 0.20000000000000004
    vertex 7.600000000000003 15.50000000000001 0.20000000000000004
    vertex 6.100000000000004 29.00000000000001 0.20000000000000004
  endloop
endfacet
facet normal -0.0 -0.0 1.0
  outer loop
    vertex 7.600000000000003 15.50000000000001 0.20000000000000004
    vertex 6.100000000000004 14.000000000000009 0.20000000000000004
    vertex 11.600000000000003 14.000000000000009 0.20000000000000004
  endloop
endfacet
facet normal -0.0 -0.0 1.0
  outer loop
    vertex 7.600000000000003 15.50000000000001 0.20000000000000004
    vertex 11.600000000000003 14.000000000000009 0.20000000000000004
    vertex 11.600000000000003 15.50000000000001 0.20000000000000004
  endloop
endfacet
facet normal -0.0 -0.0 1.0
  outer loop
    vertex 24.099999999999994 11.0 0.20000000000000004
    vertex 14.099999999999996 12.519145000000002 0.20000000000000004
    vertex 14.099999999999996 11.0 0.20000000000000004
  endloop
endfacet
facet normal -0.0 -0.0 1.0
  outer loop
    vertex 14.099999999999996 12.519145000000002 0.20000000000000004
    vertex 24.099999999999994 11.0 0.20000000000000004
    vertex 22.599999999999998 12.519145000000002 0.20000000000000004
  endloop
endfacet
facet normal -0.0 -0.0 1.0
  outer loop
    vertex 22.599999999999998 12.519145000000002 0.20000000000000004
    vertex 24.099999999999994 11.0 0.20000000000000004
    vertex 22.599999999999998 27.50000000000001 0.20000000000000004
  endloop
endfacet
facet normal -0.0 -0.0 1.0
  outer loop
    vertex 6.100000000000004 29.00000000000001 0.20000000000000004
    vertex 7.600000000000003 27.50000000000001 0.20000000000000004
    vertex 24.099999999999994 29.00000000000001 0.20000000000000004
  endloop
endfacet
facet normal -0.0 -0.0 1.0
  outer loop
    vertex 7.600000000000003 27.50000000000001 0.20000000000000004
    vertex 6.100000000000004 29.00000000000001 0.20000000000000004
    vertex 7.600000000000003 15.50000000000001 0.20000000000000004
  endloop
endfacet
facet normal -0.0 -0.0 1.0
  outer loop
    vertex 24.099999999999994 29.00000000000001 0.20000000000000004
    vertex 7.600000000000003 27.50000000000001 0.20000000000000004
    vertex 22.599999999999998 27.50000000000001 0.20000000000000004
  endloop
endfacet
facet normal -0.0 -0.0 1.0
  outer loop
    vertex 24.099999999999994 29.00000000000001 0.20000000000000004
    vertex 22.599999999999998 27.50000000000001 0.20000000000000004
    vertex 24.099999999999994 11.0 0.20000000000000004
  endloop
endfacet
facet normal -0.0 1.0 -0.0
  outer loop
    vertex 9.100000000000007 26.000000000000007 0.20000000000000004
    vertex 21.099999999999984 26.000000000000007 0.0
    vertex 9.100000000000007 26.000000000000007 0.0
  endloop
endfacet
facet normal -0.0 1.0 -0.0
  outer loop
    vertex 21.099999999999984 26.000000000000007 0.0
    vertex 9.100000000000007 26.000000000000007 0.20000000000000004
    vertex 21.099999999999984 26.000000000000007 0.20000000000000004
  endloop
endfacet
facet normal -0.0 1.0 -0.0
  outer loop
    vertex 3.0 32.000000000000014 0.20000000000000004
    vertex 26.999999999999996 32.000000000000014 0.0
    vertex 3.0 32.000000000000014 0.0
  endloop
endfacet
facet normal -0.0 1.0 -0.0
  outer loop
    vertex 26.999999999999996 32.000000000000014 0.0
    vertex 3.0 32.000000000000014 0.20000000000000004
    vertex 26.999999999999996 32.000000000000014 0.20000000000000004
  endloop
endfacet
facet normal -0.0 1.0 -0.0
  outer loop
    vertex 6.100000000000004 29.00000000000001 0.20000000000000004
    vertex 24.099999999999994 29.00000000000001 0.0
    vertex 6.100000000000004 29.00000000000001 0.0
  endloop
endfacet
facet normal -0.0 1.0 -0.0
  outer loop
    vertex 24.099999999999994 29.00000000000001 0.0
    vertex 6.100000000000004 29.00000000000001 0.20000000000000004
    vertex 24.099999999999994 29.00000000000001 0.20000000000000004
  endloop
endfacet
facet normal 1.0 -0.0 -0.0
  outer loop
    vertex 26.999999999999996 32.000000000000014 0.0
    vertex 26.999999999999996 7.999999999999999 0.20000000000000004
    vertex 26.999999999999996 7.999999999999999 0.0
  endloop
endfacet
facet normal 1.0 -0.0 -0.0
  outer loop
    vertex 26.999999999999996 7.999999999999999 0.20000000000000004
    vertex 26.999999999999996 32.000000000000014 0.0
    vertex 26.999999999999996 32.000000000000014 0.20000000000000004
  endloop
endfacet
facet normal 0.0 -1.0 0.0
  outer loop
    vertex 13.599999999999998 20.000000000000007 0.20000000000000004
    vertex 12.100000000000007 20.000000000000007 0.0
    vertex 13.599999999999998 20.000000000000007 0.0
  endloop
endfacet
facet normal 0.0 -1.0 0.0
  outer loop
    vertex 12.100000000000007 20.000000000000007 0.0
    vertex 13.599999999999998 20.000000000000007 0.20000000000000004
    vertex 12.100000000000007 20.000000000000007 0.20000000000000004
  endloop
endfacet
facet normal -0.0 1.0 -0.0
  outer loop
    vertex 0.0 35.00000000000001 0.20000000000000004
    vertex 30.0 35.00000000000001 0.0
    vertex 0.0 35.00000000000001 0.0
  endloop
endfacet
facet normal -0.0 1.0 -0.0
  outer loop
    vertex 30.0 35.00000000000001 0.0
    vertex 0.0 35.00000000000001 0.20000000000000004
    vertex 30.0 35.00000000000001 0.20000000000000004
  endloop
endfacet
facet normal -1.0 0.0 0.0
  outer loop
    vertex 0.0 35.00000000000001 0.20000000000000004
    vertex 0.0 7.999999999999999 0.0
    vertex 0.0 7.999999999999999 0.20000000000000004
  endloop
endfacet
facet normal -1.0 0.0 0.0
  outer loop
    vertex 0.0 7.999999999999999 0.0
    vertex 0.0 35.00000000000001 0.20000000000000004
    vertex 0.0 35.00000000000001 0.0
  endloop
endfacet
facet normal 1.0 -0.0 -0.0
  outer loop
    vertex 24.099999999999994 29.00000000000001 0.0
    vertex 24.099999999999994 11.0 0.20000000000000004
    vertex 24.099999999999994 11.0 0.0
  endloop
endfacet
facet normal 1.0 -0.0 -0.0
  outer loop
    vertex 24.099999999999994 11.0 0.20000000000000004
    vertex 24.099999999999994 29.00000000000001 0.0
    vertex 24.099999999999994 29.00000000000001 0.20000000000000004
  endloop
endfacet
facet normal -1.0 0.0 0.0
  outer loop
    vertex 12.100000000000007 23.000000000000007 0.20000000000000004
    vertex 12.100000000000007 20.000000000000007 0.0
    vertex 12.100000000000007 20.000000000000007 0.20000000000000004
  endloop
endfacet
facet normal -1.0 0.0 0.0
  outer loop
    vertex 12.100000000000007 20.000000000000007 0.0
    vertex 12.100000000000007 23.000000000000007 0.20000000000000004
    vertex 12.100000000000007 23.000000000000007 0.0
  endloop
endfacet
facet normal -1.0 0.0 0.0
  outer loop
    vertex 3.0 32.000000000000014 0.20000000000000004
    vertex 3.0 11.0 0.0
    vertex 3.0 11.0 0.20000000000000004
  endloop
endfacet
facet normal -1.0 0.0 0.0
  outer loop
    vertex 3.0 11.0 0.0
    vertex 3.0 32.000000000000014 0.20000000000000004
    vertex 3.0 32.000000000000014 0.0
  endloop
endfacet
facet normal 1.0 -0.0 -0.0
  outer loop
    vertex 18.09999999999999 23.000000000000007 0.0
    vertex 18.09999999999999 17.000000000000007 0.20000000000000004
    vertex 18.09999999999999 17.000000000000007 0.0
  endloop
endfacet
facet normal 1.0 -0.0 -0.0
  outer loop
    vertex 18.09999999999999 17.000000000000007 0.20000000000000004
    vertex 18.09999999999999 23.000000000000007 0.0
    vertex 18.09999999999999 23.000000000000007 0.20000000000000004
  endloop
endfacet
facet normal 1.0 -0.0 -0.0
  outer loop
    vertex 21.099999999999984 26.000000000000007 0.0
    vertex 21.099999999999984 14.000000000000009 0.20000000000000004
    vertex 21.099999999999984 14.000000000000009 0.0
  endloop
endfacet
facet normal 1.0 -0.0 -0.0
  outer loop
    vertex 21.099999999999984 14.000000000000009 0.20000000000000004
    vertex 21.099999999999984 26.000000000000007 0.0
    vertex 21.099999999999984 26.000000000000007 0.20000000000000004
  endloop
endfacet
facet normal 0.0 -1.0 0.0
  outer loop
    vertex 16.599999999999998 21.50000000000001 0.20000000000000004
    vertex 13.599999999999998 21.50000000000001 0.0
    vertex 16.599999999999998 21.50000000000001 0.0
  endloop
endfacet
facet normal 0.0 -1.0 0.0
  outer loop
    vertex 13.599999999999998 21.50000000000001 0.0
    vertex 16.599999999999998 21.50000000000001 0.20000000000000004
    vertex 13.599999999999998 21.50000000000001 0.20000000000000004
  endloop
endfacet
facet normal -1.0 0.0 0.0
  outer loop
    vertex 6.100000000000004 29.00000000000001 0.20000000000000004
    vertex 6.100000000000004 14.000000000000009 0.0
    vertex 6.100000000000004 14.000000000000009 0.20000000000000004
  endloop
endfacet
facet normal -1.0 0.0 0.0
  outer loop
    vertex 6.100000000000004 14.000000000000009 0.0
    vertex 6.100000000000004 29.00000000000001 0.20000000000000004
    vertex 6.100000000000004 29.00000000000001 0.0
  endloop
endfacet
facet normal 0.0 -1.0 0.0
  outer loop
    vertex 18.09999999999999 17.000000000000007 0.20000000000000004
    vertex 9.100000000000007 17.000000000000007 0.0
    vertex 18.09999999999999 17.000000000000007 0.0
  endloop
endfacet
facet normal 0.0 -1.0 0.0
  outer loop
    vertex 9.100000000000007 17.000000000000007 0.0
    vertex 18.09999999999999 17.000000000000007 0.20000000000000004
    vertex 9.100000000000007 17.000000000000007 0.20000000000000004
  endloop
endfacet
facet normal 0.0 -1.0 0.0
  outer loop
    vertex 9.100000000000007 17.000000000000007 0.20000000000000004
    vertex 18.09999999999999 17.000000000000007 0.20000000000000004
    vertex 14.099999999999996 17.000000000000007 0.20000000000000004
  endloop
endfacet
facet normal 0.0 -1.0 0.0
  outer loop
    vertex 9.100000000000007 17.000000000000007 0.20000000000000004
    vertex 14.099999999999996 17.000000000000007 0.20000000000000004
    vertex 11.600000000000003 17.000000000000007 0.20000000000000004
  endloop
endfacet
facet normal 1.0 -0.0 -0.0
  outer loop
    vertex 13.599999999999998 21.50000000000001 0.0
    vertex 13.599999999999998 20.000000000000007 0.20000000000000004
    vertex 13.599999999999998 20.000000000000007 0.0
  endloop
endfacet
facet normal 1.0 -0.0 -0.0
  outer loop
    vertex 13.599999999999998 20.000000000000007 0.20000000000000004
    vertex 13.599999999999998 21.50000000000001 0.0
    vertex 13.599999999999998 21.50000000000001 0.20000000000000004
  endloop
endfacet
facet normal -1.0 0.0 0.0
  outer loop
    vertex 9.100000000000007 26.000000000000007 0.20000000000000004
    vertex 9.100000000000007 17.000000000000007 0.0
    vertex 9.100000000000007 17.000000000000007 0.20000000000000004
  endloop
endfacet
facet normal -1.0 0.0 0.0
  outer loop
    vertex 9.100000000000007 17.000000000000007 0.0
    vertex 9.100000000000007 26.000000000000007 0.20000000000000004
    vertex 9.100000000000007 26.000000000000007 0.0
  endloop
endfacet
facet normal -0.0 1.0 -0.0
  outer loop
    vertex 12.100000000000007 23.000000000000007 0.20000000000000004
    vertex 18.09999999999999 23.000000000000007 0.0
    vertex 12.100000000000007 23.000000000000007 0.0
  endloop
endfacet
facet normal -0.0 1.0 -0.0
  outer loop
    vertex 18.09999999999999 23.000000000000007 0.0
    vertex 12.100000000000007 23.000000000000007 0.20000000000000004
    vertex 18.09999999999999 23.000000000000007 0.20000000000000004
  endloop
endfacet
facet normal 0.0 -1.0 0.0
  outer loop
    vertex 22.599999999999998 27.50000000000001 0.20000000000000004
    vertex 7.600000000000003 27.50000000000001 0.0
    vertex 22.599999999999998 27.50000000000001 0.0
  endloop
endfacet
facet normal 0.0 -1.0 0.0
  outer loop
    vertex 7.600000000000003 27.50000000000001 0.0
    vertex 22.599999999999998 27.50000000000001 0.20000000000000004
    vertex 7.600000000000003 27.50000000000001 0.20000000000000004
  endloop
endfacet
facet normal -1.0 0.0 0.0
  outer loop
    vertex 22.599999999999998 27.50000000000001 0.20000000000000004
    vertex 22.599999999999998 12.519145000000002 0.0
    vertex 22.599999999999998 12.519145000000002 0.20000000000000004
  endloop
endfacet
facet normal -1.0 0.0 0.0
  outer loop
    vertex 22.599999999999998 12.519145000000002 0.0
    vertex 22.599999999999998 27.50000000000001 0.20000000000000004
    vertex 22.599999999999998 27.50000000000001 0.0
  endloop
endfacet
facet normal 0.0 -1.0 0.0
  outer loop
    vertex 25.5 30.500000000000007 0.20000000000000004
    vertex 4.5 30.500000000000007 0.0
    vertex 25.5 30.500000000000007 0.0
  endloop
endfacet
facet normal 0.0 -1.0 0.0
  outer loop
    vertex 4.5 30.500000000000007 0.0
    vertex 25.5 30.500000000000007 0.20000000000000004
    vertex 4.5 30.500000000000007 0.20000000000000004
  endloop
endfacet
facet normal -0.0 1.0 -0.0
  outer loop
    vertex 10.600000000000003 18.50000000000001 0.20000000000000004
    vertex 16.599999999999998 18.50000000000001 0.0
    vertex 10.600000000000003 18.50000000000001 0.0
  endloop
endfacet
facet normal -0.0 1.0 -0.0
  outer loop
    vertex 16.599999999999998 18.50000000000001 0.0
    vertex 10.600000000000003 18.50000000000001 0.20000000000000004
    vertex 16.599999999999998 18.50000000000001 0.20000000000000004
  endloop
endfacet
facet normal -0.0 1.0 -0.0
  outer loop
    vertex 16.599999999999998 18.50000000000001 0.20000000000000004
    vertex 10.600000000000003 18.50000000000001 0.20000000000000004
    vertex 11.600000000000003 18.50000000000001 0.20000000000000004
  endloop
endfacet
facet normal -0.0 1.0 -0.0
  outer loop
    vertex 16.599999999999998 18.50000000000001 0.20000000000000004
    vertex 11.600000000000003 18.50000000000001 0.20000000000000004
    vertex 14.099999999999996 18.50000000000001 0.20000000000000004
  endloop
endfacet
facet normal 0.0 -1.0 0.0
  outer loop
    vertex 19.599999999999987 24.50000000000001 0.20000000000000004
    vertex 10.600000000000003 24.50000000000001 0.0
    vertex 19.599999999999987 24.50000000000001 0.0
  endloop
endfacet
facet normal 0.0 -1.0 0.0
  outer loop
    vertex 10.600000000000003 24.50000000000001 0.0
    vertex 19.599999999999987 24.50000000000001 0.20000000000000004
    vertex 10.600000000000003 24.50000000000001 0.20000000000000004
  endloop
endfacet
facet normal -1.0 0.0 0.0
  outer loop
    vertex 25.5 30.500000000000007 0.20000000000000004
    vertex 25.5 9.5 0.0
    vertex 25.5 9.5 0.20000000000000004
  endloop
endfacet
facet normal -1.0 0.0 0.0
  outer loop
    vertex 25.5 9.5 0.0
    vertex 25.5 30.500000000000007 0.20000000000000004
    vertex 25.5 30.500000000000007 0.0
  endloop
endfacet
facet normal -1.0 0.0 0.0
  outer loop
    vertex 19.599999999999987 24.50000000000001 0.20000000000000004
    vertex 19.599999999999987 15.50000000000001 0.0
    vertex 19.599999999999987 15.50000000000001 0.20000000000000004
  endloop
endfacet
facet normal -1.0 0.0 0.0
  outer loop
    vertex 19.599999999999987 15.50000000000001 0.0
    vertex 19.599999999999987 24.50000000000001 0.20000000000000004
    vertex 19.599999999999987 24.50000000000001 0.0
  endloop
endfacet
facet normal 1.0 2.349972068789913e-16 -0.0
  outer loop
    vertex 1.5 33.500000000000014 0.0
    vertex 1.5000000000000058 9.5 0.20000000000000004
    vertex 1.5000000000000058 9.5 0.0
  endloop
endfacet
facet normal 1.0 2.349972068789913e-16 -0.0
  outer loop
    vertex 1.5000000000000058 9.5 0.20000000000000004
    vertex 1.5 33.500000000000014 0.0
    vertex 1.5 33.500000000000014 0.20000000000000004
  endloop
endfacet
facet normal -0.0 1.0 -0.0
  outer loop
    vertex 7.600000000000003 15.50000000000001 0.20000000000000004
    vertex 19.599999999999987 15.50000000000001 0.0
    vertex 7.600000000000003 15.50000000000001 0.0
  endloop
endfacet
facet normal -0.0 1.0 -0.0
  outer loop
    vertex 19.599999999999987 15.50000000000001 0.0
    vertex 7.600000000000003 15.50000000000001 0.20000000000000004
    vertex 19.599999999999987 15.50000000000001 0.20000000000000004
  endloop
endfacet
facet normal -0.0 1.0 -0.0
  outer loop
    vertex 19.599999999999987 15.50000000000001 0.20000000000000004
    vertex 7.600000000000003 15.50000000000001 0.20000000000000004
    vertex 11.600000000000003 15.50000000000001 0.20000000000000004
  endloop
endfacet
facet normal -0.0 1.0 -0.0
  outer loop
    vertex 19.599999999999987 15.50000000000001 0.20000000000000004
    vertex 11.600000000000003 15.50000000000001 0.20000000000000004
    vertex 14.099999999999996 15.50000000000001 0.20000000000000004
  endloop
endfacet
facet normal -0.0 1.0 -0.0
  outer loop
    vertex 4.5 12.519145000000002 0.20000000000000004
    vertex 22.599999999999998 12.519145000000002 0.0
    vertex 4.5 12.519145000000002 0.0
  endloop
endfacet
facet normal -0.0 1.0 -0.0
  outer loop
    vertex 22.599999999999998 12.519145000000002 0.0
    vertex 4.5 12.519145000000002 0.20000000000000004
    vertex 22.599999999999998 12.519145000000002 0.20000000000000004
  endloop
endfacet
facet normal -0.0 1.0 -0.0
  outer loop
    vertex 22.599999999999998 12.519145000000002 0.20000000000000004
    vertex 4.5 12.519145000000002 0.20000000000000004
    vertex 11.600000000000003 12.519145000000002 0.20000000000000004
  endloop
endfacet
facet normal -0.0 1.0 -0.0
  outer loop
    vertex 22.599999999999998 12.519145000000002 0.20000000000000004
    vertex 11.600000000000003 12.519145000000002 0.20000000000000004
    vertex 14.099999999999996 12.519145000000002 0.20000000000000004
  endloop
endfacet
facet normal 0.0 -1.0 0.0
  outer loop
    vertex 28.500000000000004 33.500000000000014 0.20000000000000004
    vertex 1.5 33.500000000000014 0.0
    vertex 28.500000000000004 33.500000000000014 0.0
  endloop
endfacet
facet normal 0.0 -1.0 0.0
  outer loop
    vertex 1.5 33.500000000000014 0.0
    vertex 28.500000000000004 33.500000000000014 0.20000000000000004
    vertex 1.5 33.500000000000014 0.20000000000000004
  endloop
endfacet
facet normal -1.0 0.0 0.0
  outer loop
    vertex 16.599999999999998 21.50000000000001 0.20000000000000004
    vertex 16.599999999999998 18.50000000000001 0.0
    vertex 16.599999999999998 18.50000000000001 0.20000000000000004
  endloop
endfacet
facet normal -1.0 0.0 0.0
  outer loop
    vertex 16.599999999999998 18.50000000000001 0.0
    vertex 16.599999999999998 21.50000000000001 0.20000000000000004
    vertex 16.599999999999998 21.50000000000001 0.0
  endloop
endfacet
facet normal -1.0 0.0 0.0
  outer loop
    vertex 28.500000000000004 33.500000000000014 0.20000000000000004
    vertex 28.500000000000004 6.499999999999999 0.0
    vertex 28.500000000000004 6.499999999999999 0.20000000000000004
  endloop
endfacet
facet normal -1.0 0.0 0.0
  outer loop
    vertex 28.500000000000004 6.499999999999999 0.0
    vertex 28.500000000000004 33.500000000000014 0.20000000000000004
    vertex 28.500000000000004 33.500000000000014 0.0
  endloop
endfacet
facet normal 1.0 -0.0 -0.0
  outer loop
    vertex 10.600000000000003 24.50000000000001 0.0
    vertex 10.600000000000003 18.50000000000001 0.20000000000000004
    vertex 10.600000000000003 18.50000000000001 0.0
  endloop
endfacet
facet normal 1.0 -0.0 -0.0
  outer loop
    vertex 10.600000000000003 18.50000000000001 0.20000000000000004
    vertex 10.600000000000003 24.50000000000001 0.0
    vertex 10.600000000000003 24.50000000000001 0.20000000000000004
  endloop
endfacet
facet normal 1.0 -0.0 -0.0
  outer loop
    vertex 4.5 30.500000000000007 0.0
    vertex 4.5 12.519145000000002 0.20000000000000004
    vertex 4.5 12.519145000000002 0.0
  endloop
endfacet
facet normal 1.0 -0.0 -0.0
  outer loop
    vertex 4.5 12.519145000000002 0.20000000000000004
    vertex 4.5 30.500000000000007 0.0
    vertex 4.5 30.500000000000007 0.20000000000000004
  endloop
endfacet
facet normal 1.0 -0.0 -0.0
  outer loop
    vertex 7.600000000000003 27.50000000000001 0.0
    vertex 7.600000000000003 15.50000000000001 0.20000000000000004
    vertex 7.600000000000003 15.50000000000001 0.0
  endloop
endfacet
facet normal 1.0 -0.0 -0.0
  outer loop
    vertex 7.600000000000003 15.50000000000001 0.20000000000000004
    vertex 7.600000000000003 27.50000000000001 0.0
    vertex 7.600000000000003 27.50000000000001 0.20000000000000004
  endloop
endfacet
facet normal -0.0 -0.0 1.0
  outer loop
    vertex 13.599999999999998 7.049916206369744e-16 0.6000000000000001
    vertex 12.100000000000007 21.50000000000001 0.6000000000000001
    vertex 12.100000000000007 7.049916206369744e-16 0.6000000000000001
  endloop
endfacet
facet normal -0.0 -0.0 1.0
  outer loop
    vertex 12.100000000000007 21.50000000000001 0.6000000000000001
    vertex 13.599999999999998 7.049916206369744e-16 0.6000000000000001
    vertex 13.599999999999998 21.50000000000001 0.6000000000000001
  endloop
endfacet
facet normal -0.0 -0.0 1.0
  outer loop
    vertex 9.100000000000007 17.000000000000007 0.20000000000000004
    vertex 10.600000000000003 18.50000000000001 0.20000000000000004
    vertex 9.100000000000007 26.000000000000007 0.20000000000000004
  endloop
endfacet
facet normal -0.0 -0.0 1.0
  outer loop
    vertex 10.600000000000003 18.50000000000001 0.20000000000000004
    vertex 9.100000000000007 17.000000000000007 0.20000000000000004
    vertex 11.600000000000003 17.000000000000007 0.20000000000000004
  endloop
endfacet
facet normal -0.0 -0.0 1.0
  outer loop
    vertex 10.600000000000003 18.50000000000001 0.20000000000000004
    vertex 11.600000000000003 17.000000000000007 0.20000000000000004
    vertex 11.600000000000003 18.50000000000001 0.20000000000000004
  endloop
endfacet
facet normal -0.0 -0.0 1.0
  outer loop
    vertex 21.099999999999984 14.000000000000009 0.20000000000000004
    vertex 14.099999999999996 15.50000000000001 0.20000000000000004
    vertex 14.099999999999996 14.000000000000009 0.20000000000000004
  endloop
endfacet
facet normal -0.0 -0.0 1.0
  outer loop
    vertex 14.099999999999996 15.50000000000001 0.20000000000000004
    vertex 21.099999999999984 14.000000000000009 0.20000000000000004
    vertex 19.599999999999987 15.50000000000001 0.20000000000000004
  endloop
endfacet
facet normal -0.0 -0.0 1.0
  outer loop
    vertex 19.599999999999987 15.50000000000001 0.20000000000000004
    vertex 21.099999999999984 14.000000000000009 0.20000000000000004
    vertex 19.599999999999987 24.50000000000001 0.20000000000000004
  endloop
endfacet
facet normal -0.0 -0.0 1.0
  outer loop
    vertex 9.100000000000007 26.000000000000007 0.20000000000000004
    vertex 10.600000000000003 24.50000000000001 0.20000000000000004
    vertex 21.099999999999984 26.000000000000007 0.20000000000000004
  endloop
endfacet
facet normal -0.0 -0.0 1.0
  outer loop
    vertex 10.600000000000003 24.50000000000001 0.20000000000000004
    vertex 9.100000000000007 26.000000000000007 0.20000000000000004
    vertex 10.600000000000003 18.50000000000001 0.20000000000000004
  endloop
endfacet
facet normal -0.0 -0.0 1.0
  outer loop
    vertex 21.099999999999984 26.000000000000007 0.20000000000000004
    vertex 10.600000000000003 24.50000000000001 0.20000000000000004
    vertex 19.599999999999987 24.50000000000001 0.20000000000000004
  endloop
endfacet
facet normal -0.0 -0.0 1.0
  outer loop
    vertex 21.099999999999984 26.000000000000007 0.20000000000000004
    vertex 19.599999999999987 24.50000000000001 0.20000000000000004
    vertex 21.099999999999984 14.000000000000009 0.20000000000000004
  endloop
endfacet
facet normal 0.0 0.0 -1.0
  outer loop
    vertex 14.099999999999996 14.000000000000009 0.20000000000000004
    vertex 11.600000000000003 12.519145000000002 0.20000000000000004
    vertex 11.600000000000003 14.000000000000009 0.20000000000000004
  endloop
endfacet
facet normal 0.0 0.0 -1.0
  outer loop
    vertex 11.600000000000003 12.519145000000002 0.20000000000000004
    vertex 14.099999999999996 14.000000000000009 0.20000000000000004
    vertex 14.099999999999996 12.519145000000002 0.20000000000000004
  endloop
endfacet
facet normal 0.0 -1.0 0.0
  outer loop
    vertex 26.999999999999996 7.999999999999999 0.20000000000000004
    vertex 0.0 7.999999999999999 0.0
    vertex 26.999999999999996 7.999999999999999 0.0
  endloop
endfacet
facet normal 0.0 -1.0 0.0
  outer loop
    vertex 0.0 7.999999999999999 0.0
    vertex 26.999999999999996 7.999999999999999 0.20000000000000004
    vertex 0.0 7.999999999999999 0.20000000000000004
  endloop
endfacet
facet normal 0.0 -1.0 0.0
  outer loop
    vertex 0.0 7.999999999999999 0.20000000000000004
    vertex 26.999999999999996 7.999999999999999 0.20000000000000004
    vertex 14.099999999999996 7.999999999999999 0.20000000000000004
  endloop
endfacet
facet normal 0.0 -1.0 0.0
  outer loop
    vertex 0.0 7.999999999999999 0.20000000000000004
    vertex 14.099999999999996 7.999999999999999 0.20000000000000004
    vertex 11.600000000000009 7.999999999999999 0.20000000000000004
  endloop
endfacet
facet normal -0.0 1.0 -0.0
  outer loop
    vertex 11.600000000000003 20.000000000000007 0.4000000000000001
    vertex 12.100000000000007 20.000000000000007 0.20000000000000004
    vertex 11.600000000000003 20.000000000000007 0.20000000000000004
  endloop
endfacet
facet normal -0.0 1.0 -0.0
  outer loop
    vertex 12.100000000000007 20.000000000000007 0.20000000000000004
    vertex 11.600000000000003 20.000000000000007 0.4000000000000001
    vertex 13.599999999999998 20.000000000000007 0.20000000000000004
  endloop
endfacet
facet normal -0.0 1.0 -0.0
  outer loop
    vertex 13.599999999999998 20.000000000000007 0.20000000000000004
    vertex 11.600000000000003 20.000000000000007 0.4000000000000001
    vertex 14.099999999999996 20.000000000000007 0.20000000000000004
  endloop
endfacet
facet normal -0.0 1.0 -0.0
  outer loop
    vertex 14.099999999999996 20.000000000000007 0.20000000000000004
    vertex 11.600000000000003 20.000000000000007 0.4000000000000001
    vertex 14.099999999999996 20.000000000000007 0.4000000000000001
  endloop
endfacet
facet normal -0.0 1.0 -0.0
  outer loop
    vertex 14.099999999999996 20.000000000000007 0.4000000000000001
    vertex 11.600000000000003 20.000000000000007 0.4000000000000001
    vertex 12.100000000000007 20.000000000000007 0.4000000000000001
  endloop
endfacet
facet normal -0.0 1.0 -0.0
  outer loop
    vertex 14.099999999999996 20.000000000000007 0.4000000000000001
    vertex 12.100000000000007 20.000000000000007 0.4000000000000001
    vertex 13.599999999999998 20.000000000000007 0.4000000000000001
  endloop
endfacet
facet normal 0.0 0.0 -1.0
  outer loop
    vertex 14.099999999999996 7.999999999999999 0.20000000000000004
    vertex 11.600000000000009 6.499999999999999 0.20000000000000004
    vertex 11.600000000000009 7.999999999999999 0.20000000000000004
  endloop
endfacet
facet normal 0.0 0.0 -1.0
  outer loop
    vertex 11.600000000000009 6.499999999999999 0.20000000000000004
    vertex 14.099999999999996 7.999999999999999 0.20000000000000004
    vertex 14.099999999999996 6.4999999999999964 0.20000000000000004
  endloop
endfacet
facet normal -1.4338812623124887e-16 -1.0 1.7624790515924364e-15
  outer loop
    vertex 14.099999999999996 3.000000000000001 0.4000000000000001
    vertex 11.600000000000003 3.000000000000001 0.20000000000000004
    vertex 14.099999999999996 3.000000000000001 0.20000000000000004
  endloop
endfacet
facet normal -1.4338812623124887e-16 -1.0 1.7624790515924364e-15
  outer loop
    vertex 11.600000000000003 3.000000000000001 0.20000000000000004
    vertex 14.099999999999996 3.000000000000001 0.4000000000000001
    vertex 11.600000000000003 3.000000000000001 0.4000000000000001
  endloop
endfacet
facet normal -1.4338812623124887e-16 -1.0 1.7624790515924364e-15
  outer loop
    vertex 11.600000000000003 3.000000000000001 0.4000000000000001
    vertex 14.099999999999996 3.000000000000001 0.4000000000000001
    vertex 13.599999999999998 3.000000000000001 0.4000000000000001
  endloop
endfacet
facet normal -1.4338812623124887e-16 -1.0 1.7624790515924364e-15
  outer loop
    vertex 11.600000000000003 3.000000000000001 0.4000000000000001
    vertex 13.599999999999998 3.000000000000001 0.4000000000000001
    vertex 12.100000000000007 3.000000000000002 0.4000000000000001
  endloop
endfacet
facet normal 1.0 -0.0 -0.0
  outer loop
    vertex 13.599999999999998 3.000000000000001 0.4000000000000001
    vertex 13.599999999999998 7.049916206369744e-16 0.6000000000000001
    vertex 13.599999999999998 7.049916206369744e-16 0.4000000000000001
  endloop
endfacet
facet normal 1.0 -0.0 -0.0
  outer loop
    vertex 13.599999999999998 7.049916206369744e-16 0.6000000000000001
    vertex 13.599999999999998 3.000000000000001 0.4000000000000001
    vertex 13.599999999999998 21.50000000000001 0.6000000000000001
  endloop
endfacet
facet normal 1.0 -0.0 -0.0
  outer loop
    vertex 13.599999999999998 21.50000000000001 0.6000000000000001
    vertex 13.599999999999998 3.000000000000001 0.4000000000000001
    vertex 13.599999999999998 20.000000000000007 0.4000000000000001
  endloop
endfacet
facet normal 1.0 -0.0 -0.0
  outer loop
    vertex 13.599999999999998 21.50000000000001 0.6000000000000001
    vertex 13.599999999999998 20.000000000000007 0.4000000000000001
    vertex 13.599999999999998 21.50000000000001 0.4000000000000001
  endloop
endfacet
facet normal 1.0 -0.0 -0.0
  outer loop
    vertex 14.099999999999996 5.0 0.20000000000000004
    vertex 14.099999999999996 3.000000000000001 0.4000000000000001
    vertex 14.099999999999996 3.000000000000001 0.20000000000000004
  endloop
endfacet
facet normal 1.0 -0.0 -0.0
  outer loop
    vertex 14.099999999999996 3.000000000000001 0.4000000000000001
    vertex 14.099999999999996 5.0 0.20000000000000004
    vertex 14.099999999999996 20.000000000000007 0.4000000000000001
  endloop
endfacet
facet normal 1.0 -0.0 -0.0
  outer loop
    vertex 14.099999999999996 20.000000000000007 0.4000000000000001
    vertex 14.099999999999996 5.0 0.20000000000000004
    vertex 14.099999999999996 6.4999999999999964 0.20000000000000004
  endloop
endfacet
facet normal 1.0 -0.0 -0.0
  outer loop
    vertex 14.099999999999996 20.000000000000007 0.4000000000000001
    vertex 14.099999999999996 6.4999999999999964 0.20000000000000004
    vertex 14.099999999999996 7.999999999999999 0.20000000000000004
  endloop
endfacet
facet normal 1.0 -0.0 -0.0
  outer loop
    vertex 14.099999999999996 20.000000000000007 0.4000000000000001
    vertex 14.099999999999996 7.999999999999999 0.20000000000000004
    vertex 14.099999999999996 9.5 0.20000000000000004
  endloop
endfacet
facet normal 1.0 -0.0 -0.0
  outer loop
    vertex 14.099999999999996 20.000000000000007 0.4000000000000001
    vertex 14.099999999999996 9.5 0.20000000000000004
    vertex 14.099999999999996 11.0 0.20000000000000004
  endloop
endfacet
facet normal 1.0 -0.0 -0.0
  outer loop
    vertex 14.099999999999996 20.000000000000007 0.4000000000000001
    vertex 14.099999999999996 11.0 0.20000000000000004
    vertex 14.099999999999996 12.519145000000002 0.20000000000000004
  endloop
endfacet
facet normal 1.0 -0.0 -0.0
  outer loop
    vertex 14.099999999999996 20.000000000000007 0.4000000000000001
    vertex 14.099999999999996 12.519145000000002 0.20000000000000004
    vertex 14.099999999999996 14.000000000000009 0.20000000000000004
  endloop
endfacet
facet normal 1.0 -0.0 -0.0
  outer loop
    vertex 14.099999999999996 20.000000000000007 0.4000000000000001
    vertex 14.099999999999996 14.000000000000009 0.20000000000000004
    vertex 14.099999999999996 15.50000000000001 0.20000000000000004
  endloop
endfacet
facet normal 1.0 -0.0 -0.0
  outer loop
    vertex 14.099999999999996 20.000000000000007 0.4000000000000001
    vertex 14.099999999999996 15.50000000000001 0.20000000000000004
    vertex 14.099999999999996 17.000000000000007 0.20000000000000004
  endloop
endfacet
facet normal 1.0 -0.0 -0.0
  outer loop
    vertex 14.099999999999996 20.000000000000007 0.4000000000000001
    vertex 14.099999999999996 17.000000000000007 0.20000000000000004
    vertex 14.099999999999996 18.50000000000001 0.20000000000000004
  endloop
endfacet
facet normal 1.0 -0.0 -0.0
  outer loop
    vertex 14.099999999999996 20.000000000000007 0.4000000000000001
    vertex 14.099999999999996 18.50000000000001 0.20000000000000004
    vertex 14.099999999999996 20.000000000000007 0.20000000000000004
  endloop
endfacet
facet normal 0.0 -1.0 0.0
  outer loop
    vertex 21.099999999999984 14.000000000000009 0.20000000000000004
    vertex 6.100000000000004 14.000000000000009 0.0
    vertex 21.099999999999984 14.000000000000009 0.0
  endloop
endfacet
facet normal 0.0 -1.0 0.0
  outer loop
    vertex 6.100000000000004 14.000000000000009 0.0
    vertex 21.099999999999984 14.000000000000009 0.20000000000000004
    vertex 6.100000000000004 14.000000000000009 0.20000000000000004
  endloop
endfacet
facet normal 0.0 -1.0 0.0
  outer loop
    vertex 6.100000000000004 14.000000000000009 0.20000000000000004
    vertex 21.099999999999984 14.000000000000009 0.20000000000000004
    vertex 14.099999999999996 14.000000000000009 0.20000000000000004
  endloop
endfacet
facet normal 0.0 -1.0 0.0
  outer loop
    vertex 6.100000000000004 14.000000000000009 0.20000000000000004
    vertex 14.099999999999996 14.000000000000009 0.20000000000000004
    vertex 11.600000000000003 14.000000000000009 0.20000000000000004
  endloop
endfacet
facet normal 0.0 0.0 -1.0
  outer loop
    vertex 13.599999999999998 3.000000000000001 0.4000000000000001
    vertex 12.100000000000007 7.049916206369744e-16 0.4000000000000001
    vertex 12.100000000000007 3.000000000000002 0.4000000000000001
  endloop
endfacet
facet normal 0.0 0.0 -1.0
  outer loop
    vertex 12.100000000000007 7.049916206369744e-16 0.4000000000000001
    vertex 13.599999999999998 3.000000000000001 0.4000000000000001
    vertex 13.599999999999998 7.049916206369744e-16 0.4000000000000001
  endloop
endfacet
facet normal -0.0 -0.0 1.0
  outer loop
    vertex 18.09999999999999 17.000000000000007 0.20000000000000004
    vertex 14.099999999999996 18.50000000000001 0.20000000000000004
    vertex 14.099999999999996 17.000000000000007 0.20000000000000004
  endloop
endfacet
facet normal -0.0 -0.0 1.0
  outer loop
    vertex 14.099999999999996 18.50000000000001 0.20000000000000004
    vertex 18.09999999999999 17.000000000000007 0.20000000000000004
    vertex 16.599999999999998 18.50000000000001 0.20000000000000004
  endloop
endfacet
facet normal -0.0 -0.0 1.0
  outer loop
    vertex 16.599999999999998 18.50000000000001 0.20000000000000004
    vertex 18.09999999999999 17.000000000000007 0.20000000000000004
    vertex 16.599999999999998 21.50000000000001 0.20000000000000004
  endloop
endfacet
facet normal -0.0 -0.0 1.0
  outer loop
    vertex 13.599999999999998 20.000000000000007 0.20000000000000004
    vertex 12.100000000000007 23.000000000000007 0.20000000000000004
    vertex 12.100000000000007 20.000000000000007 0.20000000000000004
  endloop
endfacet
facet normal -0.0 -0.0 1.0
  outer loop
    vertex 12.100000000000007 23.000000000000007 0.20000000000000004
    vertex 13.599999999999998 20.000000000000007 0.20000000000000004
    vertex 13.599999999999998 21.50000000000001 0.20000000000000004
  endloop
endfacet
facet normal -0.0 -0.0 1.0
  outer loop
    vertex 12.100000000000007 23.000000000000007 0.20000000000000004
    vertex 13.599999999999998 21.50000000000001 0.20000000000000004
    vertex 18.09999999999999 23.000000000000007 0.20000000000000004
  endloop
endfacet
facet normal -0.0 -0.0 1.0
  outer loop
    vertex 18.09999999999999 23.000000000000007 0.20000000000000004
    vertex 13.599999999999998 21.50000000000001 0.20000000000000004
    vertex 16.599999999999998 21.50000000000001 0.20000000000000004
  endloop
endfacet
facet normal -0.0 -0.0 1.0
  outer loop
    vertex 18.09999999999999 23.000000000000007 0.20000000000000004
    vertex 16.599999999999998 21.50000000000001 0.20000000000000004
    vertex 18.09999999999999 17.000000000000007 0.20000000000000004
  endloop
endfacet
facet normal 0.0 -1.0 0.0
  outer loop
    vertex 24.099999999999994 11.0 0.20000000000000004
    vertex 3.0 11.0 0.0
    vertex 24.099999999999994 11.0 0.0
  endloop
endfacet
facet normal 0.0 -1.0 0.0
  outer loop
    vertex 3.0 11.0 0.0
    vertex 24.099999999999994 11.0 0.20000000000000004
    vertex 3.0 11.0 0.20000000000000004
  endloop
endfacet
facet normal 0.0 -1.0 0.0
  outer loop
    vertex 3.0 11.0 0.20000000000000004
    vertex 24.099999999999994 11.0 0.20000000000000004
    vertex 14.099999999999996 11.0 0.20000000000000004
  endloop
endfacet
facet normal 0.0 -1.0 0.0
  outer loop
    vertex 3.0 11.0 0.20000000000000004
    vertex 14.099999999999996 11.0 0.20000000000000004
    vertex 11.600000000000003 11.0 0.20000000000000004
  endloop
endfacet
facet normal -1.0 -1.3221685220023782e-16 -7.188696798926395e-15
  outer loop
    vertex 11.600000000000003 20.000000000000007 0.4000000000000001
    vertex 11.600000000000003 3.000000000000001 0.20000000000000004
    vertex 11.600000000000003 3.000000000000001 0.4000000000000001
  endloop
endfacet
facet normal -1.0 -1.3221685220023782e-16 -7.188696798926395e-15
  outer loop
    vertex 11.600000000000003 3.000000000000001 0.20000000000000004
    vertex 11.600000000000003 20.000000000000007 0.4000000000000001
    vertex 11.600000000000003 5.0 0.20000000000000004
  endloop
endfacet
facet normal -1.0 -1.3221685220023782e-16 -7.188696798926395e-15
  outer loop
    vertex 11.600000000000003 5.0 0.20000000000000004
    vertex 11.600000000000003 20.000000000000007 0.4000000000000001
    vertex 11.600000000000009 6.499999999999999 0.20000000000000004
  endloop
endfacet
facet normal -1.0 -1.3221685220023782e-16 -7.188696798926395e-15
  outer loop
    vertex 11.600000000000009 6.499999999999999 0.20000000000000004
    vertex 11.600000000000003 20.000000000000007 0.4000000000000001
    vertex 11.600000000000009 7.999999999999999 0.20000000000000004
  endloop
endfacet
facet normal -1.0 -1.3221685220023782e-16 -7.188696798926395e-15
  outer loop
    vertex 11.600000000000009 7.999999999999999 0.20000000000000004
    vertex 11.600000000000003 20.000000000000007 0.4000000000000001
    vertex 11.600000000000009 9.5 0.20000000000000004
  endloop
endfacet
facet normal -1.0 -1.3221685220023782e-16 -7.188696798926395e-15
  outer loop
    vertex 11.600000000000009 9.5 0.20000000000000004
    vertex 11.600000000000003 20.000000000000007 0.4000000000000001
    vertex 11.600000000000003 11.0 0.20000000000000004
  endloop
endfacet
facet normal -1.0 -1.3221685220023782e-16 -7.188696798926395e-15
  outer loop
    vertex 11.600000000000003 11.0 0.20000000000000004
    vertex 11.600000000000003 20.000000000000007 0.4000000000000001
    vertex 11.600000000000003 12.519145000000002 0.20000000000000004
  endloop
endfacet
facet normal -1.0 -1.3221685220023782e-16 -7.188696798926395e-15
  outer loop
    vertex 11.600000000000003 12.519145000000002 0.20000000000000004
    vertex 11.600000000000003 20.000000000000007 0.4000000000000001
    vertex 11.600000000000003 14.000000000000009 0.20000000000000004
  endloop
endfacet
facet normal -1.0 -1.3221685220023782e-16 -7.188696798926395e-15
  outer loop
    vertex 11.600000000000003 14.000000000000009 0.20000000000000004
    vertex 11.600000000000003 20.000000000000007 0.4000000000000001
    vertex 11.600000000000003 15.50000000000001 0.20000000000000004
  endloop
endfacet
facet normal -1.0 -1.3221685220023782e-16 -7.188696798926395e-15
  outer loop
    vertex 11.600000000000003 15.50000000000001 0.20000000000000004
    vertex 11.600000000000003 20.000000000000007 0.4000000000000001
    vertex 11.600000000000003 17.000000000000007 0.20000000000000004
  endloop
endfacet
facet normal -1.0 -1.3221685220023782e-16 -7.188696798926395e-15
  outer loop
    vertex 11.600000000000003 17.000000000000007 0.20000000000000004
    vertex 11.600000000000003 20.000000000000007 0.4000000000000001
    vertex 11.600000000000003 18.50000000000001 0.20000000000000004
  endloop
endfacet
facet normal -1.0 -1.3221685220023782e-16 -7.188696798926395e-15
  outer loop
    vertex 11.600000000000003 18.50000000000001 0.20000000000000004
    vertex 11.600000000000003 20.000000000000007 0.4000000000000001
    vertex 11.600000000000003 20.000000000000007 0.20000000000000004
  endloop
endfacet
facet normal 0.0 0.0 -1.0
  outer loop
    vertex 14.099999999999996 11.0 0.20000000000000004
    vertex 11.600000000000009 9.5 0.20000000000000004
    vertex 11.600000000000003 11.0 0.20000000000000004
  endloop
endfacet
facet normal 0.0 0.0 -1.0
  outer loop
    vertex 11.600000000000009 9.5 0.20000000000000004
    vertex 14.099999999999996 11.0 0.20000000000000004
    vertex 14.099999999999996 9.5 0.20000000000000004
  endloop
endfacet
facet normal 1.8976081599360463e-18 1.0 3.531599731744647e-15
  outer loop
    vertex 0.0 6.499999999999999 0.20000000000000004
    vertex 28.500000000000004 6.499999999999999 0.0
    vertex 0.0 6.499999999999999 0.0
  endloop
endfacet
facet normal 1.8976081599360463e-18 1.0 3.531599731744647e-15
  outer loop
    vertex 28.500000000000004 6.499999999999999 0.0
    vertex 0.0 6.499999999999999 0.20000000000000004
    vertex 28.500000000000004 6.499999999999999 0.20000000000000004
  endloop
endfacet
facet normal 1.8976081599360463e-18 1.0 3.531599731744647e-15
  outer loop
    vertex 28.500000000000004 6.499999999999999 0.20000000000000004
    vertex 0.0 6.499999999999999 0.20000000000000004
    vertex 11.600000000000009 6.499999999999999 0.20000000000000004
  endloop
endfacet
facet normal 1.8976081599360463e-18 1.0 3.531599731744647e-15
  outer loop
    vertex 28.500000000000004 6.499999999999999 0.20000000000000004
    vertex 11.600000000000009 6.499999999999999 0.20000000000000004
    vertex 14.099999999999996 6.4999999999999964 0.20000000000000004
  endloop
endfacet
facet normal 0.0 0.0 -1.0
  outer loop
    vertex 12.100000000000007 20.000000000000007 0.20000000000000004
    vertex 11.600000000000003 18.50000000000001 0.20000000000000004
    vertex 11.600000000000003 20.000000000000007 0.20000000000000004
  endloop
endfacet
facet normal 0.0 0.0 -1.0
  outer loop
    vertex 11.600000000000003 18.50000000000001 0.20000000000000004
    vertex 12.100000000000007 20.000000000000007 0.20000000000000004
    vertex 14.099999999999996 18.50000000000001 0.20000000000000004
  endloop
endfacet
facet normal 0.0 0.0 -1.0
  outer loop
    vertex 14.099999999999996 18.50000000000001 0.20000000000000004
    vertex 12.100000000000007 20.000000000000007 0.20000000000000004
    vertex 13.599999999999998 20.000000000000007 0.20000000000000004
  endloop
endfacet
facet normal 0.0 0.0 -1.0
  outer loop
    vertex 14.099999999999996 18.50000000000001 0.20000000000000004
    vertex 13.599999999999998 20.000000000000007 0.20000000000000004
    vertex 14.099999999999996 20.000000000000007 0.20000000000000004
  endloop
endfacet
facet normal -0.0 -0.0 1.0
  outer loop
    vertex 1.5 0.0 0.20000000000000004
    vertex 0.0 6.499999999999999 0.20000000000000004
    vertex 0.0 0.0 0.20000000000000004
  endloop
endfacet
facet normal -0.0 -0.0 1.0
  outer loop
    vertex 0.0 6.499999999999999 0.20000000000000004
    vertex 1.5 0.0 0.20000000000000004
    vertex 1.5 5.0 0.20000000000000004
  endloop
endfacet
facet normal -0.0 -0.0 1.0
  outer loop
    vertex 0.0 6.499999999999999 0.20000000000000004
    vertex 1.5 5.0 0.20000000000000004
    vertex 11.600000000000009 6.499999999999999 0.20000000000000004
  endloop
endfacet
facet normal -0.0 -0.0 1.0
  outer loop
    vertex 11.600000000000009 6.499999999999999 0.20000000000000004
    vertex 1.5 5.0 0.20000000000000004
    vertex 11.600000000000003 5.0 0.20000000000000004
  endloop
endfacet
facet normal -0.0 -0.0 1.0
  outer loop
    vertex 0.0 7.999999999999999 0.20000000000000004
    vertex 1.5000000000000058 9.5 0.20000000000000004
    vertex 0.0 35.00000000000001 0.20000000000000004
  endloop
endfacet
facet normal -0.0 -0.0 1.0
  outer loop
    vertex 1.5000000000000058 9.5 0.20000000000000004
    vertex 0.0 7.999999999999999 0.20000000000000004
    vertex 11.600000000000009 7.999999999999999 0.20000000000000004
  endloop
endfacet
facet normal -0.0 -0.0 1.0
  outer loop
    vertex 0.0 35.00000000000001 0.20000000000000004
    vertex 1.5000000000000058 9.5 0.20000000000000004
    vertex 1.5 33.500000000000014 0.20000000000000004
  endloop
endfacet
facet normal -0.0 -0.0 1.0
  outer loop
    vertex 1.5000000000000058 9.5 0.20000000000000004
    vertex 11.600000000000009 7.999999999999999 0.20000000000000004
    vertex 11.600000000000009 9.5 0.20000000000000004
  endloop
endfacet
facet normal -0.0 -0.0 1.0
  outer loop
    vertex 30.0 5.0 0.20000000000000004
    vertex 14.099999999999996 6.4999999999999964 0.20000000000000004
    vertex 14.099999999999996 5.0 0.20000000000000004
  endloop
endfacet
facet normal -0.0 -0.0 1.0
  outer loop
    vertex 14.099999999999996 6.4999999999999964 0.20000000000000004
    vertex 30.0 5.0 0.20000000000000004
    vertex 28.500000000000004 6.499999999999999 0.20000000000000004
  endloop
endfacet
facet normal -0.0 -0.0 1.0
  outer loop
    vertex 28.500000000000004 6.499999999999999 0.20000000000000004
    vertex 30.0 5.0 0.20000000000000004
    vertex 28.500000000000004 33.500000000000014 0.20000000000000004
  endloop
endfacet
facet normal -0.0 -0.0 1.0
  outer loop
    vertex 1.5 33.500000000000014 0.20000000000000004
    vertex 30.0 35.00000000000001 0.20000000000000004
    vertex 0.0 35.00000000000001 0.20000000000000004
  endloop
endfacet
facet normal -0.0 -0.0 1.0
  outer loop
    vertex 30.0 35.00000000000001 0.20000000000000004
    vertex 1.5 33.500000000000014 0.20000000000000004
    vertex 28.500000000000004 33.500000000000014 0.20000000000000004
  endloop
endfacet
facet normal -0.0 -0.0 1.0
  outer loop
    vertex 30.0 35.00000000000001 0.20000000000000004
    vertex 28.500000000000004 33.500000000000014 0.20000000000000004
    vertex 30.0 5.0 0.20000000000000004
  endloop
endfacet
facet normal -0.0 1.0 -0.0
  outer loop
    vertex 1.5000000000000058 9.5 0.20000000000000004
    vertex 25.5 9.5 0.0
    vertex 1.5000000000000058 9.5 0.0
  endloop
endfacet
facet normal -0.0 1.0 -0.0
  outer loop
    vertex 25.5 9.5 0.0
    vertex 1.5000000000000058 9.5 0.20000000000000004
    vertex 25.5 9.5 0.20000000000000004
  endloop
endfacet
facet normal -0.0 1.0 -0.0
  outer loop
    vertex 25.5 9.5 0.20000000000000004
    vertex 1.5000000000000058 9.5 0.20000000000000004
    vertex 11.600000000000009 9.5 0.20000000000000004
  endloop
endfacet
facet normal -0.0 1.0 -0.0
  outer loop
    vertex 25.5 9.5 0.20000000000000004
    vertex 11.600000000000009 9.5 0.20000000000000004
    vertex 14.099999999999996 9.5 0.20000000000000004
  endloop
endfacet
facet normal 0.0 0.0 -1.0
  outer loop
    vertex 14.099999999999996 5.0 0.20000000000000004
    vertex 11.600000000000003 3.000000000000001 0.20000000000000004
    vertex 11.600000000000003 5.0 0.20000000000000004
  endloop
endfacet
facet normal 0.0 0.0 -1.0
  outer loop
    vertex 11.600000000000003 3.000000000000001 0.20000000000000004
    vertex 14.099999999999996 5.0 0.20000000000000004
    vertex 14.099999999999996 3.000000000000001 0.20000000000000004
  endloop
endfacet
facet normal -0.0 -0.0 1.0
  outer loop
    vertex 3.0 11.0 0.20000000000000004
    vertex 4.5 12.519145000000002 0.20000000000000004
    vertex 3.0 32.000000000000014 0.20000000000000004
  endloop
endfacet
facet normal -0.0 -0.0 1.0
  outer loop
    vertex 4.5 12.519145000000002 0.20000000000000004
    vertex 3.0 11.0 0.20000000000000004
    vertex 11.600000000000003 11.0 0.20000000000000004
  endloop
endfacet
facet normal -0.0 -0.0 1.0
  outer loop
    vertex 4.5 12.519145000000002 0.20000000000000004
    vertex 11.600000000000003 11.0 0.20000000000000004
    vertex 11.600000000000003 12.519145000000002 0.20000000000000004
  endloop
endfacet
facet normal -0.0 -0.0 1.0
  outer loop
    vertex 26.999999999999996 7.999999999999999 0.20000000000000004
    vertex 14.099999999999996 9.5 0.20000000000000004
    vertex 14.099999999999996 7.999999999999999 0.20000000000000004
  endloop
endfacet
facet normal -0.0 -0.0 1.0
  outer loop
    vertex 14.099999999999996 9.5 0.20000000000000004
    vertex 26.999999999999996 7.999999999999999 0.20000000000000004
    vertex 25.5 9.5 0.20000000000000004
  endloop
endfacet
facet normal -0.0 -0.0 1.0
  outer loop
    vertex 25.5 9.5 0.20000000000000004
    vertex 26.999999999999996 7.999999999999999 0.20000000000000004
    vertex 25.5 30.500000000000007 0.20000000000000004
  endloop
endfacet
facet normal -0.0 -0.0 1.0
  outer loop
    vertex 3.0 32.000000000000014 0.20000000000000004
    vertex 4.5 30.500000000000007 0.20000000000000004
    vertex 26.999999999999996 32.000000000000014 0.20000000000000004
  endloop
endfacet
facet normal -0.0 -0.0 1.0
  outer loop
    vertex 4.5 30.500000000000007 0.20000000000000004
    vertex 3.0 32.000000000000014 0.20000000000000004
    vertex 4.5 12.519145000000002 0.20000000000000004
  endloop
endfacet
facet normal -0.0 -0.0 1.0
  outer loop
    vertex 26.999999999999996 32.000000000000014 0.20000000000000004
    vertex 4.5 30.500000000000007 0.20000000000000004
    vertex 25.5 30.500000000000007 0.20000000000000004
  endloop
endfacet
facet normal -0.0 -0.0 1.0
  outer loop
    vertex 26.999999999999996 32.000000000000014 0.20000000000000004
    vertex 25.5 30.500000000000007 0.20000000000000004
    vertex 26.999999999999996 7.999999999999999 0.20000000000000004
  endloop
endfacet
facet normal 1.0 -0.0 -0.0
  outer loop
    vertex 30.0 5.000000000000002 0.0
    vertex 30.0 35.00000000000001 0.20000000000000004
    vertex 30.0 5.0 0.20000000000000004
  endloop
endfacet
facet normal 1.0 -0.0 -0.0
  outer loop
    vertex 30.0 35.00000000000001 0.20000000000000004
    vertex 30.0 5.000000000000002 0.0
    vertex 30.0 35.00000000000001 0.0
  endloop
endfacet
facet normal 3.658526409467355e-17 -1.0 -5.022193990090924e-15
  outer loop
    vertex 30.0 5.0 0.20000000000000004
    vertex 1.5 5.0 0.0
    vertex 30.0 5.000000000000002 0.0
  endloop
endfacet
facet normal 3.658526409467355e-17 -1.0 -5.022193990090924e-15
  outer loop
    vertex 1.5 5.0 0.0
    vertex 30.0 5.0 0.20000000000000004
    vertex 1.5 5.0 0.20000000000000004
  endloop
endfacet
facet normal 3.658526409467355e-17 -1.0 -5.022193990090924e-15
  outer loop
    vertex 1.5 5.0 0.20000000000000004
    vertex 30.0 5.0 0.20000000000000004
    vertex 14.099999999999996 5.0 0.20000000000000004
  endloop
endfacet
facet normal 3.658526409467355e-17 -1.0 -5.022193990090924e-15
  outer loop
    vertex 1.5 5.0 0.20000000000000004
    vertex 14.099999999999996 5.0 0.20000000000000004
    vertex 11.600000000000003 5.0 0.20000000000000004
  endloop
endfacet
facet normal 0.0 0.0 -1.0
  outer loop
    vertex 11.600000000000009 6.499999999999999 0.20000000000000004
    vertex 14.099999999999996 5.0 0.20000000000000004
    vertex 11.600000000000003 5.0 0.20000000000000004
  endloop
endfacet
facet normal 0.0 0.0 -1.0
  outer loop
    vertex 14.099999999999996 5.0 0.20000000000000004
    vertex 11.600000000000009 6.499999999999999 0.20000000000000004
    vertex 14.099999999999996 6.4999999999999964 0.20000000000000004
  endloop
endfacet
endsolid Speaker
