solid SpeakerV2
facet normal 0.0 0.0 -1.0
  outer loop
    vertex 20.999999999999996 29.000000000000004 0.0
    vertex 22.499999999999996 27.500000000000007 0.0
    vertex 20.999999999999996 17.5 0.0
  endloop
endfacet
facet normal 0.0 0.0 -1.0
  outer loop
    vertex 22.499999999999996 27.500000000000007 0.0
    vertex 20.999999999999996 29.000000000000004 0.0
    vertex 27.499999999999996 29.000000000000004 0.0
  endloop
endfacet
facet normal 0.0 0.0 -1.0
  outer loop
    vertex 22.499999999999996 27.500000000000007 0.0
    vertex 27.499999999999996 29.000000000000004 0.0
    vertex 24.999999999999996 27.500000000000007 0.0
  endloop
endfacet
facet normal 0.0 0.0 -1.0
  outer loop
    vertex 24.999999999999996 27.500000000000007 0.0
    vertex 27.499999999999996 29.000000000000004 0.0
    vertex 24.999999999999996 24.000000000000004 0.0
  endloop
endfacet
facet normal 0.0 0.0 -1.0
  outer loop
    vertex 24.999999999999996 24.000000000000004 0.0
    vertex 27.499999999999996 29.000000000000004 0.0
    vertex 27.499999999999996 24.000000000000004 0.0
  endloop
endfacet
facet normal 0.0 0.0 -1.0
  outer loop
    vertex 17.499999999999996 32.5 0.0
    vertex 18.999999999999996 31.0 0.0
    vertex 17.499999999999996 14.000000000000002 0.0
  endloop
endfacet
facet normal 0.0 0.0 -1.0
  outer loop
    vertex 18.999999999999996 31.0 0.0
    vertex 17.499999999999996 32.5 0.0
    vertex 32.5 32.5 0.0
  endloop
endfacet
facet normal 0.0 0.0 -1.0
  outer loop
    vertex 18.999999999999996 31.0 0.0
    vertex 32.5 32.5 0.0
    vertex 31.0 31.0 0.0
  endloop
endfacet
facet normal 0.0 0.0 -1.0
  outer loop
    vertex 31.0 31.0 0.0
    vertex 32.5 32.5 0.0
    vertex 31.0 19.000000000000004 0.0
  endloop
endfacet
facet normal 0.0 0.0 -1.0
  outer loop
    vertex 20.999999999999996 17.5 0.0
    vertex 22.499999999999996 19.0 0.0
    vertex 32.5 17.5 0.0
  endloop
endfacet
facet normal 0.0 0.0 -1.0
  outer loop
    vertex 22.499999999999996 19.0 0.0
    vertex 20.999999999999996 17.5 0.0
    vertex 22.499999999999996 27.500000000000007 0.0
  endloop
endfacet
facet normal 0.0 0.0 -1.0
  outer loop
    vertex 32.5 17.5 0.0
    vertex 22.499999999999996 19.0 0.0
    vertex 31.0 19.000000000000004 0.0
  endloop
endfacet
facet normal 0.0 0.0 -1.0
  outer loop
    vertex 32.5 17.5 0.0
    vertex 31.0 19.000000000000004 0.0
    vertex 32.5 32.5 0.0
  endloop
endfacet
facet normal 0.0 0.0 -1.0
  outer loop
    vertex 13.999999999999996 36.0 0.0
    vertex 15.499999999999996 34.50000000000001 0.0
    vertex 13.999999999999996 10.500000000000004 0.0
  endloop
endfacet
facet normal 0.0 0.0 -1.0
  outer loop
    vertex 15.499999999999996 34.50000000000001 0.0
    vertex 13.999999999999996 36.0 0.0
    vertex 35.99999999999999 36.0 0.0
  endloop
endfacet
facet normal 0.0 0.0 -1.0
  outer loop
    vertex 15.499999999999996 34.50000000000001 0.0
    vertex 35.99999999999999 36.0 0.0
    vertex 34.49999999999999 34.50000000000001 0.0
  endloop
endfacet
facet normal 0.0 0.0 -1.0
  outer loop
    vertex 34.49999999999999 34.50000000000001 0.0
    vertex 35.99999999999999 36.0 0.0
    vertex 34.49999999999999 15.500000000000002 0.0
  endloop
endfacet
facet normal 0.0 0.0 -1.0
  outer loop
    vertex 17.499999999999996 14.000000000000002 0.0
    vertex 18.999999999999996 15.500000000000005 0.0
    vertex 35.99999999999999 14.000000000000002 0.0
  endloop
endfacet
facet normal 0.0 0.0 -1.0
  outer loop
    vertex 18.999999999999996 15.500000000000005 0.0
    vertex 17.499999999999996 14.000000000000002 0.0
    vertex 18.999999999999996 31.0 0.0
  endloop
endfacet
facet normal 0.0 0.0 -1.0
  outer loop
    vertex 35.99999999999999 14.000000000000002 0.0
    vertex 18.999999999999996 15.500000000000005 0.0
    vertex 34.49999999999999 15.500000000000002 0.0
  endloop
endfacet
facet normal 0.0 0.0 -1.0
  outer loop
    vertex 35.99999999999999 14.000000000000002 0.0
    vertex 34.49999999999999 15.500000000000002 0.0
    vertex 35.99999999999999 36.0 0.0
  endloop
endfacet
facet normal 0.0 0.0 -1.0
  outer loop
    vertex 10.499999999999998 39.5 0.0
    vertex 11.999999999999996 38.0 0.0
    vertex 10.499999999999998 6.999999999999998 0.0
  endloop
endfacet
facet normal 0.0 0.0 -1.0
  outer loop
    vertex 11.999999999999996 38.0 0.0
    vertex 10.499999999999998 39.5 0.0
    vertex 39.49999999999999 39.5 0.0
  endloop
endfacet
facet normal 0.0 0.0 -1.0
  outer loop
    vertex 11.999999999999996 38.0 0.0
    vertex 39.49999999999999 39.5 0.0
    vertex 38.0 38.0 0.0
  endloop
endfacet
facet normal 0.0 0.0 -1.0
  outer loop
    vertex 38.0 38.0 0.0
    vertex 39.49999999999999 39.5 0.0
    vertex 38.0 12.000000000000004 0.0
  endloop
endfacet
facet normal 0.0 0.0 -1.0
  outer loop
    vertex 13.999999999999996 10.500000000000004 0.0
    vertex 15.499999999999996 12.000000000000004 0.0
    vertex 39.49999999999999 10.500000000000004 0.0
  endloop
endfacet
facet normal 0.0 0.0 -1.0
  outer loop
    vertex 15.499999999999996 12.000000000000004 0.0
    vertex 13.999999999999996 10.500000000000004 0.0
    vertex 15.499999999999996 34.50000000000001 0.0
  endloop
endfacet
facet normal 0.0 0.0 -1.0
  outer loop
    vertex 39.49999999999999 10.500000000000004 0.0
    vertex 15.499999999999996 12.000000000000004 0.0
    vertex 38.0 12.000000000000004 0.0
  endloop
endfacet
facet normal 0.0 0.0 -1.0
  outer loop
    vertex 39.49999999999999 10.500000000000004 0.0
    vertex 38.0 12.000000000000004 0.0
    vertex 39.49999999999999 39.5 0.0
  endloop
endfacet
facet normal 0.0 0.0 -1.0
  outer loop
    vertex 6.999999999999998 43.0 0.0
    vertex 8.499999999999996 41.5 0.0
    vertex 6.999999999999998 3.499999999999999 0.0
  endloop
endfacet
facet normal 0.0 0.0 -1.0
  outer loop
    vertex 8.499999999999996 41.5 0.0
    vertex 6.999999999999998 43.0 0.0
    vertex 43.0 43.0 0.0
  endloop
endfacet
facet normal 0.0 0.0 -1.0
  outer loop
    vertex 8.499999999999996 41.5 0.0
    vertex 43.0 43.0 0.0
    vertex 41.5 41.5 0.0
  endloop
endfacet
facet normal 0.0 0.0 -1.0
  outer loop
    vertex 41.5 41.5 0.0
    vertex 43.0 43.0 0.0
    vertex 41.5 8.499999999999998 0.0
  endloop
endfacet
facet normal 0.0 0.0 -1.0
  outer loop
    vertex 10.499999999999998 6.999999999999998 0.0
    vertex 11.999999999999998 8.5 0.0
    vertex 43.0 6.999999999999998 0.0
  endloop
endfacet
facet normal 0.0 0.0 -1.0
  outer loop
    vertex 11.999999999999998 8.5 0.0
    vertex 10.499999999999998 6.999999999999998 0.0
    vertex 11.999999999999996 38.0 0.0
  endloop
endfacet
facet normal 0.0 0.0 -1.0
  outer loop
    vertex 43.0 6.999999999999998 0.0
    vertex 11.999999999999998 8.5 0.0
    vertex 41.5 8.499999999999998 0.0
  endloop
endfacet
facet normal 0.0 0.0 -1.0
  outer loop
    vertex 43.0 6.999999999999998 0.0
    vertex 41.5 8.499999999999998 0.0
    vertex 43.0 43.0 0.0
  endloop
endfacet
facet normal 0.0 0.0 -1.0
  outer loop
    vertex 3.499999999999999 46.5 0.0
    vertex 4.999999999999998 45.0 0.0
    vertex 3.499999999999999 0.0 0.0
  endloop
endfacet
facet normal 0.0 0.0 -1.0
  outer loop
    vertex 4.999999999999998 45.0 0.0
    vertex 3.499999999999999 46.5 0.0
    vertex 46.5 46.5 0.0
  endloop
endfacet
facet normal 0.0 0.0 -1.0
  outer loop
    vertex 4.999999999999998 45.0 0.0
    vertex 46.5 46.5 0.0
    vertex 45.0 45.0 0.0
  endloop
endfacet
facet normal 0.0 0.0 -1.0
  outer loop
    vertex 45.0 45.0 0.0
    vertex 46.5 46.5 0.0
    vertex 45.0 4.999999999999999 0.0
  endloop
endfacet
facet normal 0.0 0.0 -1.0
  outer loop
    vertex 6.999999999999998 3.499999999999999 0.0
    vertex 8.499999999999998 5.000000000000001 0.0
    vertex 46.5 3.499999999999999 0.0
  endloop
endfacet
facet normal 0.0 0.0 -1.0
  outer loop
    vertex 8.499999999999998 5.000000000000001 0.0
    vertex 6.999999999999998 3.499999999999999 0.0
    vertex 8.499999999999996 41.5 0.0
  endloop
endfacet
facet normal 0.0 0.0 -1.0
  outer loop
    vertex 46.5 3.499999999999999 0.0
    vertex 8.499999999999998 5.000000000000001 0.0
    vertex 45.0 4.999999999999999 0.0
  endloop
endfacet
facet normal 0.0 0.0 -1.0
  outer loop
    vertex 46.5 3.499999999999999 0.0
    vertex 45.0 4.999999999999999 0.0
    vertex 46.5 46.5 0.0
  endloop
endfacet
facet normal 0.0 0.0 -1.0
  outer loop
    vertex 0.0 50.0 0.0
    vertex 1.5000000000000016 48.5 0.0
    vertex 0.0 0.0 0.0
  endloop
endfacet
facet normal 0.0 0.0 -1.0
  outer loop
    vertex 1.5000000000000016 48.5 0.0
    vertex 0.0 50.0 0.0
    vertex 50.0 50.0 0.0
  endloop
endfacet
facet normal 0.0 0.0 -1.0
  outer loop
    vertex 0.0 0.0 0.0
    vertex 1.5000000000000016 48.5 0.0
    vertex 1.5 0.0 0.0
  endloop
endfacet
facet normal 0.0 0.0 -1.0
  outer loop
    vertex 1.5000000000000016 48.5 0.0
    vertex 50.0 50.0 0.0
    vertex 48.5 48.5 0.0
  endloop
endfacet
facet normal 0.0 0.0 -1.0
  outer loop
    vertex 48.5 48.5 0.0
    vertex 50.0 50.0 0.0
    vertex 48.5 1.5 0.0
  endloop
endfacet
facet normal 0.0 0.0 -1.0
  outer loop
    vertex 3.499999999999999 0.0 0.0
    vertex 4.999999999999999 1.5000000000000042 0.0
    vertex 50.0 0.0 0.0
  endloop
endfacet
facet normal 0.0 0.0 -1.0
  outer loop
    vertex 4.999999999999999 1.5000000000000042 0.0
    vertex 3.499999999999999 0.0 0.0
    vertex 4.999999999999998 45.0 0.0
  endloop
endfacet
facet normal 0.0 0.0 -1.0
  outer loop
    vertex 50.0 0.0 0.0
    vertex 4.999999999999999 1.5000000000000042 0.0
    vertex 48.5 1.5 0.0
  endloop
endfacet
facet normal 0.0 0.0 -1.0
  outer loop
    vertex 50.0 0.0 0.0
    vertex 48.5 1.5 0.0
    vertex 50.0 50.0 0.0
  endloop
endfacet
facet normal -1.0 0.0 0.0
  outer loop
    vertex 20.999999999999996 29.000000000000004 0.20000000000000004
    vertex 20.999999999999996 17.5 0.0
    vertex 20.999999999999996 17.5 0.20000000000000004
  endloop
endfacet
facet normal -1.0 0.0 0.0
  outer loop
    vertex 20.999999999999996 17.5 0.0
    vertex 20.999999999999996 29.000000000000004 0.20000000000000004
    vertex 20.999999999999996 29.000000000000004 0.0
  endloop
endfacet
facet normal -0.0 1.0 0.0
  outer loop
    vertex 20.999999999999996 29.000000000000004 0.20000000000000004
    vertex 27.499999999999996 29.000000000000004 0.0
    vertex 20.999999999999996 29.000000000000004 0.0
  endloop
endfacet
facet normal -0.0 1.0 0.0
  outer loop
    vertex 27.499999999999996 29.000000000000004 0.0
    vertex 20.999999999999996 29.000000000000004 0.20000000000000004
    vertex 27.499999999999996 29.000000000000004 0.20000000000000004
  endloop
endfacet
facet normal 1.0 -0.0 -0.0
  outer loop
    vertex 27.499999999999996 29.000000000000004 0.0
    vertex 27.499999999999996 24.000000000000004 0.20000000000000004
    vertex 27.499999999999996 24.000000000000004 0.0
  endloop
endfacet
facet normal 1.0 -0.0 -0.0
  outer loop
    vertex 27.499999999999996 24.000000000000004 0.20000000000000004
    vertex 27.499999999999996 29.000000000000004 0.0
    vertex 27.499999999999996 29.000000000000004 0.20000000000000004
  endloop
endfacet
facet normal 0.0 -1.0 0.0
  outer loop
    vertex 27.499999999999996 24.000000000000004 0.20000000000000004
    vertex 24.999999999999996 24.000000000000004 0.0
    vertex 27.499999999999996 24.000000000000004 0.0
  endloop
endfacet
facet normal 0.0 -1.0 0.0
  outer loop
    vertex 24.999999999999996 24.000000000000004 0.0
    vertex 27.499999999999996 24.000000000000004 0.20000000000000004
    vertex 24.999999999999996 24.000000000000004 0.20000000000000004
  endloop
endfacet
facet normal -1.0 0.0 0.0
  outer loop
    vertex 24.999999999999996 27.500000000000007 0.20000000000000004
    vertex 24.999999999999996 24.000000000000004 0.0
    vertex 24.999999999999996 24.000000000000004 0.20000000000000004
  endloop
endfacet
facet normal -1.0 0.0 0.0
  outer loop
    vertex 24.999999999999996 24.000000000000004 0.0
    vertex 24.999999999999996 27.500000000000007 0.20000000000000004
    vertex 24.999999999999996 27.500000000000007 0.0
  endloop
endfacet
facet normal -0.0 -1.0 -0.0
  outer loop
    vertex 24.999999999999996 27.500000000000007 0.20000000000000004
    vertex 22.499999999999996 27.500000000000007 0.0
    vertex 24.999999999999996 27.500000000000007 0.0
  endloop
endfacet
facet normal -0.0 -1.0 -0.0
  outer loop
    vertex 22.499999999999996 27.500000000000007 0.0
    vertex 24.999999999999996 27.500000000000007 0.20000000000000004
    vertex 22.499999999999996 27.500000000000007 0.20000000000000004
  endloop
endfacet
facet normal 1.0 0.0 0.0
  outer loop
    vertex 22.499999999999996 27.500000000000007 0.0
    vertex 22.499999999999996 19.0 0.20000000000000004
    vertex 22.499999999999996 19.0 0.0
  endloop
endfacet
facet normal 1.0 0.0 0.0
  outer loop
    vertex 22.499999999999996 19.0 0.20000000000000004
    vertex 22.499999999999996 27.500000000000007 0.0
    vertex 22.499999999999996 27.500000000000007 0.20000000000000004
  endloop
endfacet
facet normal -2.986348771230753e-16 1.0 3.1516645067810243e-15
  outer loop
    vertex 22.499999999999996 19.0 0.20000000000000004
    vertex 31.0 19.000000000000004 0.0
    vertex 22.499999999999996 19.0 0.0
  endloop
endfacet
facet normal -2.986348771230753e-16 1.0 3.1516645067810243e-15
  outer loop
    vertex 31.0 19.000000000000004 0.0
    vertex 22.499999999999996 19.0 0.20000000000000004
    vertex 31.0 19.000000000000004 0.20000000000000004
  endloop
endfacet
facet normal -2.986348771230753e-16 1.0 3.1516645067810243e-15
  outer loop
    vertex 31.0 19.000000000000004 0.20000000000000004
    vertex 22.499999999999996 19.0 0.20000000000000004
    vertex 23.999999999999996 19.0 0.20000000000000004
  endloop
endfacet
facet normal -2.986348771230753e-16 1.0 3.1516645067810243e-15
  outer loop
    vertex 31.0 19.000000000000004 0.20000000000000004
    vertex 23.999999999999996 19.0 0.20000000000000004
    vertex 28.499999999999993 19.0 0.20000000000000004
  endloop
endfacet
facet normal -1.0 0.0 0.0
  outer loop
    vertex 31.0 31.0 0.20000000000000004
    vertex 31.0 19.000000000000004 0.0
    vertex 31.0 19.000000000000004 0.20000000000000004
  endloop
endfacet
facet normal -1.0 0.0 0.0
  outer loop
    vertex 31.0 19.000000000000004 0.0
    vertex 31.0 31.0 0.20000000000000004
    vertex 31.0 31.0 0.0
  endloop
endfacet
facet normal -0.0 -1.0 -0.0
  outer loop
    vertex 31.0 31.0 0.20000000000000004
    vertex 18.999999999999996 31.0 0.0
    vertex 31.0 31.0 0.0
  endloop
endfacet
facet normal -0.0 -1.0 -0.0
  outer loop
    vertex 18.999999999999996 31.0 0.0
    vertex 31.0 31.0 0.20000000000000004
    vertex 18.999999999999996 31.0 0.20000000000000004
  endloop
endfacet
facet normal 1.0 0.0 0.0
  outer loop
    vertex 18.999999999999996 31.0 0.0
    vertex 18.999999999999996 15.500000000000005 0.20000000000000004
    vertex 18.999999999999996 15.500000000000005 0.0
  endloop
endfacet
facet normal 1.0 0.0 0.0
  outer loop
    vertex 18.999999999999996 15.500000000000005 0.20000000000000004
    vertex 18.999999999999996 31.0 0.0
    vertex 18.999999999999996 31.0 0.20000000000000004
  endloop
endfacet
facet normal 1.997183244497763e-16 1.0 2.4964790556222004e-16
  outer loop
    vertex 18.999999999999996 15.500000000000005 0.20000000000000004
    vertex 34.49999999999999 15.500000000000002 0.0
    vertex 18.999999999999996 15.500000000000005 0.0
  endloop
endfacet
facet normal 1.997183244497763e-16 1.0 2.4964790556222004e-16
  outer loop
    vertex 34.49999999999999 15.500000000000002 0.0
    vertex 18.999999999999996 15.500000000000005 0.20000000000000004
    vertex 34.49999999999999 15.500000000000002 0.20000000000000004
  endloop
endfacet
facet normal 1.997183244497763e-16 1.0 2.4964790556222004e-16
  outer loop
    vertex 34.49999999999999 15.500000000000002 0.20000000000000004
    vertex 18.999999999999996 15.500000000000005 0.20000000000000004
    vertex 23.999999999999996 15.500000000000005 0.20000000000000004
  endloop
endfacet
facet normal 1.997183244497763e-16 1.0 2.4964790556222004e-16
  outer loop
    vertex 34.49999999999999 15.500000000000002 0.20000000000000004
    vertex 23.999999999999996 15.500000000000005 0.20000000000000004
    vertex 28.499999999999993 15.500000000000002 0.20000000000000004
  endloop
endfacet
facet normal -1.0 0.0 0.0
  outer loop
    vertex 34.49999999999999 34.50000000000001 0.20000000000000004
    vertex 34.49999999999999 15.500000000000002 0.0
    vertex 34.49999999999999 15.500000000000002 0.20000000000000004
  endloop
endfacet
facet normal -1.0 0.0 0.0
  outer loop
    vertex 34.49999999999999 15.500000000000002 0.0
    vertex 34.49999999999999 34.50000000000001 0.20000000000000004
    vertex 34.49999999999999 34.50000000000001 0.0
  endloop
endfacet
facet normal -0.0 -1.0 -0.0
  outer loop
    vertex 34.49999999999999 34.50000000000001 0.20000000000000004
    vertex 15.499999999999996 34.50000000000001 0.0
    vertex 34.49999999999999 34.50000000000001 0.0
  endloop
endfacet
facet normal -0.0 -1.0 -0.0
  outer loop
    vertex 15.499999999999996 34.50000000000001 0.0
    vertex 34.49999999999999 34.50000000000001 0.20000000000000004
    vertex 15.499999999999996 34.50000000000001 0.20000000000000004
  endloop
endfacet
facet normal 1.0 0.0 0.0
  outer loop
    vertex 15.499999999999996 34.50000000000001 0.0
    vertex 15.499999999999996 12.000000000000004 0.20000000000000004
    vertex 15.499999999999996 12.000000000000004 0.0
  endloop
endfacet
facet normal 1.0 0.0 0.0
  outer loop
    vertex 15.499999999999996 12.000000000000004 0.20000000000000004
    vertex 15.499999999999996 34.50000000000001 0.0
    vertex 15.499999999999996 34.50000000000001 0.20000000000000004
  endloop
endfacet
facet normal 6.823049800503018e-18 1.0 -1.7539502393418066e-15
  outer loop
    vertex 15.499999999999996 12.000000000000004 0.20000000000000004
    vertex 38.0 12.000000000000004 0.0
    vertex 15.499999999999996 12.000000000000004 0.0
  endloop
endfacet
facet normal 6.823049800503018e-18 1.0 -1.7539502393418066e-15
  outer loop
    vertex 38.0 12.000000000000004 0.0
    vertex 15.499999999999996 12.000000000000004 0.20000000000000004
    vertex 38.0 12.000000000000004 0.20000000000000004
  endloop
endfacet
facet normal 6.823049800503018e-18 1.0 -1.7539502393418066e-15
  outer loop
    vertex 38.0 12.000000000000004 0.20000000000000004
    vertex 15.499999999999996 12.000000000000004 0.20000000000000004
    vertex 23.999999999999996 12.000000000000005 0.20000000000000004
  endloop
endfacet
facet normal 6.823049800503018e-18 1.0 -1.7539502393418066e-15
  outer loop
    vertex 38.0 12.000000000000004 0.20000000000000004
    vertex 23.999999999999996 12.000000000000005 0.20000000000000004
    vertex 28.499999999999993 12.000000000000004 0.20000000000000004
  endloop
endfacet
facet normal -1.0 0.0 0.0
  outer loop
    vertex 38.0 38.0 0.20000000000000004
    vertex 38.0 12.000000000000004 0.0
    vertex 38.0 12.000000000000004 0.20000000000000004
  endloop
endfacet
facet normal -1.0 0.0 0.0
  outer loop
    vertex 38.0 12.000000000000004 0.0
    vertex 38.0 38.0 0.20000000000000004
    vertex 38.0 38.0 0.0
  endloop
endfacet
facet normal -0.0 -1.0 -0.0
  outer loop
    vertex 38.0 38.0 0.20000000000000004
    vertex 11.999999999999996 38.0 0.0
    vertex 38.0 38.0 0.0
  endloop
endfacet
facet normal -0.0 -1.0 -0.0
  outer loop
    vertex 11.999999999999996 38.0 0.0
    vertex 38.0 38.0 0.20000000000000004
    vertex 11.999999999999996 38.0 0.20000000000000004
  endloop
endfacet
facet normal 1.0 4.7796042077083015e-17 0.0
  outer loop
    vertex 11.999999999999996 38.0 0.0
    vertex 11.999999999999998 8.5 0.20000000000000004
    vertex 11.999999999999998 8.5 0.0
  endloop
endfacet
facet normal 1.0 4.7796042077083015e-17 0.0
  outer loop
    vertex 11.999999999999998 8.5 0.20000000000000004
    vertex 11.999999999999996 38.0 0.0
    vertex 11.999999999999996 38.0 0.20000000000000004
  endloop
endfacet
facet normal 4.6832658404273096e-17 1.0 1.8210198745977778e-15
  outer loop
    vertex 11.999999999999998 8.5 0.20000000000000004
    vertex 41.5 8.499999999999998 0.0
    vertex 11.999999999999998 8.5 0.0
  endloop
endfacet
facet normal 4.6832658404273096e-17 1.0 1.8210198745977778e-15
  outer loop
    vertex 41.5 8.499999999999998 0.0
    vertex 11.999999999999998 8.5 0.20000000000000004
    vertex 41.5 8.499999999999998 0.20000000000000004
  endloop
endfacet
facet normal 4.6832658404273096e-17 1.0 1.8210198745977778e-15
  outer loop
    vertex 41.5 8.499999999999998 0.20000000000000004
    vertex 11.999999999999998 8.5 0.20000000000000004
    vertex 23.999999999999996 8.499999999999998 0.20000000000000004
  endloop
endfacet
facet normal 4.6832658404273096e-17 1.0 1.8210198745977778e-15
  outer loop
    vertex 41.5 8.499999999999998 0.20000000000000004
    vertex 23.999999999999996 8.499999999999998 0.20000000000000004
    vertex 28.499999999999993 8.499999999999998 0.20000000000000004
  endloop
endfacet
facet normal -1.0 0.0 0.0
  outer loop
    vertex 41.5 41.5 0.20000000000000004
    vertex 41.5 8.499999999999998 0.0
    vertex 41.5 8.499999999999998 0.20000000000000004
  endloop
endfacet
facet normal -1.0 0.0 0.0
  outer loop
    vertex 41.5 8.499999999999998 0.0
    vertex 41.5 41.5 0.20000000000000004
    vertex 41.5 41.5 0.0
  endloop
endfacet
facet normal -0.0 -1.0 -0.0
  outer loop
    vertex 41.5 41.5 0.20000000000000004
    vertex 8.499999999999996 41.5 0.0
    vertex 41.5 41.5 0.0
  endloop
endfacet
facet normal -0.0 -1.0 -0.0
  outer loop
    vertex 8.499999999999996 41.5 0.0
    vertex 41.5 41.5 0.20000000000000004
    vertex 8.499999999999996 41.5 0.20000000000000004
  endloop
endfacet
facet normal 1.0 3.862967784312188e-17 0.0
  outer loop
    vertex 8.499999999999996 41.5 0.0
    vertex 8.499999999999998 5.000000000000001 0.20000000000000004
    vertex 8.499999999999998 5.000000000000001 0.0
  endloop
endfacet
facet normal 1.0 3.862967784312188e-17 0.0
  outer loop
    vertex 8.499999999999998 5.000000000000001 0.20000000000000004
    vertex 8.499999999999996 41.5 0.0
    vertex 8.499999999999996 41.5 0.20000000000000004
  endloop
endfacet
facet normal -1.0 0.0 0.0
  outer loop
    vertex 45.0 45.0 0.20000000000000004
    vertex 45.0 4.999999999999999 0.0
    vertex 45.0 4.999999999999999 0.20000000000000004
  endloop
endfacet
facet normal -1.0 0.0 0.0
  outer loop
    vertex 45.0 4.999999999999999 0.0
    vertex 45.0 45.0 0.20000000000000004
    vertex 45.0 45.0 0.0
  endloop
endfacet
facet normal -0.0 -1.0 -0.0
  outer loop
    vertex 45.0 45.0 0.20000000000000004
    vertex 4.999999999999998 45.0 0.0
    vertex 45.0 45.0 0.0
  endloop
endfacet
facet normal -0.0 -1.0 -0.0
  outer loop
    vertex 4.999999999999998 45.0 0.0
    vertex 45.0 45.0 0.20000000000000004
    vertex 4.999999999999998 45.0 0.20000000000000004
  endloop
endfacet
facet normal 1.0 3.241340784537814e-17 0.0
  outer loop
    vertex 4.999999999999998 45.0 0.0
    vertex 4.999999999999999 1.5000000000000042 0.20000000000000004
    vertex 4.999999999999999 1.5000000000000042 0.0
  endloop
endfacet
facet normal 1.0 3.241340784537814e-17 0.0
  outer loop
    vertex 4.999999999999999 1.5000000000000042 0.20000000000000004
    vertex 4.999999999999998 45.0 0.0
    vertex 4.999999999999998 45.0 0.20000000000000004
  endloop
endfacet
facet normal -1.0 0.0 0.0
  outer loop
    vertex 48.5 48.5 0.20000000000000004
    vertex 48.5 1.5 0.0
    vertex 48.5 1.5 0.20000000000000004
  endloop
endfacet
facet normal -1.0 0.0 0.0
  outer loop
    vertex 48.5 1.5 0.0
    vertex 48.5 48.5 0.20000000000000004
    vertex 48.5 48.5 0.0
  endloop
endfacet
facet normal -0.0 -1.0 -0.0
  outer loop
    vertex 48.5 48.5 0.20000000000000004
    vertex 1.5000000000000016 48.5 0.0
    vertex 48.5 48.5 0.0
  endloop
endfacet
facet normal -0.0 -1.0 -0.0
  outer loop
    vertex 1.5000000000000016 48.5 0.0
    vertex 48.5 48.5 0.20000000000000004
    vertex 1.5000000000000016 48.5 0.20000000000000004
  endloop
endfacet
facet normal 1.0 -2.907181940771028e-17 -0.0
  outer loop
    vertex 1.5000000000000016 48.5 0.0
    vertex 1.5 0.0 0.20000000000000004
    vertex 1.5 0.0 0.0
  endloop
endfacet
facet normal 1.0 -2.907181940771028e-17 -0.0
  outer loop
    vertex 1.5 0.0 0.20000000000000004
    vertex 1.5000000000000016 48.5 0.0
    vertex 1.5000000000000016 48.5 0.20000000000000004
  endloop
endfacet
facet normal -0.0 1.0 0.0
  outer loop
    vertex 0.0 50.0 0.20000000000000004
    vertex 50.0 50.0 0.0
    vertex 0.0 50.0 0.0
  endloop
endfacet
facet normal -0.0 1.0 0.0
  outer loop
    vertex 50.0 50.0 0.0
    vertex 0.0 50.0 0.20000000000000004
    vertex 50.0 50.0 0.20000000000000004
  endloop
endfacet
facet normal 1.0 0.0 0.0
  outer loop
    vertex 50.0 50.0 0.0
    vertex 50.0 0.0 0.20000000000000004
    vertex 50.0 0.0 0.0
  endloop
endfacet
facet normal 1.0 0.0 0.0
  outer loop
    vertex 50.0 0.0 0.20000000000000004
    vertex 50.0 50.0 0.0
    vertex 50.0 50.0 0.20000000000000004
  endloop
endfacet
facet normal -1.0 0.0 0.0
  outer loop
    vertex 3.499999999999999 46.5 0.20000000000000004
    vertex 3.499999999999999 0.0 0.0
    vertex 3.499999999999999 0.0 0.20000000000000004
  endloop
endfacet
facet normal -1.0 0.0 0.0
  outer loop
    vertex 3.499999999999999 0.0 0.0
    vertex 3.499999999999999 46.5 0.20000000000000004
    vertex 3.499999999999999 46.5 0.0
  endloop
endfacet
facet normal -0.0 1.0 0.0
  outer loop
    vertex 3.499999999999999 46.5 0.20000000000000004
    vertex 46.5 46.5 0.0
    vertex 3.499999999999999 46.5 0.0
  endloop
endfacet
facet normal -0.0 1.0 0.0
  outer loop
    vertex 46.5 46.5 0.0
    vertex 3.499999999999999 46.5 0.20000000000000004
    vertex 46.5 46.5 0.20000000000000004
  endloop
endfacet
facet normal 1.0 0.0 0.0
  outer loop
    vertex 46.5 46.5 0.0
    vertex 46.5 3.499999999999999 0.20000000000000004
    vertex 46.5 3.499999999999999 0.0
  endloop
endfacet
facet normal 1.0 0.0 0.0
  outer loop
    vertex 46.5 3.499999999999999 0.20000000000000004
    vertex 46.5 46.5 0.0
    vertex 46.5 46.5 0.20000000000000004
  endloop
endfacet
facet normal -1.0 0.0 0.0
  outer loop
    vertex 6.999999999999998 43.0 0.20000000000000004
    vertex 6.999999999999998 3.499999999999999 0.0
    vertex 6.999999999999998 3.499999999999999 0.20000000000000004
  endloop
endfacet
facet normal -1.0 0.0 0.0
  outer loop
    vertex 6.999999999999998 3.499999999999999 0.0
    vertex 6.999999999999998 43.0 0.20000000000000004
    vertex 6.999999999999998 43.0 0.0
  endloop
endfacet
facet normal -0.0 1.0 0.0
  outer loop
    vertex 6.999999999999998 43.0 0.20000000000000004
    vertex 43.0 43.0 0.0
    vertex 6.999999999999998 43.0 0.0
  endloop
endfacet
facet normal -0.0 1.0 0.0
  outer loop
    vertex 43.0 43.0 0.0
    vertex 6.999999999999998 43.0 0.20000000000000004
    vertex 43.0 43.0 0.20000000000000004
  endloop
endfacet
facet normal 1.0 0.0 0.0
  outer loop
    vertex 43.0 43.0 0.0
    vertex 43.0 6.999999999999998 0.20000000000000004
    vertex 43.0 6.999999999999998 0.0
  endloop
endfacet
facet normal 1.0 0.0 0.0
  outer loop
    vertex 43.0 6.999999999999998 0.20000000000000004
    vertex 43.0 43.0 0.0
    vertex 43.0 43.0 0.20000000000000004
  endloop
endfacet
facet normal -1.0 0.0 0.0
  outer loop
    vertex 10.499999999999998 39.5 0.20000000000000004
    vertex 10.499999999999998 6.999999999999998 0.0
    vertex 10.499999999999998 6.999999999999998 0.20000000000000004
  endloop
endfacet
facet normal -1.0 0.0 0.0
  outer loop
    vertex 10.499999999999998 6.999999999999998 0.0
    vertex 10.499999999999998 39.5 0.20000000000000004
    vertex 10.499999999999998 39.5 0.0
  endloop
endfacet
facet normal -0.0 1.0 0.0
  outer loop
    vertex 10.499999999999998 39.5 0.20000000000000004
    vertex 39.49999999999999 39.5 0.0
    vertex 10.499999999999998 39.5 0.0
  endloop
endfacet
facet normal -0.0 1.0 0.0
  outer loop
    vertex 39.49999999999999 39.5 0.0
    vertex 10.499999999999998 39.5 0.20000000000000004
    vertex 39.49999999999999 39.5 0.20000000000000004
  endloop
endfacet
facet normal 1.0 0.0 0.0
  outer loop
    vertex 39.49999999999999 39.5 0.0
    vertex 39.49999999999999 10.500000000000004 0.20000000000000004
    vertex 39.49999999999999 10.500000000000004 0.0
  endloop
endfacet
facet normal 1.0 0.0 0.0
  outer loop
    vertex 39.49999999999999 10.500000000000004 0.20000000000000004
    vertex 39.49999999999999 39.5 0.0
    vertex 39.49999999999999 39.5 0.20000000000000004
  endloop
endfacet
facet normal 0.0 -1.0 0.0
  outer loop
    vertex 39.49999999999999 10.500000000000004 0.20000000000000004
    vertex 13.999999999999996 10.500000000000004 0.0
    vertex 39.49999999999999 10.500000000000004 0.0
  endloop
endfacet
facet normal 0.0 -1.0 0.0
  outer loop
    vertex 13.999999999999996 10.500000000000004 0.0
    vertex 39.49999999999999 10.500000000000004 0.20000000000000004
    vertex 13.999999999999996 10.500000000000004 0.20000000000000004
  endloop
endfacet
facet normal 0.0 -1.0 0.0
  outer loop
    vertex 13.999999999999996 10.500000000000004 0.20000000000000004
    vertex 39.49999999999999 10.500000000000004 0.20000000000000004
    vertex 28.499999999999993 10.500000000000004 0.20000000000000004
  endloop
endfacet
facet normal 0.0 -1.0 0.0
  outer loop
    vertex 13.999999999999996 10.500000000000004 0.20000000000000004
    vertex 28.499999999999993 10.500000000000004 0.20000000000000004
    vertex 23.999999999999996 10.500000000000004 0.20000000000000004
  endloop
endfacet
facet normal -1.0 0.0 0.0
  outer loop
    vertex 13.999999999999996 36.0 0.20000000000000004
    vertex 13.999999999999996 10.500000000000004 0.0
    vertex 13.999999999999996 10.500000000000004 0.20000000000000004
  endloop
endfacet
facet normal -1.0 0.0 0.0
  outer loop
    vertex 13.999999999999996 10.500000000000004 0.0
    vertex 13.999999999999996 36.0 0.20000000000000004
    vertex 13.999999999999996 36.0 0.0
  endloop
endfacet
facet normal -0.0 1.0 0.0
  outer loop
    vertex 13.999999999999996 36.0 0.20000000000000004
    vertex 35.99999999999999 36.0 0.0
    vertex 13.999999999999996 36.0 0.0
  endloop
endfacet
facet normal -0.0 1.0 0.0
  outer loop
    vertex 35.99999999999999 36.0 0.0
    vertex 13.999999999999996 36.0 0.20000000000000004
    vertex 35.99999999999999 36.0 0.20000000000000004
  endloop
endfacet
facet normal 1.0 0.0 0.0
  outer loop
    vertex 35.99999999999999 36.0 0.0
    vertex 35.99999999999999 14.000000000000002 0.20000000000000004
    vertex 35.99999999999999 14.000000000000002 0.0
  endloop
endfacet
facet normal 1.0 0.0 0.0
  outer loop
    vertex 35.99999999999999 14.000000000000002 0.20000000000000004
    vertex 35.99999999999999 36.0 0.0
    vertex 35.99999999999999 36.0 0.20000000000000004
  endloop
endfacet
facet normal 0.0 -1.0 0.0
  outer loop
    vertex 35.99999999999999 14.000000000000002 0.20000000000000004
    vertex 17.499999999999996 14.000000000000002 0.0
    vertex 35.99999999999999 14.000000000000002 0.0
  endloop
endfacet
facet normal 0.0 -1.0 0.0
  outer loop
    vertex 17.499999999999996 14.000000000000002 0.0
    vertex 35.99999999999999 14.000000000000002 0.20000000000000004
    vertex 17.499999999999996 14.000000000000002 0.20000000000000004
  endloop
endfacet
facet normal 0.0 -1.0 0.0
  outer loop
    vertex 17.499999999999996 14.000000000000002 0.20000000000000004
    vertex 35.99999999999999 14.000000000000002 0.20000000000000004
    vertex 28.499999999999993 14.000000000000002 0.20000000000000004
  endloop
endfacet
facet normal 0.0 -1.0 0.0
  outer loop
    vertex 17.499999999999996 14.000000000000002 0.20000000000000004
    vertex 28.499999999999993 14.000000000000002 0.20000000000000004
    vertex 23.999999999999996 14.000000000000002 0.20000000000000004
  endloop
endfacet
facet normal -1.0 0.0 0.0
  outer loop
    vertex 17.499999999999996 32.5 0.20000000000000004
    vertex 17.499999999999996 14.000000000000002 0.0
    vertex 17.499999999999996 14.000000000000002 0.20000000000000004
  endloop
endfacet
facet normal -1.0 0.0 0.0
  outer loop
    vertex 17.499999999999996 14.000000000000002 0.0
    vertex 17.499999999999996 32.5 0.20000000000000004
    vertex 17.499999999999996 32.5 0.0
  endloop
endfacet
facet normal -0.0 1.0 0.0
  outer loop
    vertex 17.499999999999996 32.5 0.20000000000000004
    vertex 32.5 32.5 0.0
    vertex 17.499999999999996 32.5 0.0
  endloop
endfacet
facet normal -0.0 1.0 0.0
  outer loop
    vertex 32.5 32.5 0.0
    vertex 17.499999999999996 32.5 0.20000000000000004
    vertex 32.5 32.5 0.20000000000000004
  endloop
endfacet
facet normal 1.0 0.0 0.0
  outer loop
    vertex 32.5 32.5 0.0
    vertex 32.5 17.5 0.20000000000000004
    vertex 32.5 17.5 0.0
  endloop
endfacet
facet normal 1.0 0.0 0.0
  outer loop
    vertex 32.5 17.5 0.20000000000000004
    vertex 32.5 32.5 0.0
    vertex 32.5 32.5 0.20000000000000004
  endloop
endfacet
facet normal 0.0 -1.0 0.0
  outer loop
    vertex 32.5 17.5 0.20000000000000004
    vertex 20.999999999999996 17.5 0.0
    vertex 32.5 17.5 0.0
  endloop
endfacet
facet normal 0.0 -1.0 0.0
  outer loop
    vertex 20.999999999999996 17.5 0.0
    vertex 32.5 17.5 0.20000000000000004
    vertex 20.999999999999996 17.5 0.20000000000000004
  endloop
endfacet
facet normal 0.0 -1.0 0.0
  outer loop
    vertex 20.999999999999996 17.5 0.20000000000000004
    vertex 32.5 17.5 0.20000000000000004
    vertex 28.499999999999993 17.5 0.20000000000000004
  endloop
endfacet
facet normal 0.0 -1.0 0.0
  outer loop
    vertex 20.999999999999996 17.5 0.20000000000000004
    vertex 28.499999999999993 17.5 0.20000000000000004
    vertex 23.999999999999996 17.5 0.20000000000000004
  endloop
endfacet
facet normal 0.0 0.0 -1.0
  outer loop
    vertex 24.999999999999996 24.000000000000004 0.20000000000000004
    vertex 23.999999999999996 19.0 0.20000000000000004
    vertex 23.999999999999996 24.000000000000004 0.20000000000000004
  endloop
endfacet
facet normal 0.0 0.0 -1.0
  outer loop
    vertex 23.999999999999996 19.0 0.20000000000000004
    vertex 24.999999999999996 24.000000000000004 0.20000000000000004
    vertex 28.499999999999993 19.0 0.20000000000000004
  endloop
endfacet
facet normal 0.0 0.0 -1.0
  outer loop
    vertex 28.499999999999993 19.0 0.20000000000000004
    vertex 24.999999999999996 24.000000000000004 0.20000000000000004
    vertex 27.499999999999996 24.000000000000004 0.20000000000000004
  endloop
endfacet
facet normal 0.0 0.0 -1.0
  outer loop
    vertex 28.499999999999993 19.0 0.20000000000000004
    vertex 27.499999999999996 24.000000000000004 0.20000000000000004
    vertex 28.499999999999993 24.000000000000004 0.20000000000000004
  endloop
endfacet
facet normal -0.0 -0.0 1.0
  outer loop
    vertex 17.499999999999996 14.000000000000002 0.20000000000000004
    vertex 18.999999999999996 15.500000000000005 0.20000000000000004
    vertex 17.499999999999996 32.5 0.20000000000000004
  endloop
endfacet
facet normal -0.0 -0.0 1.0
  outer loop
    vertex 18.999999999999996 15.500000000000005 0.20000000000000004
    vertex 17.499999999999996 14.000000000000002 0.20000000000000004
    vertex 23.999999999999996 14.000000000000002 0.20000000000000004
  endloop
endfacet
facet normal -0.0 -0.0 1.0
  outer loop
    vertex 18.999999999999996 15.500000000000005 0.20000000000000004
    vertex 23.999999999999996 14.000000000000002 0.20000000000000004
    vertex 23.999999999999996 15.500000000000005 0.20000000000000004
  endloop
endfacet
facet normal -0.0 -0.0 1.0
  outer loop
    vertex 32.5 17.5 0.20000000000000004
    vertex 28.499999999999993 19.0 0.20000000000000004
    vertex 28.499999999999993 17.5 0.20000000000000004
  endloop
endfacet
facet normal -0.0 -0.0 1.0
  outer loop
    vertex 28.499999999999993 19.0 0.20000000000000004
    vertex 32.5 17.5 0.20000000000000004
    vertex 31.0 19.000000000000004 0.20000000000000004
  endloop
endfacet
facet normal -0.0 -0.0 1.0
  outer loop
    vertex 31.0 19.000000000000004 0.20000000000000004
    vertex 32.5 17.5 0.20000000000000004
    vertex 31.0 31.0 0.20000000000000004
  endloop
endfacet
facet normal -0.0 -0.0 1.0
  outer loop
    vertex 17.499999999999996 32.5 0.20000000000000004
    vertex 18.999999999999996 31.0 0.20000000000000004
    vertex 32.5 32.5 0.20000000000000004
  endloop
endfacet
facet normal -0.0 -0.0 1.0
  outer loop
    vertex 18.999999999999996 31.0 0.20000000000000004
    vertex 17.499999999999996 32.5 0.20000000000000004
    vertex 18.999999999999996 15.500000000000005 0.20000000000000004
  endloop
endfacet
facet normal -0.0 -0.0 1.0
  outer loop
    vertex 32.5 32.5 0.20000000000000004
    vertex 18.999999999999996 31.0 0.20000000000000004
    vertex 31.0 31.0 0.20000000000000004
  endloop
endfacet
facet normal -0.0 -0.0 1.0
  outer loop
    vertex 32.5 32.5 0.20000000000000004
    vertex 31.0 31.0 0.20000000000000004
    vertex 32.5 17.5 0.20000000000000004
  endloop
endfacet
facet normal 0.0 0.0 -1.0
  outer loop
    vertex 28.499999999999993 10.500000000000004 0.20000000000000004
    vertex 23.999999999999996 8.499999999999998 0.20000000000000004
    vertex 23.999999999999996 10.500000000000004 0.20000000000000004
  endloop
endfacet
facet normal 0.0 0.0 -1.0
  outer loop
    vertex 23.999999999999996 8.499999999999998 0.20000000000000004
    vertex 28.499999999999993 10.500000000000004 0.20000000000000004
    vertex 28.499999999999993 8.499999999999998 0.20000000000000004
  endloop
endfacet
facet normal -0.0 -0.0 1.0
  outer loop
    vertex 13.999999999999996 10.500000000000004 0.20000000000000004
    vertex 15.499999999999996 12.000000000000004 0.20000000000000004
    vertex 13.999999999999996 36.0 0.20000000000000004
  endloop
endfacet
facet normal -0.0 -0.0 1.0
  outer loop
    vertex 15.499999999999996 12.000000000000004 0.20000000000000004
    vertex 13.999999999999996 10.500000000000004 0.20000000000000004
    vertex 23.999999999999996 10.500000000000004 0.20000000000000004
  endloop
endfacet
facet normal -0.0 -0.0 1.0
  outer loop
    vertex 15.499999999999996 12.000000000000004 0.20000000000000004
    vertex 23.999999999999996 10.500000000000004 0.20000000000000004
    vertex 23.999999999999996 12.000000000000005 0.20000000000000004
  endloop
endfacet
facet normal -0.0 -0.0 1.0
  outer loop
    vertex 35.99999999999999 14.000000000000002 0.20000000000000004
    vertex 28.499999999999993 15.500000000000002 0.20000000000000004
    vertex 28.499999999999993 14.000000000000002 0.20000000000000004
  endloop
endfacet
facet normal -0.0 -0.0 1.0
  outer loop
    vertex 28.499999999999993 15.500000000000002 0.20000000000000004
    vertex 35.99999999999999 14.000000000000002 0.20000000000000004
    vertex 34.49999999999999 15.500000000000002 0.20000000000000004
  endloop
endfacet
facet normal -0.0 -0.0 1.0
  outer loop
    vertex 34.49999999999999 15.500000000000002 0.20000000000000004
    vertex 35.99999999999999 14.000000000000002 0.20000000000000004
    vertex 34.49999999999999 34.50000000000001 0.20000000000000004
  endloop
endfacet
facet normal -0.0 -0.0 1.0
  outer loop
    vertex 13.999999999999996 36.0 0.20000000000000004
    vertex 15.499999999999996 34.50000000000001 0.20000000000000004
    vertex 35.99999999999999 36.0 0.20000000000000004
  endloop
endfacet
facet normal -0.0 -0.0 1.0
  outer loop
    vertex 15.499999999999996 34.50000000000001 0.20000000000000004
    vertex 13.999999999999996 36.0 0.20000000000000004
    vertex 15.499999999999996 12.000000000000004 0.20000000000000004
  endloop
endfacet
facet normal -0.0 -0.0 1.0
  outer loop
    vertex 35.99999999999999 36.0 0.20000000000000004
    vertex 15.499999999999996 34.50000000000001 0.20000000000000004
    vertex 34.49999999999999 34.50000000000001 0.20000000000000004
  endloop
endfacet
facet normal -0.0 -0.0 1.0
  outer loop
    vertex 35.99999999999999 36.0 0.20000000000000004
    vertex 34.49999999999999 34.50000000000001 0.20000000000000004
    vertex 35.99999999999999 14.000000000000002 0.20000000000000004
  endloop
endfacet
facet normal -0.0 -0.0 1.0
  outer loop
    vertex 20.999999999999996 17.5 0.20000000000000004
    vertex 22.499999999999996 19.0 0.20000000000000004
    vertex 20.999999999999996 29.000000000000004 0.20000000000000004
  endloop
endfacet
facet normal -0.0 -0.0 1.0
  outer loop
    vertex 22.499999999999996 19.0 0.20000000000000004
    vertex 20.999999999999996 17.5 0.20000000000000004
    vertex 23.999999999999996 17.5 0.20000000000000004
  endloop
endfacet
facet normal -0.0 -0.0 1.0
  outer loop
    vertex 22.499999999999996 19.0 0.20000000000000004
    vertex 23.999999999999996 17.5 0.20000000000000004
    vertex 23.999999999999996 19.0 0.20000000000000004
  endloop
endfacet
facet normal -0.0 -0.0 1.0
  outer loop
    vertex 27.499999999999996 24.000000000000004 0.20000000000000004
    vertex 24.999999999999996 27.500000000000007 0.20000000000000004
    vertex 24.999999999999996 24.000000000000004 0.20000000000000004
  endloop
endfacet
facet normal -0.0 -0.0 1.0
  outer loop
    vertex 20.999999999999996 29.000000000000004 0.20000000000000004
    vertex 22.499999999999996 27.500000000000007 0.20000000000000004
    vertex 27.499999999999996 29.000000000000004 0.20000000000000004
  endloop
endfacet
facet normal -0.0 -0.0 1.0
  outer loop
    vertex 22.499999999999996 27.500000000000007 0.20000000000000004
    vertex 20.999999999999996 29.000000000000004 0.20000000000000004
    vertex 22.499999999999996 19.0 0.20000000000000004
  endloop
endfacet
facet normal -0.0 -0.0 1.0
  outer loop
    vertex 27.499999999999996 29.000000000000004 0.20000000000000004
    vertex 22.499999999999996 27.500000000000007 0.20000000000000004
    vertex 24.999999999999996 27.500000000000007 0.20000000000000004
  endloop
endfacet
facet normal -0.0 -0.0 1.0
  outer loop
    vertex 27.499999999999996 29.000000000000004 0.20000000000000004
    vertex 24.999999999999996 27.500000000000007 0.20000000000000004
    vertex 27.499999999999996 24.000000000000004 0.20000000000000004
  endloop
endfacet
facet normal 0.0 0.0 -1.0
  outer loop
    vertex 28.499999999999993 14.000000000000002 0.20000000000000004
    vertex 23.999999999999996 12.000000000000005 0.20000000000000004
    vertex 23.999999999999996 14.000000000000002 0.20000000000000004
  endloop
endfacet
facet normal 0.0 0.0 -1.0
  outer loop
    vertex 23.999999999999996 12.000000000000005 0.20000000000000004
    vertex 28.499999999999993 14.000000000000002 0.20000000000000004
    vertex 28.499999999999993 12.000000000000004 0.20000000000000004
  endloop
endfacet
facet normal -0.0 -0.0 1.0
  outer loop
    vertex 10.499999999999998 6.999999999999998 0.20000000000000004
    vertex 11.999999999999998 8.5 0.20000000000000004
    vertex 10.499999999999998 39.5 0.20000000000000004
  endloop
endfacet
facet normal -0.0 -0.0 1.0
  outer loop
    vertex 11.999999999999998 8.5 0.20000000000000004
    vertex 10.499999999999998 6.999999999999998 0.20000000000000004
    vertex 23.999999999999996 6.999999999999998 0.20000000000000004
  endloop
endfacet
facet normal -0.0 -0.0 1.0
  outer loop
    vertex 10.499999999999998 39.5 0.20000000000000004
    vertex 11.999999999999998 8.5 0.20000000000000004
    vertex 11.999999999999996 38.0 0.20000000000000004
  endloop
endfacet
facet normal -0.0 -0.0 1.0
  outer loop
    vertex 11.999999999999998 8.5 0.20000000000000004
    vertex 23.999999999999996 6.999999999999998 0.20000000000000004
    vertex 23.999999999999996 8.499999999999998 0.20000000000000004
  endloop
endfacet
facet normal -0.0 -0.0 1.0
  outer loop
    vertex 39.49999999999999 10.500000000000004 0.20000000000000004
    vertex 28.499999999999993 12.000000000000004 0.20000000000000004
    vertex 28.499999999999993 10.500000000000004 0.20000000000000004
  endloop
endfacet
facet normal -0.0 -0.0 1.0
  outer loop
    vertex 28.499999999999993 12.000000000000004 0.20000000000000004
    vertex 39.49999999999999 10.500000000000004 0.20000000000000004
    vertex 38.0 12.000000000000004 0.20000000000000004
  endloop
endfacet
facet normal -0.0 -0.0 1.0
  outer loop
    vertex 38.0 12.000000000000004 0.20000000000000004
    vertex 39.49999999999999 10.500000000000004 0.20000000000000004
    vertex 38.0 38.0 0.20000000000000004
  endloop
endfacet
facet normal -0.0 -0.0 1.0
  outer loop
    vertex 11.999999999999996 38.0 0.20000000000000004
    vertex 39.49999999999999 39.5 0.20000000000000004
    vertex 10.499999999999998 39.5 0.20000000000000004
  endloop
endfacet
facet normal -0.0 -0.0 1.0
  outer loop
    vertex 39.49999999999999 39.5 0.20000000000000004
    vertex 11.999999999999996 38.0 0.20000000000000004
    vertex 38.0 38.0 0.20000000000000004
  endloop
endfacet
facet normal -0.0 -0.0 1.0
  outer loop
    vertex 39.49999999999999 39.5 0.20000000000000004
    vertex 38.0 38.0 0.20000000000000004
    vertex 39.49999999999999 10.500000000000004 0.20000000000000004
  endloop
endfacet
facet normal -0.0 -0.0 1.0
  outer loop
    vertex 6.999999999999998 3.499999999999999 0.20000000000000004
    vertex 8.499999999999998 5.000000000000001 0.20000000000000004
    vertex 6.999999999999998 43.0 0.20000000000000004
  endloop
endfacet
facet normal -0.0 -0.0 1.0
  outer loop
    vertex 8.499999999999998 5.000000000000001 0.20000000000000004
    vertex 6.999999999999998 3.499999999999999 0.20000000000000004
    vertex 23.999999999999996 3.5000000000000004 0.20000000000000004
  endloop
endfacet
facet normal -0.0 -0.0 1.0
  outer loop
    vertex 6.999999999999998 43.0 0.20000000000000004
    vertex 8.499999999999998 5.000000000000001 0.20000000000000004
    vertex 8.499999999999996 41.5 0.20000000000000004
  endloop
endfacet
facet normal -0.0 -0.0 1.0
  outer loop
    vertex 8.499999999999998 5.000000000000001 0.20000000000000004
    vertex 23.999999999999996 3.5000000000000004 0.20000000000000004
    vertex 23.999999999999996 4.999999999999999 0.20000000000000004
  endloop
endfacet
facet normal -0.0 -0.0 1.0
  outer loop
    vertex 43.0 6.999999999999998 0.20000000000000004
    vertex 28.499999999999993 8.499999999999998 0.20000000000000004
    vertex 28.499999999999993 6.999999999999998 0.20000000000000004
  endloop
endfacet
facet normal -0.0 -0.0 1.0
  outer loop
    vertex 28.499999999999993 8.499999999999998 0.20000000000000004
    vertex 43.0 6.999999999999998 0.20000000000000004
    vertex 41.5 8.499999999999998 0.20000000000000004
  endloop
endfacet
facet normal -0.0 -0.0 1.0
  outer loop
    vertex 41.5 8.499999999999998 0.20000000000000004
    vertex 43.0 6.999999999999998 0.20000000000000004
    vertex 41.5 41.5 0.20000000000000004
  endloop
endfacet
facet normal -0.0 -0.0 1.0
  outer loop
    vertex 8.499999999999996 41.5 0.20000000000000004
    vertex 43.0 43.0 0.20000000000000004
    vertex 6.999999999999998 43.0 0.20000000000000004
  endloop
endfacet
facet normal -0.0 -0.0 1.0
  outer loop
    vertex 43.0 43.0 0.20000000000000004
    vertex 8.499999999999996 41.5 0.20000000000000004
    vertex 41.5 41.5 0.20000000000000004
  endloop
endfacet
facet normal -0.0 -0.0 1.0
  outer loop
    vertex 43.0 43.0 0.20000000000000004
    vertex 41.5 41.5 0.20000000000000004
    vertex 43.0 6.999999999999998 0.20000000000000004
  endloop
endfacet
facet normal 0.0 0.0 -1.0
  outer loop
    vertex 28.499999999999993 17.5 0.20000000000000004
    vertex 23.999999999999996 15.500000000000005 0.20000000000000004
    vertex 23.999999999999996 17.5 0.20000000000000004
  endloop
endfacet
facet normal 0.0 0.0 -1.0
  outer loop
    vertex 23.999999999999996 15.500000000000005 0.20000000000000004
    vertex 28.499999999999993 17.5 0.20000000000000004
    vertex 28.499999999999993 15.500000000000002 0.20000000000000004
  endloop
endfacet
facet normal -0.0 -0.0 1.0
  outer loop
    vertex 3.499999999999999 0.0 0.20000000000000004
    vertex 4.999999999999999 1.5000000000000042 0.20000000000000004
    vertex 3.499999999999999 46.5 0.20000000000000004
  endloop
endfacet
facet normal -0.0 -0.0 1.0
  outer loop
    vertex 4.999999999999999 1.5000000000000042 0.20000000000000004
    vertex 3.499999999999999 0.0 0.20000000000000004
    vertex 23.999999999999996 -2.2050928181541986e-16 0.20000000000000004
  endloop
endfacet
facet normal -0.0 -0.0 1.0
  outer loop
    vertex 3.499999999999999 46.5 0.20000000000000004
    vertex 4.999999999999999 1.5000000000000042 0.20000000000000004
    vertex 4.999999999999998 45.0 0.20000000000000004
  endloop
endfacet
facet normal -0.0 -0.0 1.0
  outer loop
    vertex 4.999999999999999 1.5000000000000042 0.20000000000000004
    vertex 23.999999999999996 -2.2050928181541986e-16 0.20000000000000004
    vertex 23.999999999999996 1.5000000000000027 0.20000000000000004
  endloop
endfacet
facet normal -0.0 -0.0 1.0
  outer loop
    vertex 46.5 3.499999999999999 0.20000000000000004
    vertex 28.499999999999993 4.999999999999999 0.20000000000000004
    vertex 28.499999999999993 3.499999999999999 0.20000000000000004
  endloop
endfacet
facet normal -0.0 -0.0 1.0
  outer loop
    vertex 28.499999999999993 4.999999999999999 0.20000000000000004
    vertex 46.5 3.499999999999999 0.20000000000000004
    vertex 45.0 4.999999999999999 0.20000000000000004
  endloop
endfacet
facet normal -0.0 -0.0 1.0
  outer loop
    vertex 45.0 4.999999999999999 0.20000000000000004
    vertex 46.5 3.499999999999999 0.20000000000000004
    vertex 45.0 45.0 0.20000000000000004
  endloop
endfacet
facet normal -0.0 -0.0 1.0
  outer loop
    vertex 4.999999999999998 45.0 0.20000000000000004
    vertex 46.5 46.5 0.20000000000000004
    vertex 3.499999999999999 46.5 0.20000000000000004
  endloop
endfacet
facet normal -0.0 -0.0 1.0
  outer loop
    vertex 46.5 46.5 0.20000000000000004
    vertex 4.999999999999998 45.0 0.20000000000000004
    vertex 45.0 45.0 0.20000000000000004
  endloop
endfacet
facet normal -0.0 -0.0 1.0
  outer loop
    vertex 46.5 46.5 0.20000000000000004
    vertex 45.0 45.0 0.20000000000000004
    vertex 46.5 3.499999999999999 0.20000000000000004
  endloop
endfacet
facet normal 0.0 -1.0 0.0
  outer loop
    vertex 43.0 6.999999999999998 0.20000000000000004
    vertex 10.499999999999998 6.999999999999998 0.0
    vertex 43.0 6.999999999999998 0.0
  endloop
endfacet
facet normal 0.0 -1.0 0.0
  outer loop
    vertex 10.499999999999998 6.999999999999998 0.0
    vertex 43.0 6.999999999999998 0.20000000000000004
    vertex 10.499999999999998 6.999999999999998 0.20000000000000004
  endloop
endfacet
facet normal 0.0 -1.0 0.0
  outer loop
    vertex 10.499999999999998 6.999999999999998 0.20000000000000004
    vertex 43.0 6.999999999999998 0.20000000000000004
    vertex 28.499999999999993 6.999999999999998 0.20000000000000004
  endloop
endfacet
facet normal 0.0 -1.0 0.0
  outer loop
    vertex 10.499999999999998 6.999999999999998 0.20000000000000004
    vertex 28.499999999999993 6.999999999999998 0.20000000000000004
    vertex 23.999999999999996 6.999999999999998 0.20000000000000004
  endloop
endfacet
facet normal 0.0 0.0 -1.0
  outer loop
    vertex 28.499999999999993 6.999999999999998 0.20000000000000004
    vertex 23.999999999999996 4.999999999999999 0.20000000000000004
    vertex 23.999999999999996 6.999999999999998 0.20000000000000004
  endloop
endfacet
facet normal 0.0 0.0 -1.0
  outer loop
    vertex 23.999999999999996 4.999999999999999 0.20000000000000004
    vertex 28.499999999999993 6.999999999999998 0.20000000000000004
    vertex 28.499999999999993 4.999999999999999 0.20000000000000004
  endloop
endfacet
facet normal 3.80686286164645e-17 1.0 1.8100648373630167e-15
  outer loop
    vertex 8.499999999999998 5.000000000000001 0.20000000000000004
    vertex 45.0 4.999999999999999 0.0
    vertex 8.499999999999998 5.000000000000001 0.0
  endloop
endfacet
facet normal 3.80686286164645e-17 1.0 1.8100648373630167e-15
  outer loop
    vertex 45.0 4.999999999999999 0.0
    vertex 8.499999999999998 5.000000000000001 0.20000000000000004
    vertex 45.0 4.999999999999999 0.20000000000000004
  endloop
endfacet
facet normal 3.80686286164645e-17 1.0 1.8100648373630167e-15
  outer loop
    vertex 45.0 4.999999999999999 0.20000000000000004
    vertex 8.499999999999998 5.000000000000001 0.20000000000000004
    vertex 23.999999999999996 4.999999999999999 0.20000000000000004
  endloop
endfacet
facet normal 3.80686286164645e-17 1.0 1.8100648373630167e-15
  outer loop
    vertex 45.0 4.999999999999999 0.20000000000000004
    vertex 23.999999999999996 4.999999999999999 0.20000000000000004
    vertex 28.499999999999993 4.999999999999999 0.20000000000000004
  endloop
endfacet
facet normal 0.0 0.0 -1.0
  outer loop
    vertex 28.499999999999993 3.499999999999999 0.20000000000000004
    vertex 23.999999999999996 1.5000000000000027 0.20000000000000004
    vertex 23.999999999999996 3.5000000000000004 0.20000000000000004
  endloop
endfacet
facet normal 0.0 0.0 -1.0
  outer loop
    vertex 23.999999999999996 1.5000000000000027 0.20000000000000004
    vertex 28.499999999999993 3.499999999999999 0.20000000000000004
    vertex 28.499999999999993 1.5000000000000018 0.20000000000000004
  endloop
endfacet
facet normal -2.24430281141894e-18 -1.0 1.7596736730781617e-15
  outer loop
    vertex 46.5 3.499999999999999 0.20000000000000004
    vertex 6.999999999999998 3.499999999999999 0.0
    vertex 46.5 3.499999999999999 0.0
  endloop
endfacet
facet normal -2.24430281141894e-18 -1.0 1.7596736730781617e-15
  outer loop
    vertex 6.999999999999998 3.499999999999999 0.0
    vertex 46.5 3.499999999999999 0.20000000000000004
    vertex 6.999999999999998 3.499999999999999 0.20000000000000004
  endloop
endfacet
facet normal -2.24430281141894e-18 -1.0 1.7596736730781617e-15
  outer loop
    vertex 6.999999999999998 3.499999999999999 0.20000000000000004
    vertex 46.5 3.499999999999999 0.20000000000000004
    vertex 28.499999999999993 3.499999999999999 0.20000000000000004
  endloop
endfacet
facet normal -2.24430281141894e-18 -1.0 1.7596736730781617e-15
  outer loop
    vertex 6.999999999999998 3.499999999999999 0.20000000000000004
    vertex 28.499999999999993 3.499999999999999 0.20000000000000004
    vertex 23.999999999999996 3.5000000000000004 0.20000000000000004
  endloop
endfacet
facet normal 9.777526517079383e-17 1.0 -9.809079998556044e-17
  outer loop
    vertex 4.999999999999999 1.5000000000000042 0.20000000000000004
    vertex 48.5 1.5 0.0
    vertex 4.999999999999999 1.5000000000000042 0.0
  endloop
endfacet
facet normal 9.777526517079383e-17 1.0 -9.809079998556044e-17
  outer loop
    vertex 48.5 1.5 0.0
    vertex 4.999999999999999 1.5000000000000042 0.20000000000000004
    vertex 48.5 1.5 0.20000000000000004
  endloop
endfacet
facet normal 9.777526517079383e-17 1.0 -9.809079998556044e-17
  outer loop
    vertex 48.5 1.5 0.20000000000000004
    vertex 4.999999999999999 1.5000000000000042 0.20000000000000004
    vertex 23.999999999999996 1.5000000000000027 0.20000000000000004
  endloop
endfacet
facet normal 9.777526517079383e-17 1.0 -9.809079998556044e-17
  outer loop
    vertex 48.5 1.5 0.20000000000000004
    vertex 23.999999999999996 1.5000000000000027 0.20000000000000004
    vertex 28.499999999999993 1.5000000000000018 0.20000000000000004
  endloop
endfacet
facet normal 0.0 0.0 -1.0
  outer loop
    vertex 28.499999999999993 -2.2050928181541986e-16 0.20000000000000004
    vertex 23.999999999999996 -2.0 0.20000000000000004
    vertex 23.999999999999996 -2.2050928181541986e-16 0.20000000000000004
  endloop
endfacet
facet normal 0.0 0.0 -1.0
  outer loop
    vertex 23.999999999999996 -2.0 0.20000000000000004
    vertex 28.499999999999993 -2.2050928181541986e-16 0.20000000000000004
    vertex 28.499999999999993 -2.0 0.20000000000000004
  endloop
endfacet
facet normal 5.0747202535048825e-20 -1.0 -5.512097705353809e-16
  outer loop
    vertex 50.0 0.0 0.20000000000000004
    vertex 3.499999999999999 0.0 0.0
    vertex 50.0 0.0 0.0
  endloop
endfacet
facet normal 5.0747202535048825e-20 -1.0 -5.512097705353809e-16
  outer loop
    vertex 3.499999999999999 0.0 0.0
    vertex 50.0 0.0 0.20000000000000004
    vertex 3.499999999999999 0.0 0.20000000000000004
  endloop
endfacet
facet normal 5.0747202535048825e-20 -1.0 -5.512097705353809e-16
  outer loop
    vertex 3.499999999999999 0.0 0.20000000000000004
    vertex 50.0 0.0 0.20000000000000004
    vertex 28.499999999999993 -2.2050928181541986e-16 0.20000000000000004
  endloop
endfacet
facet normal 5.0747202535048825e-20 -1.0 -5.512097705353809e-16
  outer loop
    vertex 3.499999999999999 0.0 0.20000000000000004
    vertex 28.499999999999993 -2.2050928181541986e-16 0.20000000000000004
    vertex 23.999999999999996 -2.2050928181541986e-16 0.20000000000000004
  endloop
endfacet
facet normal 1.0 -0.0 -0.0
  outer loop
    vertex 28.499999999999993 -2.2050928181541986e-16 0.20000000000000004
    vertex 28.499999999999993 -2.0 0.4000000000000001
    vertex 28.499999999999993 -2.0 0.20000000000000004
  endloop
endfacet
facet normal 1.0 -0.0 -0.0
  outer loop
    vertex 28.499999999999993 -2.0 0.4000000000000001
    vertex 28.499999999999993 -2.2050928181541986e-16 0.20000000000000004
    vertex 28.499999999999993 24.000000000000004 0.4000000000000001
  endloop
endfacet
facet normal 1.0 -0.0 -0.0
  outer loop
    vertex 28.499999999999993 24.000000000000004 0.4000000000000001
    vertex 28.499999999999993 -2.2050928181541986e-16 0.20000000000000004
    vertex 28.499999999999993 1.5000000000000018 0.20000000000000004
  endloop
endfacet
facet normal 1.0 -0.0 -0.0
  outer loop
    vertex 28.499999999999993 24.000000000000004 0.4000000000000001
    vertex 28.499999999999993 1.5000000000000018 0.20000000000000004
    vertex 28.499999999999993 3.499999999999999 0.20000000000000004
  endloop
endfacet
facet normal 1.0 -0.0 -0.0
  outer loop
    vertex 28.499999999999993 24.000000000000004 0.4000000000000001
    vertex 28.499999999999993 3.499999999999999 0.20000000000000004
    vertex 28.499999999999993 4.999999999999999 0.20000000000000004
  endloop
endfacet
facet normal 1.0 -0.0 -0.0
  outer loop
    vertex 28.499999999999993 24.000000000000004 0.4000000000000001
    vertex 28.499999999999993 4.999999999999999 0.20000000000000004
    vertex 28.499999999999993 6.999999999999998 0.20000000000000004
  endloop
endfacet
facet normal 1.0 -0.0 -0.0
  outer loop
    vertex 28.499999999999993 24.000000000000004 0.4000000000000001
    vertex 28.499999999999993 6.999999999999998 0.20000000000000004
    vertex 28.499999999999993 8.499999999999998 0.20000000000000004
  endloop
endfacet
facet normal 1.0 -0.0 -0.0
  outer loop
    vertex 28.499999999999993 24.000000000000004 0.4000000000000001
    vertex 28.499999999999993 8.499999999999998 0.20000000000000004
    vertex 28.499999999999993 10.500000000000004 0.20000000000000004
  endloop
endfacet
facet normal 1.0 -0.0 -0.0
  outer loop
    vertex 28.499999999999993 24.000000000000004 0.4000000000000001
    vertex 28.499999999999993 10.500000000000004 0.20000000000000004
    vertex 28.499999999999993 12.000000000000004 0.20000000000000004
  endloop
endfacet
facet normal 1.0 -0.0 -0.0
  outer loop
    vertex 28.499999999999993 24.000000000000004 0.4000000000000001
    vertex 28.499999999999993 12.000000000000004 0.20000000000000004
    vertex 28.499999999999993 14.000000000000002 0.20000000000000004
  endloop
endfacet
facet normal 1.0 -0.0 -0.0
  outer loop
    vertex 28.499999999999993 24.000000000000004 0.4000000000000001
    vertex 28.499999999999993 14.000000000000002 0.20000000000000004
    vertex 28.499999999999993 15.500000000000002 0.20000000000000004
  endloop
endfacet
facet normal 1.0 -0.0 -0.0
  outer loop
    vertex 28.499999999999993 24.000000000000004 0.4000000000000001
    vertex 28.499999999999993 15.500000000000002 0.20000000000000004
    vertex 28.499999999999993 17.5 0.20000000000000004
  endloop
endfacet
facet normal 1.0 -0.0 -0.0
  outer loop
    vertex 28.499999999999993 24.000000000000004 0.4000000000000001
    vertex 28.499999999999993 17.5 0.20000000000000004
    vertex 28.499999999999993 19.0 0.20000000000000004
  endloop
endfacet
facet normal 1.0 -0.0 -0.0
  outer loop
    vertex 28.499999999999993 24.000000000000004 0.4000000000000001
    vertex 28.499999999999993 19.0 0.20000000000000004
    vertex 28.499999999999993 24.000000000000004 0.20000000000000004
  endloop
endfacet
facet normal -0.0 1.0 -0.0
  outer loop
    vertex 23.999999999999996 24.000000000000004 0.4000000000000001
    vertex 24.999999999999996 24.000000000000004 0.20000000000000004
    vertex 23.999999999999996 24.000000000000004 0.20000000000000004
  endloop
endfacet
facet normal -0.0 1.0 -0.0
  outer loop
    vertex 24.999999999999996 24.000000000000004 0.20000000000000004
    vertex 23.999999999999996 24.000000000000004 0.4000000000000001
    vertex 27.499999999999996 24.000000000000004 0.20000000000000004
  endloop
endfacet
facet normal -0.0 1.0 -0.0
  outer loop
    vertex 27.499999999999996 24.000000000000004 0.20000000000000004
    vertex 23.999999999999996 24.000000000000004 0.4000000000000001
    vertex 28.499999999999993 24.000000000000004 0.20000000000000004
  endloop
endfacet
facet normal -0.0 1.0 -0.0
  outer loop
    vertex 28.499999999999993 24.000000000000004 0.20000000000000004
    vertex 23.999999999999996 24.000000000000004 0.4000000000000001
    vertex 28.499999999999993 24.000000000000004 0.4000000000000001
  endloop
endfacet
facet normal -0.0 1.0 -0.0
  outer loop
    vertex 28.499999999999993 24.000000000000004 0.4000000000000001
    vertex 23.999999999999996 24.000000000000004 0.4000000000000001
    vertex 24.999999999999996 24.000000000000004 0.4000000000000001
  endloop
endfacet
facet normal -0.0 1.0 -0.0
  outer loop
    vertex 28.499999999999993 24.000000000000004 0.4000000000000001
    vertex 24.999999999999996 24.000000000000004 0.4000000000000001
    vertex 27.499999999999996 24.000000000000004 0.4000000000000001
  endloop
endfacet
facet normal -1.0 0.0 0.0
  outer loop
    vertex 23.999999999999996 24.000000000000004 0.4000000000000001
    vertex 23.999999999999996 -2.0 0.20000000000000004
    vertex 23.999999999999996 -2.0 0.4000000000000001
  endloop
endfacet
facet normal -1.0 0.0 0.0
  outer loop
    vertex 23.999999999999996 -2.0 0.20000000000000004
    vertex 23.999999999999996 24.000000000000004 0.4000000000000001
    vertex 23.999999999999996 -2.2050928181541986e-16 0.20000000000000004
  endloop
endfacet
facet normal -1.0 0.0 0.0
  outer loop
    vertex 23.999999999999996 -2.2050928181541986e-16 0.20000000000000004
    vertex 23.999999999999996 24.000000000000004 0.4000000000000001
    vertex 23.999999999999996 1.5000000000000027 0.20000000000000004
  endloop
endfacet
facet normal -1.0 0.0 0.0
  outer loop
    vertex 23.999999999999996 1.5000000000000027 0.20000000000000004
    vertex 23.999999999999996 24.000000000000004 0.4000000000000001
    vertex 23.999999999999996 3.5000000000000004 0.20000000000000004
  endloop
endfacet
facet normal -1.0 0.0 0.0
  outer loop
    vertex 23.999999999999996 3.5000000000000004 0.20000000000000004
    vertex 23.999999999999996 24.000000000000004 0.4000000000000001
    vertex 23.999999999999996 4.999999999999999 0.20000000000000004
  endloop
endfacet
facet normal -1.0 0.0 0.0
  outer loop
    vertex 23.999999999999996 4.999999999999999 0.20000000000000004
    vertex 23.999999999999996 24.000000000000004 0.4000000000000001
    vertex 23.999999999999996 6.999999999999998 0.20000000000000004
  endloop
endfacet
facet normal -1.0 0.0 0.0
  outer loop
    vertex 23.999999999999996 6.999999999999998 0.20000000000000004
    vertex 23.999999999999996 24.000000000000004 0.4000000000000001
    vertex 23.999999999999996 8.499999999999998 0.20000000000000004
  endloop
endfacet
facet normal -1.0 0.0 0.0
  outer loop
    vertex 23.999999999999996 8.499999999999998 0.20000000000000004
    vertex 23.999999999999996 24.000000000000004 0.4000000000000001
    vertex 23.999999999999996 10.500000000000004 0.20000000000000004
  endloop
endfacet
facet normal -1.0 0.0 0.0
  outer loop
    vertex 23.999999999999996 10.500000000000004 0.20000000000000004
    vertex 23.999999999999996 24.000000000000004 0.4000000000000001
    vertex 23.999999999999996 12.000000000000005 0.20000000000000004
  endloop
endfacet
facet normal -1.0 0.0 0.0
  outer loop
    vertex 23.999999999999996 12.000000000000005 0.20000000000000004
    vertex 23.999999999999996 24.000000000000004 0.4000000000000001
    vertex 23.999999999999996 14.000000000000002 0.20000000000000004
  endloop
endfacet
facet normal -1.0 0.0 0.0
  outer loop
    vertex 23.999999999999996 14.000000000000002 0.20000000000000004
    vertex 23.999999999999996 24.000000000000004 0.4000000000000001
    vertex 23.999999999999996 15.500000000000005 0.20000000000000004
  endloop
endfacet
facet normal -1.0 0.0 0.0
  outer loop
    vertex 23.999999999999996 15.500000000000005 0.20000000000000004
    vertex 23.999999999999996 24.000000000000004 0.4000000000000001
    vertex 23.999999999999996 17.5 0.20000000000000004
  endloop
endfacet
facet normal -1.0 0.0 0.0
  outer loop
    vertex 23.999999999999996 17.5 0.20000000000000004
    vertex 23.999999999999996 24.000000000000004 0.4000000000000001
    vertex 23.999999999999996 19.0 0.20000000000000004
  endloop
endfacet
facet normal -1.0 0.0 0.0
  outer loop
    vertex 23.999999999999996 19.0 0.20000000000000004
    vertex 23.999999999999996 24.000000000000004 0.4000000000000001
    vertex 23.999999999999996 24.000000000000004 0.20000000000000004
  endloop
endfacet
facet normal -0.0 -0.0 1.0
  outer loop
    vertex 28.499999999999993 -2.0 0.4000000000000001
    vertex 27.499999999999996 24.000000000000004 0.4000000000000001
    vertex 27.499999999999996 -1.9999999999999991 0.4000000000000001
  endloop
endfacet
facet normal -0.0 -0.0 1.0
  outer loop
    vertex 27.499999999999996 24.000000000000004 0.4000000000000001
    vertex 28.499999999999993 -2.0 0.4000000000000001
    vertex 28.499999999999993 24.000000000000004 0.4000000000000001
  endloop
endfacet
facet normal 0.0 0.0 -1.0
  outer loop
    vertex 27.499999999999996 27.500000000000007 0.4000000000000001
    vertex 24.999999999999996 24.000000000000004 0.4000000000000001
    vertex 24.999999999999996 27.500000000000007 0.4000000000000001
  endloop
endfacet
facet normal 0.0 0.0 -1.0
  outer loop
    vertex 24.999999999999996 24.000000000000004 0.4000000000000001
    vertex 27.499999999999996 27.500000000000007 0.4000000000000001
    vertex 27.499999999999996 24.000000000000004 0.4000000000000001
  endloop
endfacet
facet normal -0.0 -0.0 1.0
  outer loop
    vertex 24.999999999999996 -2.0 0.4000000000000001
    vertex 23.999999999999996 24.000000000000004 0.4000000000000001
    vertex 23.999999999999996 -2.0 0.4000000000000001
  endloop
endfacet
facet normal -0.0 -0.0 1.0
  outer loop
    vertex 23.999999999999996 24.000000000000004 0.4000000000000001
    vertex 24.999999999999996 -2.0 0.4000000000000001
    vertex 24.999999999999996 24.000000000000004 0.4000000000000001
  endloop
endfacet
facet normal 0.0 0.0 -1.0
  outer loop
    vertex 27.499999999999996 -1.9999999999999991 0.4000000000000001
    vertex 24.999999999999996 -3.9999999999999996 0.4000000000000001
    vertex 24.999999999999996 -2.0 0.4000000000000001
  endloop
endfacet
facet normal 0.0 0.0 -1.0
  outer loop
    vertex 24.999999999999996 -3.9999999999999996 0.4000000000000001
    vertex 27.499999999999996 -1.9999999999999991 0.4000000000000001
    vertex 27.499999999999996 -3.9999999999999996 0.4000000000000001
  endloop
endfacet
facet normal 9.976296518447758e-17 -1.0 1.3218592886943266e-15
  outer loop
    vertex 28.499999999999993 -2.0 0.4000000000000001
    vertex 23.999999999999996 -2.0 0.20000000000000004
    vertex 28.499999999999993 -2.0 0.20000000000000004
  endloop
endfacet
facet normal 9.976296518447758e-17 -1.0 1.3218592886943266e-15
  outer loop
    vertex 23.999999999999996 -2.0 0.20000000000000004
    vertex 28.499999999999993 -2.0 0.4000000000000001
    vertex 23.999999999999996 -2.0 0.4000000000000001
  endloop
endfacet
facet normal 9.976296518447758e-17 -1.0 1.3218592886943266e-15
  outer loop
    vertex 23.999999999999996 -2.0 0.4000000000000001
    vertex 28.499999999999993 -2.0 0.4000000000000001
    vertex 27.499999999999996 -1.9999999999999991 0.4000000000000001
  endloop
endfacet
facet normal 9.976296518447758e-17 -1.0 1.3218592886943266e-15
  outer loop
    vertex 23.999999999999996 -2.0 0.4000000000000001
    vertex 27.499999999999996 -1.9999999999999991 0.4000000000000001
    vertex 24.999999999999996 -2.0 0.4000000000000001
  endloop
endfacet
facet normal 0.0 1.0 0.0
  outer loop
    vertex 24.999999999999996 27.500000000000007 0.6000000000000001
    vertex 27.499999999999996 27.500000000000007 0.4000000000000001
    vertex 24.999999999999996 27.500000000000007 0.4000000000000001
  endloop
endfacet
facet normal 0.0 1.0 0.0
  outer loop
    vertex 27.499999999999996 27.500000000000007 0.4000000000000001
    vertex 24.999999999999996 27.500000000000007 0.6000000000000001
    vertex 27.499999999999996 27.500000000000007 0.6000000000000001
  endloop
endfacet
facet normal -1.0 0.0 0.0
  outer loop
    vertex 24.999999999999996 27.500000000000007 0.6000000000000001
    vertex 24.999999999999996 -3.9999999999999996 0.4000000000000001
    vertex 24.999999999999996 -3.9999999999999996 0.6000000000000001
  endloop
endfacet
facet normal -1.0 0.0 0.0
  outer loop
    vertex 24.999999999999996 -3.9999999999999996 0.4000000000000001
    vertex 24.999999999999996 27.500000000000007 0.6000000000000001
    vertex 24.999999999999996 -2.0 0.4000000000000001
  endloop
endfacet
facet normal -1.0 0.0 0.0
  outer loop
    vertex 24.999999999999996 -2.0 0.4000000000000001
    vertex 24.999999999999996 27.500000000000007 0.6000000000000001
    vertex 24.999999999999996 24.000000000000004 0.4000000000000001
  endloop
endfacet
facet normal -1.0 0.0 0.0
  outer loop
    vertex 24.999999999999996 24.000000000000004 0.4000000000000001
    vertex 24.999999999999996 27.500000000000007 0.6000000000000001
    vertex 24.999999999999996 27.500000000000007 0.4000000000000001
  endloop
endfacet
facet normal -0.0 -0.0 1.0
  outer loop
    vertex 27.499999999999996 -3.9999999999999996 0.6000000000000001
    vertex 24.999999999999996 27.500000000000007 0.6000000000000001
    vertex 24.999999999999996 -3.9999999999999996 0.6000000000000001
  endloop
endfacet
facet normal -0.0 -0.0 1.0
  outer loop
    vertex 24.999999999999996 27.500000000000007 0.6000000000000001
    vertex 27.499999999999996 -3.9999999999999996 0.6000000000000001
    vertex 27.499999999999996 27.500000000000007 0.6000000000000001
  endloop
endfacet
facet normal 0.0 -1.0 0.0
  outer loop
    vertex 27.499999999999996 -3.9999999999999996 0.6000000000000001
    vertex 24.999999999999996 -3.9999999999999996 0.4000000000000001
    vertex 27.499999999999996 -3.9999999999999996 0.4000000000000001
  endloop
endfacet
facet normal 0.0 -1.0 0.0
  outer loop
    vertex 24.999999999999996 -3.9999999999999996 0.4000000000000001
    vertex 27.499999999999996 -3.9999999999999996 0.6000000000000001
    vertex 24.999999999999996 -3.9999999999999996 0.6000000000000001
  endloop
endfacet
facet normal 1.0 -0.0 -0.0
  outer loop
    vertex 27.499999999999996 -1.9999999999999991 0.4000000000000001
    vertex 27.499999999999996 -3.9999999999999996 0.6000000000000001
    vertex 27.499999999999996 -3.9999999999999996 0.4000000000000001
  endloop
endfacet
facet normal 1.0 -0.0 -0.0
  outer loop
    vertex 27.499999999999996 -3.9999999999999996 0.6000000000000001
    vertex 27.499999999999996 -1.9999999999999991 0.4000000000000001
    vertex 27.499999999999996 27.500000000000007 0.6000000000000001
  endloop
endfacet
facet normal 1.0 -0.0 -0.0
  outer loop
    vertex 27.499999999999996 27.500000000000007 0.6000000000000001
    vertex 27.499999999999996 -1.9999999999999991 0.4000000000000001
    vertex 27.499999999999996 24.000000000000004 0.4000000000000001
  endloop
endfacet
facet normal 1.0 -0.0 -0.0
  outer loop
    vertex 27.499999999999996 27.500000000000007 0.6000000000000001
    vertex 27.499999999999996 24.000000000000004 0.4000000000000001
    vertex 27.499999999999996 27.500000000000007 0.4000000000000001
  endloop
endfacet
facet normal 0.0 0.0 -1.0
  outer loop
    vertex 1.5 0.0 0.0
    vertex 0.0 -3.9999999999999996 0.0
    vertex 0.0 0.0 0.0
  endloop
endfacet
facet normal 0.0 0.0 -1.0
  outer loop
    vertex 0.0 -3.9999999999999996 0.0
    vertex 1.5 0.0 0.0
    vertex 2.5 -3.9999999999999996 0.0
  endloop
endfacet
facet normal 0.0 0.0 -1.0
  outer loop
    vertex 2.5 -3.9999999999999996 0.0
    vertex 1.5 0.0 0.0
    vertex 2.5 0.0 0.0
  endloop
endfacet
facet normal -0.0 -0.0 1.0
  outer loop
    vertex 0.0 -3.9999999999999996 0.20000000000000004
    vertex 1.5 0.0 0.20000000000000004
    vertex 0.0 50.0 0.20000000000000004
  endloop
endfacet
facet normal -0.0 -0.0 1.0
  outer loop
    vertex 1.5 0.0 0.20000000000000004
    vertex 0.0 -3.9999999999999996 0.20000000000000004
    vertex 2.5 -3.9999999999999996 0.20000000000000004
  endloop
endfacet
facet normal -0.0 -0.0 1.0
  outer loop
    vertex 1.5 0.0 0.20000000000000004
    vertex 2.5 -3.9999999999999996 0.20000000000000004
    vertex 2.5 0.0 0.20000000000000004
  endloop
endfacet
facet normal -0.0 -0.0 1.0
  outer loop
    vertex 50.0 0.0 0.20000000000000004
    vertex 28.499999999999993 1.5000000000000018 0.20000000000000004
    vertex 28.499999999999993 -2.2050928181541986e-16 0.20000000000000004
  endloop
endfacet
facet normal -0.0 -0.0 1.0
  outer loop
    vertex 28.499999999999993 1.5000000000000018 0.20000000000000004
    vertex 50.0 0.0 0.20000000000000004
    vertex 48.5 1.5 0.20000000000000004
  endloop
endfacet
facet normal -0.0 -0.0 1.0
  outer loop
    vertex 48.5 1.5 0.20000000000000004
    vertex 50.0 0.0 0.20000000000000004
    vertex 48.5 48.5 0.20000000000000004
  endloop
endfacet
facet normal -0.0 -0.0 1.0
  outer loop
    vertex 0.0 50.0 0.20000000000000004
    vertex 1.5000000000000016 48.5 0.20000000000000004
    vertex 50.0 50.0 0.20000000000000004
  endloop
endfacet
facet normal -0.0 -0.0 1.0
  outer loop
    vertex 1.5000000000000016 48.5 0.20000000000000004
    vertex 0.0 50.0 0.20000000000000004
    vertex 1.5 0.0 0.20000000000000004
  endloop
endfacet
facet normal -0.0 -0.0 1.0
  outer loop
    vertex 50.0 50.0 0.20000000000000004
    vertex 1.5000000000000016 48.5 0.20000000000000004
    vertex 48.5 48.5 0.20000000000000004
  endloop
endfacet
facet normal -0.0 -0.0 1.0
  outer loop
    vertex 50.0 50.0 0.20000000000000004
    vertex 48.5 48.5 0.20000000000000004
    vertex 50.0 0.0 0.20000000000000004
  endloop
endfacet
facet normal -0.0 1.0 -0.0
  outer loop
    vertex 1.5 0.0 0.20000000000000004
    vertex 2.5 0.0 0.0
    vertex 1.5 0.0 0.0
  endloop
endfacet
facet normal -0.0 1.0 -0.0
  outer loop
    vertex 2.5 0.0 0.0
    vertex 1.5 0.0 0.20000000000000004
    vertex 2.5 0.0 0.20000000000000004
  endloop
endfacet
facet normal 1.0 0.0 0.0
  outer loop
    vertex 2.5 0.0 0.0
    vertex 2.5 -3.9999999999999996 0.20000000000000004
    vertex 2.5 -3.9999999999999996 0.0
  endloop
endfacet
facet normal 1.0 0.0 0.0
  outer loop
    vertex 2.5 -3.9999999999999996 0.20000000000000004
    vertex 2.5 0.0 0.0
    vertex 2.5 0.0 0.20000000000000004
  endloop
endfacet
facet normal -0.0 -1.0 -0.0
  outer loop
    vertex 2.5 -3.9999999999999996 0.20000000000000004
    vertex 0.0 -3.9999999999999996 0.0
    vertex 2.5 -3.9999999999999996 0.0
  endloop
endfacet
facet normal -0.0 -1.0 -0.0
  outer loop
    vertex 0.0 -3.9999999999999996 0.0
    vertex 2.5 -3.9999999999999996 0.20000000000000004
    vertex 0.0 -3.9999999999999996 0.20000000000000004
  endloop
endfacet
facet normal -1.0 0.0 0.0
  outer loop
    vertex 0.0 50.0 0.20000000000000004
    vertex 0.0 -3.9999999999999996 0.0
    vertex 0.0 -3.9999999999999996 0.20000000000000004
  endloop
endfacet
facet normal -1.0 0.0 0.0
  outer loop
    vertex 0.0 -3.9999999999999996 0.0
    vertex 0.0 50.0 0.20000000000000004
    vertex 0.0 0.0 0.0
  endloop
endfacet
facet normal -1.0 0.0 0.0
  outer loop
    vertex 0.0 0.0 0.0
    vertex 0.0 50.0 0.20000000000000004
    vertex 0.0 50.0 0.0
  endloop
endfacet
endsolid SpeakerV2
